<svg width="20" height="21" viewBox="0 0 20 21" fill="none" xmlns="http://www.w3.org/2000/svg">
<g id="calendar-week-solid">
<path id="Vector" d="M5.625 3V3.625H3.125V17.375H16.875V3.625H14.375V3H13.125V3.625H6.875V3H5.625ZM4.375 4.875H5.625V5.5H6.875V4.875H13.125V5.5H14.375V4.875H15.625V6.125H4.375V4.875ZM4.375 7.375H15.625V16.125H4.375V7.375ZM8.125 8.625V9.875H9.375V8.625H8.125ZM10.625 8.625V9.875H11.875V8.625H10.625ZM13.125 8.625V9.875H14.375V8.625H13.125ZM5.625 11.125V12.375H6.875V11.125H5.625ZM8.125 11.125V12.375H9.375V11.125H8.125ZM10.625 11.125V12.375H11.875V11.125H10.625ZM13.125 11.125V12.375H14.375V11.125H13.125ZM5.625 13.625V14.875H14.375V13.625H5.625Z" fill="#A1A1AA" fill-opacity="0.75"/>
</g>
</svg>
