<svg width="18" height="18" viewBox="0 0 18 18" fill="none" xmlns="http://www.w3.org/2000/svg">
<g id="alarm">
<path id="Vector" d="M16.1999 14.9344L15.6374 14.0625C15.5249 13.8937 15.4687 13.725 15.4687 13.5281V7.67812C15.4687 6.01874 14.7655 4.47187 13.4718 3.31874C12.4312 2.39062 11.0812 1.79999 9.64678 1.68749V1.12499C9.64678 0.787494 9.36553 0.478119 8.9999 0.478119C8.6624 0.478119 8.35303 0.759369 8.35303 1.12499V1.65937C8.29678 1.65937 8.24053 1.65937 8.18428 1.68749C4.92178 2.05312 2.4749 4.66874 2.4749 7.79062V13.5281C2.44678 13.8094 2.39053 13.95 2.33428 14.0344L1.7999 14.9344C1.63115 15.2156 1.63115 15.5531 1.7999 15.8344C1.96865 16.0875 2.2499 16.2562 2.55928 16.2562H8.38115V16.875C8.38115 17.2125 8.6624 17.5219 9.02803 17.5219C9.36553 17.5219 9.6749 17.2406 9.6749 16.875V16.2562H15.4687C15.778 16.2562 16.0593 16.0875 16.228 15.8344C16.3968 15.5531 16.3968 15.2156 16.1999 14.9344ZM3.23428 14.9906L3.43115 14.6531C3.5999 14.3719 3.68428 14.0344 3.74053 13.6406V7.79062C3.74053 5.31562 5.70928 3.23437 8.3249 2.95312C9.92803 2.78437 11.503 3.26249 12.6562 4.27499C13.6687 5.17499 14.2312 6.38437 14.2312 7.67812V13.5281C14.2312 13.95 14.3437 14.3437 14.5968 14.7375L14.7655 14.9906H3.23428Z" fill="#64748B"/>
</g>
</svg>
