<svg width="16" height="16" viewBox="0 0 16 16" fill="none" xmlns="http://www.w3.org/2000/svg">
<g id="check-circle-solid">
<path id="Vector" d="M8 1.5C4.40039 1.5 1.5 4.40039 1.5 8C1.5 11.5996 4.40039 14.5 8 14.5C11.5996 14.5 14.5 11.5996 14.5 8C14.5 7.30078 14.4062 6.60352 14.1562 5.95312L13.3438 6.75C13.4434 7.15039 13.5 7.55078 13.5 8C13.5 11.0508 11.0508 13.5 8 13.5C4.94922 13.5 2.5 11.0508 2.5 8C2.5 4.94922 4.94922 2.5 8 2.5C9.5 2.5 10.8477 3.09766 11.7969 4.04688L12.5 3.34375C11.3496 2.19336 9.75 1.5 8 1.5ZM13.6406 3.64062L8 9.28125L5.85938 7.14062L5.14062 7.85938L7.64062 10.3594L8 10.7031L8.35938 10.3594L14.3594 4.35938L13.6406 3.64062Z" fill="#027A48"/>
</g>
</svg>
