<svg width="20" height="21" viewBox="0 0 20 21" fill="none" xmlns="http://www.w3.org/2000/svg">
<g id="list-alt">
<path id="Vector" d="M17.5 1.0625H2.5C1.4375 1.0625 0.5625 1.9375 0.5625 3V18C0.5625 19.0625 1.4375 19.9688 2.53125 19.9688H17.5312C18.5938 19.9688 19.5 19.0938 19.5 18V3C19.4688 1.9375 18.5625 1.0625 17.5 1.0625ZM7.4375 12.2188V7.625H12.5625V12.1875H7.4375V12.2188ZM12.5625 13.625V18.5625H7.4375V13.625H12.5625ZM1.96875 7.625H6.0625V12.1875H1.96875V7.625ZM13.9688 7.625H18.0625V12.1875H13.9688V7.625ZM2.5 2.46875H17.5C17.8125 2.46875 18.0625 2.71875 18.0625 3.03125V6.25H1.96875V3C1.96875 2.6875 2.1875 2.46875 2.5 2.46875ZM1.96875 18V13.625H6.0625V18.5625H2.5C2.1875 18.5625 1.96875 18.3125 1.96875 18ZM17.5 18.5625H13.9688V13.625H18.0625V18C18.0625 18.3125 17.8125 18.5625 17.5 18.5625Z" fill="#FFB6C1"/>
</g>
</svg>
