<svg width="18" height="17" viewBox="0 0 18 17" fill="none" xmlns="http://www.w3.org/2000/svg">
<g id="Group">
<path id="Vector" d="M6.10273 0.940674H2.53086C1.57461 0.940674 0.787109 1.72817 0.787109 2.68442V6.2563C0.787109 7.21255 1.57461 8.00005 2.53086 8.00005H6.10273C7.05898 8.00005 7.84648 7.21255 7.84648 6.2563V2.71255C7.87461 1.72817 7.08711 0.940674 6.10273 0.940674ZM6.60898 6.28442C6.60898 6.56567 6.38398 6.79067 6.10273 6.79067H2.53086C2.24961 6.79067 2.02461 6.56567 2.02461 6.28442V2.71255C2.02461 2.4313 2.24961 2.2063 2.53086 2.2063H6.10273C6.38398 2.2063 6.60898 2.4313 6.60898 2.71255V6.28442Z" fill="#DEE4EE"/>
<path id="Vector_2" d="M15.468 0.940674H11.8961C10.9398 0.940674 10.1523 1.72817 10.1523 2.68442V6.2563C10.1523 7.21255 10.9398 8.00005 11.8961 8.00005H15.468C16.4242 8.00005 17.2117 7.21255 17.2117 6.2563V2.71255C17.2117 1.72817 16.4242 0.940674 15.468 0.940674ZM15.9742 6.28442C15.9742 6.56567 15.7492 6.79067 15.468 6.79067H11.8961C11.6148 6.79067 11.3898 6.56567 11.3898 6.28442V2.71255C11.3898 2.4313 11.6148 2.2063 11.8961 2.2063H15.468C15.7492 2.2063 15.9742 2.4313 15.9742 2.71255V6.28442Z" fill="#DEE4EE"/>
<path id="Vector_3" d="M6.10273 9.9126H2.53086C1.57461 9.9126 0.787109 10.7001 0.787109 11.6563V15.2282C0.787109 16.1845 1.57461 16.972 2.53086 16.972H6.10273C7.05898 16.972 7.84648 16.1845 7.84648 15.2282V11.6845C7.87461 10.7001 7.08711 9.9126 6.10273 9.9126ZM6.60898 15.2563C6.60898 15.5376 6.38398 15.7626 6.10273 15.7626H2.53086C2.24961 15.7626 2.02461 15.5376 2.02461 15.2563V11.6845C2.02461 11.4032 2.24961 11.1782 2.53086 11.1782H6.10273C6.38398 11.1782 6.60898 11.4032 6.60898 11.6845V15.2563Z" fill="#DEE4EE"/>
<path id="Vector_4" d="M15.468 9.9126H11.8961C10.9398 9.9126 10.1523 10.7001 10.1523 11.6563V15.2282C10.1523 16.1845 10.9398 16.972 11.8961 16.972H15.468C16.4242 16.972 17.2117 16.1845 17.2117 15.2282V11.6845C17.2117 10.7001 16.4242 9.9126 15.468 9.9126ZM15.9742 15.2563C15.9742 15.5376 15.7492 15.7626 15.468 15.7626H11.8961C11.6148 15.7626 11.3898 15.5376 11.3898 15.2563V11.6845C11.3898 11.4032 11.6148 11.1782 11.8961 11.1782H15.468C15.7492 11.1782 15.9742 11.4032 15.9742 11.6845V15.2563Z" fill="#DEE4EE"/>
</g>
</svg>
