<svg width="20" height="18" viewBox="0 0 20 18" fill="none" xmlns="http://www.w3.org/2000/svg">
<g id="Group">
<path id="Vector" d="M6.78125 0.0625H2.8125C1.75 0.0625 0.875 0.9375 0.875 2V5.96875C0.875 7.03125 1.75 7.90625 2.8125 7.90625H6.78125C7.84375 7.90625 8.71875 7.03125 8.71875 5.96875V2.03125C8.75 0.9375 7.875 0.0625 6.78125 0.0625ZM7.34375 6C7.34375 6.3125 7.09375 6.5625 6.78125 6.5625H2.8125C2.5 6.5625 2.25 6.3125 2.25 6V2.03125C2.25 1.71875 2.5 1.46875 2.8125 1.46875H6.78125C7.09375 1.46875 7.34375 1.71875 7.34375 2.03125V6Z" fill="#FFB6C1"/>
<path id="Vector_2" d="M17.1875 0.0625H13.2188C12.1563 0.0625 11.2812 0.9375 11.2812 2V5.96875C11.2812 7.03125 12.1563 7.90625 13.2188 7.90625H17.1875C18.25 7.90625 19.125 7.03125 19.125 5.96875V2.03125C19.125 0.9375 18.25 0.0625 17.1875 0.0625ZM17.75 6C17.75 6.3125 17.5 6.5625 17.1875 6.5625H13.2188C12.9063 6.5625 12.6563 6.3125 12.6563 6V2.03125C12.6563 1.71875 12.9063 1.46875 13.2188 1.46875H17.1875C17.5 1.46875 17.75 1.71875 17.75 2.03125V6Z" fill="#FFB6C1"/>
<path id="Vector_3" d="M6.78125 10.0312H2.8125C1.75 10.0312 0.875 10.9063 0.875 11.9687V15.9375C0.875 17 1.75 17.875 2.8125 17.875H6.78125C7.84375 17.875 8.71875 17 8.71875 15.9375V12C8.75 10.9062 7.875 10.0312 6.78125 10.0312ZM7.34375 15.9687C7.34375 16.2812 7.09375 16.5312 6.78125 16.5312H2.8125C2.5 16.5312 2.25 16.2812 2.25 15.9687V12C2.25 11.6875 2.5 11.4375 2.8125 11.4375H6.78125C7.09375 11.4375 7.34375 11.6875 7.34375 12V15.9687Z" fill="#FFB6C1"/>
<path id="Vector_4" d="M17.1875 10.0312H13.2188C12.1563 10.0312 11.2812 10.9063 11.2812 11.9687V15.9375C11.2812 17 12.1563 17.875 13.2188 17.875H17.1875C18.25 17.875 19.125 17 19.125 15.9375V12C19.125 10.9062 18.25 10.0312 17.1875 10.0312ZM17.75 15.9687C17.75 16.2812 17.5 16.5312 17.1875 16.5312H13.2188C12.9063 16.5312 12.6563 16.2812 12.6563 15.9687V12C12.6563 11.6875 12.9063 11.4375 13.2188 11.4375H17.1875C17.5 11.4375 17.75 11.6875 17.75 12V15.9687Z" fill="#FFB6C1"/>
</g>
</svg>
