<svg width="17" height="16" viewBox="0 0 17 16" fill="none" xmlns="http://www.w3.org/2000/svg">
<path d="M9.23852 3.55769H10.4285V12.7877H9.23852V3.55769ZM6.68852 5.8277H13.0585V6.9977H6.68852V5.8277ZM10.6785 6.1977C11.1985 7.8777 12.2185 9.6677 13.3485 10.6377C13.0685 10.8477 12.6585 11.2777 12.4585 11.5977C11.2785 10.4377 10.3085 8.4477 9.72852 6.45769L10.6785 6.1977ZM9.04852 6.2377L10.0685 6.5377C9.42852 8.5577 8.35852 10.4877 7.09852 11.6477C6.88852 11.3577 6.48852 10.9277 6.20852 10.7077C7.40852 9.7377 8.49852 7.9377 9.04852 6.2377ZM6.12852 3.44769L7.32852 3.83769C6.62852 5.58769 5.47852 7.4277 4.28852 8.5777C4.15852 8.2777 3.79852 7.60769 3.58852 7.30769C4.59852 6.3877 5.56852 4.93769 6.12852 3.44769ZM5.09852 6.3377L6.27852 5.15769L6.28852 5.1777V12.7677H5.09852V6.3377Z" fill="#EC4899"/>
</svg>
