<svg width="20" height="20" viewBox="0 0 20 20" fill="none" xmlns="http://www.w3.org/2000/svg">
<g id="question-circle">
<path id="Vector" d="M10 2.5C5.86426 2.5 2.5 5.86426 2.5 10C2.5 14.1357 5.86426 17.5 10 17.5C14.1357 17.5 17.5 14.1357 17.5 10C17.5 5.86426 14.1357 2.5 10 2.5ZM10 3.75C13.4595 3.75 16.25 6.54053 16.25 10C16.25 13.4595 13.4595 16.25 10 16.25C6.54053 16.25 3.75 13.4595 3.75 10C3.75 6.54053 6.54053 3.75 10 3.75ZM10 6.25C8.62549 6.25 7.5 7.37549 7.5 8.75H8.75C8.75 8.05176 9.30176 7.5 10 7.5C10.6982 7.5 11.25 8.05176 11.25 8.75C11.25 9.22852 10.9424 9.65332 10.4883 9.80469L10.2344 9.88281C9.72412 10.0513 9.375 10.5396 9.375 11.0742V11.875H10.625V11.0742L10.8789 10.9961C11.8408 10.6763 12.5 9.76318 12.5 8.75C12.5 7.37549 11.3745 6.25 10 6.25ZM9.375 12.5V13.75H10.625V12.5H9.375Z" fill="white"/>
</g>
</svg>
