<svg width="20" height="20" viewBox="0 0 20 20" fill="none" xmlns="http://www.w3.org/2000/svg">
<g id="list-alt">
<path id="Vector" d="M2.5 2.5V13.75H6.25V17.5H17.5V6.25H13.75V2.5H2.5ZM3.75 3.75H12.5V6.60156L6.60156 12.5H3.75V3.75ZM6.875 5V5.625H5V6.875H8.08594C8.00537 7.59277 7.78564 8.15918 7.42188 8.55469C7.20703 8.48389 7.01416 8.396 6.85547 8.30078C6.41602 8.03955 6.25 7.76123 6.25 7.5H5C5 8.24463 5.45898 8.86475 6.07422 9.27734C5.7666 9.34326 5.41016 9.375 5 9.375V10.625C6.1084 10.625 7.03125 10.3711 7.73438 9.90234C8.06152 9.9585 8.39356 10 8.75 10V8.82812C9.08936 8.25928 9.27002 7.59521 9.33594 6.875H10V5.625H8.125V5H6.875ZM13.3984 7.5H16.25V16.25H7.5V13.3984L13.3984 7.5ZM12.5 8.65234L11.9141 10.4297L10.6641 14.1797L10.625 14.2773V15H11.875V14.4531L11.8945 14.375H13.1055L13.125 14.4531V15H14.375V14.2773L14.3359 14.1797L13.0859 10.4297L12.5 8.65234ZM12.5 12.5781L12.6758 13.125H12.3242L12.5 12.5781Z" fill="white"/>
</g>
</svg>
