<svg width="20" height="21" viewBox="0 0 20 21" fill="none" xmlns="http://www.w3.org/2000/svg">
<g id="plus-circle-solid">
<path id="Vector" d="M10 2.375C5.52002 2.375 1.875 6.02002 1.875 10.5C1.875 14.98 5.52002 18.625 10 18.625C14.48 18.625 18.125 14.98 18.125 10.5C18.125 6.02002 14.48 2.375 10 2.375ZM10 3.625C13.8037 3.625 16.875 6.69629 16.875 10.5C16.875 14.3037 13.8037 17.375 10 17.375C6.19629 17.375 3.125 14.3037 3.125 10.5C3.125 6.69629 6.19629 3.625 10 3.625ZM9.375 6.75V9.875H6.25V11.125H9.375V14.25H10.625V11.125H13.75V9.875H10.625V6.75H9.375Z" fill="white"/>
</g>
</svg>
