<svg width="18" height="20" viewBox="0 0 18 20" fill="none" xmlns="http://www.w3.org/2000/svg">
<g id="Group">
<path id="Vector" d="M9 8.65625C11.3125 8.65625 13.1875 6.84375 13.1875 4.59375C13.1875 2.34375 11.3125 0.53125 9 0.53125C6.6875 0.53125 4.8125 2.34375 4.8125 4.59375C4.8125 6.84375 6.6875 8.65625 9 8.65625ZM9 1.96875C10.5312 1.96875 11.7813 3.15625 11.7813 4.625C11.7813 6.09375 10.5312 7.28125 9 7.28125C7.46875 7.28125 6.21875 6.09375 6.21875 4.625C6.21875 3.15625 7.46875 1.96875 9 1.96875Z" fill="#DEE4EE"/>
<path id="Vector_2" d="M11.0312 10.0625H6.96875C3.625 10.0625 0.90625 12.8125 0.90625 16.1563V18.75C0.90625 19.125 1.21875 19.4688 1.625 19.4688C2.03125 19.4688 2.34375 19.1563 2.34375 18.75V16.1563C2.34375 13.5938 4.4375 11.4688 7.03125 11.4688H11.0625C13.625 11.4688 15.75 13.5625 15.75 16.1563V18.75C15.75 19.125 16.0625 19.4688 16.4688 19.4688C16.875 19.4688 17.1875 19.1563 17.1875 18.75V16.1563C17.0938 12.8125 14.375 10.0625 11.0312 10.0625Z" fill="#DEE4EE"/>
</g>
</svg>
