<svg width="20" height="20" viewBox="0 0 20 20" fill="none" xmlns="http://www.w3.org/2000/svg">
<g id="sort-numeric-up-solid">
<path id="Vector" d="M5.36865 3.125L5.27466 3.61206C5.27466 3.61206 5.16929 3.97466 4.92554 4.33716C4.67554 4.69966 4.3625 5 3.75 5V6.25C4.6125 6.25 5.2 5.8249 5.625 5.36865V9.375H6.875V3.125H5.36865ZM14.375 3.4375L13.9246 3.86841L11.25 6.5625L12.1313 7.44385L13.75 5.81909V17.5H15V5.81909L16.6187 7.44385L17.5 6.5625L14.8254 3.86841L14.375 3.4375ZM5.3125 10.625C4.1125 10.625 3.125 11.6125 3.125 12.8125V13.125H4.375V12.8125C4.375 12.2625 4.7625 11.875 5.3125 11.875H5.9375C6.4875 11.875 6.875 12.2625 6.875 12.8125C6.875 13.1 6.65659 13.4249 6.28784 13.6499C5.51909 14.1249 4.84365 14.4312 4.2749 14.7437C3.99365 14.9062 3.73696 15.0567 3.51196 15.2942C3.29321 15.5317 3.125 15.8875 3.125 16.25V16.875H8.125V15.625H5.27466C5.73091 15.3875 6.26196 15.1503 6.94946 14.7253C7.58696 14.3316 8.125 13.65 8.125 12.8125C8.125 11.6125 7.1375 10.625 5.9375 10.625H5.3125Z" fill="#FFB6C1"/>
</g>
</svg>
