<svg width="60" height="59" viewBox="0 0 60 59" fill="none" xmlns="http://www.w3.org/2000/svg">
<g id="heart-unfilled">
<g id="Group" filter="url(#filter0_d_15500_126151)">
<path id="Vector" d="M30 52C42.4264 52 52.5 41.9264 52.5 29.5C52.5 17.0736 42.4264 7 30 7C17.5736 7 7.5 17.0736 7.5 29.5C7.5 41.9264 17.5736 52 30 52Z" fill="white"/>
<path id="Vector_2" d="M20.5492 31.1173L20.5393 31.1073L20.53 31.0987L20.5291 31.0979L20.528 31.0968L20.5154 31.0848C20.5034 31.0732 20.4843 31.0546 20.459 31.0293C20.4086 30.9786 20.3341 30.9016 20.2439 30.8016C20.0628 30.6008 19.8223 30.312 19.5861 29.9621C19.0956 29.2356 18.6328 28.3203 18.6328 27.3108C18.6328 24.193 21.2073 21.5957 24.3732 21.5957C27.03 21.5957 28.7571 23.1874 29.4641 23.9044L29.9981 24.4462L30.5322 23.9044C31.2392 23.1874 32.9663 21.5957 35.6232 21.5957C38.789 21.5957 41.3635 24.193 41.3635 27.3108C41.3635 28.3288 40.9182 29.2638 40.4274 29.9774C40.1858 30.3286 39.9437 30.6109 39.763 30.8042C39.673 30.9005 39.5991 30.9738 39.5495 31.0215C39.5247 31.0453 39.506 31.0626 39.4944 31.0732L39.4826 31.084L39.4817 31.0848L39.4642 31.1002L39.4471 31.1173L30.0909 40.464L30.0901 40.4648L29.9981 40.5563L29.9062 40.4648L29.9054 40.464L20.5492 31.1173Z" stroke="#E3A1A1" stroke-width="2.5"/>
</g>
</g>
<defs>
<filter id="filter0_d_15500_126151" x="0.5" y="0" width="59" height="59" filterUnits="userSpaceOnUse" color-interpolation-filters="sRGB">
<feFlood flood-opacity="0" result="BackgroundImageFix"/>
<feColorMatrix in="SourceAlpha" type="matrix" values="0 0 0 0 0 0 0 0 0 0 0 0 0 0 0 0 0 0 127 0" result="hardAlpha"/>
<feOffset/>
<feGaussianBlur stdDeviation="3.5"/>
<feComposite in2="hardAlpha" operator="out"/>
<feColorMatrix type="matrix" values="0 0 0 0 0 0 0 0 0 0 0 0 0 0 0 0 0 0 0.25 0"/>
<feBlend mode="normal" in2="BackgroundImageFix" result="effect1_dropShadow_15500_126151"/>
<feBlend mode="normal" in="SourceGraphic" in2="effect1_dropShadow_15500_126151" result="shape"/>
</filter>
</defs>
</svg>
