<svg width="11" height="11" viewBox="0 0 11 11" fill="none" xmlns="http://www.w3.org/2000/svg">
<path id="Vector" d="M5.5 0C2.46738 0 0 2.46738 0 5.5C0 8.53262 2.46738 11 5.5 11C8.53262 11 11 8.53262 11 5.5C11 2.46738 8.53262 0 5.5 0ZM5.5 0.846154C8.06596 0.846154 10.1538 2.93404 10.1538 5.5C10.1538 8.06596 8.06596 10.1538 5.5 10.1538C2.93404 10.1538 0.846154 8.06596 0.846154 5.5C0.846154 2.93404 2.93404 0.846154 5.5 0.846154ZM3.59615 3.80769C3.42784 3.80769 3.26643 3.87455 3.14741 3.99357C3.0284 4.11258 2.96154 4.274 2.96154 4.44231C2.96154 4.61062 3.0284 4.77204 3.14741 4.89105C3.26643 5.01006 3.42784 5.07692 3.59615 5.07692C3.76446 5.07692 3.92588 5.01006 4.04489 4.89105C4.16391 4.77204 4.23077 4.61062 4.23077 4.44231C4.23077 4.274 4.16391 4.11258 4.04489 3.99357C3.92588 3.87455 3.76446 3.80769 3.59615 3.80769ZM7.40385 3.80769C7.23554 3.80769 7.07412 3.87455 6.95511 3.99357C6.83609 4.11258 6.76923 4.274 6.76923 4.44231C6.76923 4.61062 6.83609 4.77204 6.95511 4.89105C7.07412 5.01006 7.23554 5.07692 7.40385 5.07692C7.57216 5.07692 7.73357 5.01006 7.85259 4.89105C7.9716 4.77204 8.03846 4.61062 8.03846 4.44231C8.03846 4.274 7.9716 4.11258 7.85259 3.99357C7.73357 3.87455 7.57216 3.80769 7.40385 3.80769ZM5.07692 5.92638V6.55687C5.45812 6.55687 5.70162 6.73238 5.70162 6.82377C5.70162 6.91478 5.4596 7.08844 5.08105 7.08984C5.07964 7.08984 5.07833 7.08984 5.07692 7.08984V7.09067V7.72033V7.72115C5.07833 7.72115 5.07964 7.72116 5.08105 7.72115C5.4596 7.72256 5.70162 7.89621 5.70162 7.98723C5.70162 8.07861 5.45812 8.25413 5.07692 8.25413V8.88462C5.78304 8.88462 6.33624 8.49027 6.33624 7.98723C6.33624 7.76195 6.22052 7.56151 6.03463 7.4055C6.22052 7.24948 6.33624 7.04905 6.33624 6.82377C6.33624 6.32073 5.78304 5.92638 5.07692 5.92638Z" fill="#33AF31"/>
</svg>
