<svg xmlns="http://www.w3.org/2000/svg" width="24" height="24" viewBox="0 0 24 24" fill="none">
	<path d="M5.90476 4C4.85333 4 4 4.85333 4 5.90476V18.0952C4 19.1467 4.85333 20 5.90476 20H18.0952C19.1467 20 20 19.1467 20 18.0952V5.90476C20 4.85333 19.1467 4 18.0952 4H5.90476ZM12 6.66667C15.1505 6.66667 17.7143 8.70827 17.7143 11.2188C17.7143 12.2207 17.3178 13.1279 16.4874 14.0193C15.8893 14.6974 14.9183 15.4439 14.0231 16.061C13.1278 16.6705 12.3048 17.1503 12 17.276C11.8781 17.3256 11.7867 17.3482 11.7143 17.3482C11.4629 17.3482 11.4854 17.0822 11.5045 16.9717C11.5197 16.8879 11.5885 16.4911 11.5885 16.4911C11.6076 16.3501 11.6263 16.1261 11.5692 15.9851C11.5044 15.8289 11.2492 15.7487 11.0625 15.7106C8.31964 15.3525 6.28571 13.4664 6.28571 11.2188C6.28571 8.70827 8.84952 6.66667 12 6.66667ZM11.6161 9.71354C11.4241 9.7171 11.2381 9.86357 11.2381 10.0952V12.381C11.2381 12.5912 11.4088 12.7619 11.619 12.7619C11.8293 12.7619 12 12.5912 12 12.381V11.2842L12.8326 12.6019C13.0482 12.9036 13.5238 12.7516 13.5238 12.381V10.0952C13.5238 9.88495 13.3531 9.71429 13.1429 9.71429C12.9326 9.71429 12.7619 9.88495 12.7619 10.0952V11.2381L11.9293 9.87426C11.8485 9.76111 11.7312 9.71141 11.6161 9.71354ZM8.19048 9.71429C7.98019 9.71429 7.80952 9.88495 7.80952 10.0952V12.381C7.80952 12.5912 7.98019 12.7619 8.19048 12.7619H9.33333C9.54362 12.7619 9.71429 12.5912 9.71429 12.381C9.71429 12.1707 9.54362 12 9.33333 12H8.57143V10.0952C8.57143 9.88495 8.40076 9.71429 8.19048 9.71429ZM10.4762 9.71429C10.2659 9.71429 10.0952 9.88495 10.0952 10.0952V12.381C10.0952 12.5912 10.2659 12.7619 10.4762 12.7619C10.6865 12.7619 10.8571 12.5912 10.8571 12.381V10.0952C10.8571 9.88495 10.6865 9.71429 10.4762 9.71429ZM14.2857 9.71429C14.0754 9.71429 13.9048 9.88495 13.9048 10.0952V12.381C13.9048 12.5912 14.0754 12.7619 14.2857 12.7619H15.4286C15.6389 12.7619 15.8095 12.5912 15.8095 12.381C15.8095 12.1707 15.6389 12 15.4286 12H14.6667V11.619H15.4286C15.6392 11.619 15.8095 11.4484 15.8095 11.2381C15.8095 11.0278 15.6392 10.8571 15.4286 10.8571H14.6667V10.4762H15.4286C15.6389 10.4762 15.8095 10.3055 15.8095 10.0952C15.8095 9.88495 15.6389 9.71429 15.4286 9.71429H14.2857Z" fill="white"/>
</svg>