<svg width="198" height="57" viewBox="0 0 198 57" fill="none" xmlns="http://www.w3.org/2000/svg">
<g id="Final Logo" clip-path="url(#clip0_5774_48005)">
<path id="Vector" d="M30.1915 0C30.9344 0.180551 31.6525 0.304235 32.3226 0.54876C34.9913 1.52402 37.0744 3.98918 36.9797 7.16374C36.9142 9.36305 36.9666 11.5638 36.9666 13.7645V14.4099C35.2011 13.3821 33.3394 12.8817 31.3452 12.6883V9.255H5.69111V43.6634H36.9666C36.9666 43.8909 36.9666 44.0629 36.9666 44.2363C36.9666 46.0802 36.9127 47.927 36.9783 49.7694C37.1108 53.4373 34.5135 56.0247 31.367 56.7583C30.7596 56.8991 30.1245 56.9858 29.501 56.9872C22.1402 57.0028 14.7795 57 7.4173 56.9957C4.02463 56.9929 1.01216 54.8405 0.15999 51.828C0.120658 51.6887 0.0886109 51.5465 0.0230591 51.3859C-0.00898845 36.1514 -0.00898845 20.9368 0.0230591 5.6582C0.738302 2.80635 2.58832 1.12453 5.33276 0.298548C5.73481 0.176286 6.14997 0.0980945 6.55785 0C14.4212 0 22.283 0 30.1915 0ZM32.9679 2.71679C31.8448 1.99174 30.6154 1.64628 29.2635 1.6477C22.0179 1.65623 14.7708 1.64059 7.5251 1.66903C6.77927 1.67187 6.00284 1.81972 5.29488 2.05572C3.09817 2.78503 1.64729 4.68152 1.64729 6.71876C1.64583 21.2339 1.64729 35.7505 1.64437 50.2656C1.64437 51.2394 1.9328 52.1209 2.50966 52.8985C3.78573 54.6173 5.56874 55.358 7.70282 55.3594C14.8654 55.3637 22.0295 55.3622 29.1922 55.3566C29.6379 55.3566 30.0866 55.3168 30.5265 55.2514C32.8135 54.9087 34.7845 53.2255 35.1603 51.1428C35.3424 50.1348 35.271 49.0814 35.2929 48.0478C35.3103 47.1621 35.2972 46.2764 35.2972 45.3339H4.02755V7.61441H33.0102C33.0102 8.73894 33.0044 9.82224 33.0175 10.9055C33.0189 11.0406 33.0932 11.2709 33.1821 11.2951C33.8682 11.4913 34.5674 11.6462 35.2958 11.8239C35.2958 10.226 35.2797 8.68918 35.3001 7.15237C35.3249 5.29426 34.5528 3.84132 32.9665 2.71537L32.9679 2.71679Z" fill="white"/>
<path id="Vector_2" d="M21.2384 17.9186C26.3354 14.0716 33.5563 14.4113 38.2309 18.6948C42.333 22.4522 43.5522 28.3507 41.2142 33.3407C40.7612 34.306 40.8224 35.1377 41.558 35.8784C42.5253 36.8522 43.5246 37.7976 44.5428 38.7203C45.6601 39.7325 46.8167 40.7021 47.9544 41.693C48.103 41.8223 48.2443 41.9588 48.3827 42.0996C49.3834 43.1132 49.5408 44.1141 48.7498 45.2969C48.3492 45.8954 47.835 46.457 47.2625 46.9005C46.0112 47.8687 44.4656 47.5545 43.2711 46.238C41.5682 44.3628 39.8333 42.5147 38.11 40.658C37.9993 40.5386 37.8682 40.4362 37.7531 40.3211C36.7596 39.3245 35.7356 39.1695 34.3575 39.7624C26.704 43.0563 17.6301 38.2412 16.3482 30.2017C15.5572 25.243 17.2295 21.1358 21.2413 17.92M21.8153 29.0217C21.8327 29.1013 21.8531 29.1795 21.8662 29.2591C22.3907 32.6598 25.6056 35.3936 29.1221 35.4277C33.9147 35.4746 37.4559 31.5594 36.8208 26.9177C36.2454 22.7181 31.833 19.8264 27.594 20.8273C24.2392 21.6206 21.3549 24.7354 21.8153 29.0203V29.0217Z" fill="white"/>
<path id="Vector_3" d="M135.517 12.5959C135.551 14.0317 135.602 15.4207 135.613 16.8111C135.64 20.078 135.65 23.345 135.663 26.6134C135.667 27.5944 135.663 28.5767 135.663 29.4965H153.273C153.324 23.3052 153.375 17.2191 153.426 11.1159C150.342 11.1856 147.299 11.2595 144.258 11.3206C143.081 11.3448 141.904 11.369 140.728 11.3377C139.372 11.3021 138.694 10.0781 139.417 8.93793C139.59 8.66497 140.005 8.51711 140.335 8.36784C140.501 8.29249 140.726 8.33799 140.925 8.33656C143.724 8.30387 146.524 8.28112 149.324 8.2342C150.599 8.21288 151.872 8.15033 153.145 8.08777C153.323 8.07924 153.527 7.9911 153.665 7.87737C154.648 7.06702 156.125 7.42102 156.471 8.63653C156.647 9.25496 156.603 9.94304 156.596 10.5984C156.542 15.9183 156.463 21.2381 156.415 26.558C156.398 28.4815 156.476 30.4064 156.443 32.3285C156.421 33.5753 155.436 34.2449 154.251 33.9165C153.672 33.7572 153.31 33.4004 153.194 32.8161C153.164 32.6597 153.123 32.5048 153.081 32.32H135.474C135.273 33.4331 134.954 33.8013 134.119 33.9591C133.076 34.1567 132.329 33.5909 132.339 32.5531C132.353 31.1627 132.435 29.7738 132.449 28.3848C132.47 26.4784 132.473 24.5705 132.449 22.664C132.419 20.2387 132.364 17.8148 132.299 15.3908C132.253 13.6465 132.149 11.9035 132.123 10.1577C132.113 9.52081 132.173 8.86116 132.343 8.24842C132.553 7.49352 133.232 7.12673 133.986 7.20492C134.735 7.28169 135.255 7.73378 135.319 8.53275C135.428 9.86911 135.455 11.2112 135.517 12.5959Z" fill="white"/>
<path id="Vector_4" d="M113.301 10.6668C111.679 10.7094 110.057 10.7506 108.435 10.7947C106.101 10.8587 103.766 10.9298 101.432 10.9838C100.539 11.0051 99.6419 11.0378 98.7548 10.9724C97.8779 10.9084 97.521 10.3611 97.588 9.38157C97.6463 8.53711 98.1372 8.07507 98.9806 8.07364C101.948 8.06369 104.917 8.0836 107.883 8.03526C109.886 8.00256 111.886 7.8803 113.887 7.77794C114.098 7.76657 114.327 7.66279 114.505 7.54194C115.156 7.09696 115.846 6.95906 116.562 7.32301C117.243 7.66989 117.492 8.31248 117.39 9.00625C117.293 9.66875 117.111 10.3398 116.843 10.9553C114.939 15.3099 112.662 19.4626 109.693 23.2285C109.613 23.3309 109.537 23.4375 109.438 23.5697C110.541 24.2692 111.664 24.9231 112.725 25.6653C115.309 27.4736 117.868 29.3175 120.426 31.16C121.044 31.6049 121.283 32.2347 121.058 32.9626C120.846 33.6521 120.356 34.1369 119.61 34.181C119.222 34.2037 118.709 34.0872 118.436 33.8398C115.31 31.0107 111.787 28.7076 108.255 26.4116C107.265 25.7676 107.265 25.7904 106.407 26.5851C103.783 29.0147 101.062 31.3306 98.0396 33.2839C97.435 33.6749 96.7912 34.0203 96.1284 34.3089C95.2893 34.6729 94.5056 34.363 94.1254 33.6024C93.7044 32.7593 93.952 31.939 94.7824 31.4827C98.7796 29.2848 102.417 26.6178 105.54 23.3366C108.947 19.7568 111.53 15.6582 113.269 11.0662C113.304 10.9753 113.322 10.88 113.361 10.7364C113.367 10.6653 113.361 10.644 113.354 10.6227C113.336 10.6369 113.319 10.6525 113.301 10.6668Z" fill="white"/>
<path id="Vector_5" d="M178.685 11.7344C178.177 11.6547 177.961 11.8652 177.753 12.2732C176.037 15.6326 173.552 18.3764 170.548 20.688C169.638 21.3888 168.681 21.3263 168.13 20.5998C167.566 19.8535 167.789 18.9081 168.721 18.2569C170.717 16.8637 172.494 15.2515 173.947 13.3167C174.675 12.3471 175.293 11.3135 175.518 10.108C175.584 9.76252 175.596 9.40284 175.594 9.05027C175.588 7.58738 176.972 7.20069 177.973 7.59733C178.337 7.74092 178.477 8.07928 178.609 8.91805C179.443 8.91805 180.282 8.94649 181.118 8.91237C182.904 8.83986 184.688 8.72329 186.474 8.6522C187.112 8.62661 187.723 8.5797 188.215 8.09634C188.05 7.82764 187.857 7.54615 187.702 7.24618C187.439 6.73723 187.624 6.20126 188.151 5.87428C188.665 5.55583 189.305 5.60132 189.628 6.04204C189.985 6.52682 190.279 7.05284 190.601 7.56179C191.584 9.11566 192.566 10.6695 193.555 12.2206C193.911 12.7764 193.841 13.2456 193.312 13.665C192.844 14.036 192.18 14.0289 191.804 13.547C191.225 12.8034 190.718 12.0045 190.183 11.2268C190.046 11.0278 189.924 10.8188 189.753 10.5487C189.498 11.5495 189.28 12.4864 189.021 13.4105C187.909 17.3783 186.323 21.1415 183.931 24.5535C181.454 28.0849 178.124 30.6879 174.379 32.8176C173.253 33.4587 172.066 34.0047 170.882 34.5406C169.971 34.9515 169.085 34.606 168.723 33.7829C168.337 32.9086 168.656 32.0669 169.597 31.666C171.99 30.6481 174.276 29.4596 176.334 27.8773C180.528 24.653 183.38 20.5032 185.138 15.6212C185.599 14.3445 185.924 13.021 186.307 11.7187C186.343 11.5965 186.346 11.4657 186.369 11.3036C183.807 11.4486 181.269 11.5922 178.685 11.7372V11.7344Z" fill="white"/>
<path id="Vector_6" d="M78.4957 12.249C80.1156 12.1793 81.6859 12.1139 83.2562 12.0414C84.3531 11.9902 85.064 13.237 84.5702 14.3502C84.3517 14.8435 83.9715 15.1222 83.4238 15.1421C81.2387 15.2202 79.0551 15.3084 76.87 15.351C75.1366 15.3852 73.4016 15.3581 71.6142 15.3581V16.0548C71.6142 21.8139 71.6157 27.573 71.6142 33.3322C71.6142 34.596 70.7621 35.314 69.5807 35.0638C68.9004 34.9188 68.4867 34.4567 68.4415 33.7772C68.4284 33.5838 68.4313 33.389 68.4313 33.1957C68.4313 27.502 68.4313 21.8068 68.4313 16.113V15.5387C68.2055 15.5387 68.0278 15.5387 67.8516 15.5387C65.0663 15.5387 62.2826 15.5344 59.4974 15.543C58.9525 15.5444 58.4063 15.6283 57.8615 15.6155C56.4528 15.5785 55.7172 14.3445 56.3523 13.1205C56.5883 12.6669 56.9175 12.4309 57.4871 12.4352C60.9016 12.4565 64.3161 12.4466 67.7307 12.4466C67.9113 12.4466 68.0934 12.4466 68.3469 12.4466V11.9106C68.3469 10.4705 68.3265 9.03034 68.3585 7.59162C68.3687 7.1111 68.4736 6.62063 68.6134 6.15717C68.8043 5.52311 69.5253 5.12504 70.2245 5.19186C70.9922 5.26579 71.5166 5.7065 71.6434 6.39885C71.6813 6.60357 71.69 6.81682 71.6915 7.0258C71.6944 8.8043 71.6929 10.5828 71.6929 12.4622C73.9654 12.3911 76.2072 12.3215 78.4986 12.2518L78.4957 12.249Z" fill="white"/>
<path id="Vector_7" d="M60.1101 24.4895C60.5747 23.6123 61.0336 22.7721 61.4561 21.9149C61.5813 21.6604 61.6454 21.359 61.6644 21.0747C61.7183 20.2899 62.2077 19.6999 62.9171 19.6189C63.73 19.5265 64.4933 20.0255 64.6754 20.7975C64.8662 21.6149 64.7642 22.4338 64.3913 23.1631C63.596 24.7212 62.8195 26.3035 61.8581 27.765C60.8399 29.3089 59.6323 30.7363 58.4713 32.1864C58.0517 32.711 57.5273 33.1531 56.7523 33.0976C55.9978 33.0422 55.4865 32.6527 55.198 31.9902C54.9271 31.3675 55.0043 30.796 55.5214 30.3027C57.3219 28.5839 58.7976 26.6191 60.113 24.4909L60.1101 24.4895Z" fill="white"/>
<path id="Vector_8" d="M75.8131 22.7138C75.4722 22.0058 75.1707 21.3277 75.2071 20.5543C75.2435 19.7639 75.7606 19.1895 76.5691 19.0644C77.2348 18.9621 78.1059 19.4028 78.256 20.0724C78.7891 22.4366 80.4221 24.1042 82.0041 25.7903C82.8941 26.74 83.9211 27.5688 84.9073 28.4303C85.474 28.9251 85.758 29.4852 85.5686 30.2316C85.2788 31.3803 83.9546 31.8892 82.9932 31.1627C82.3158 30.6509 81.7011 30.0538 81.1009 29.4539C79.4796 27.8332 77.9923 26.0988 76.7031 24.2123C76.3827 23.7431 76.1175 23.2384 75.8131 22.7167V22.7138Z" fill="white"/>
<path id="Vector_9" d="M123.582 49.94C124.323 50.9067 125.42 51.1285 126.539 51.1527C128.026 51.1854 129.518 51.1015 131.006 51.0688C131.272 51.0631 131.56 51.002 131.793 51.0859C131.981 51.1541 132.192 51.3873 132.221 51.5735C132.242 51.7043 131.985 52.0043 131.837 52.0156C129.707 52.1749 127.573 52.3355 125.446 52.0043C124.479 51.8536 123.695 51.3517 123.062 50.6494C122.598 51.0375 122.166 51.4072 121.723 51.764C121.585 51.8763 121.42 52.0213 121.261 52.0299C121.05 52.0412 120.761 51.9986 120.63 51.8635C120.431 51.6574 120.556 51.4285 120.798 51.2593C121.295 50.9124 121.803 50.5712 122.255 50.1732C122.434 50.0154 122.547 49.714 122.566 49.468C122.611 48.905 122.566 48.3364 122.585 47.7706C122.6 47.3469 122.402 47.1806 121.991 47.1891C121.71 47.1948 121.418 47.2318 121.149 47.1749C120.98 47.1393 120.843 46.956 120.693 46.8394C120.828 46.6816 120.958 46.3972 121.101 46.3901C121.657 46.3674 122.228 46.3816 122.776 46.4783C123.303 46.5721 123.432 47.0285 123.445 47.4891C123.461 48.0705 123.449 48.652 123.449 49.2448C124.412 48.6776 125.296 45.8129 125.1 43.888C124.795 43.888 124.472 43.9378 124.176 43.8695C123.984 43.8255 123.729 43.6335 123.688 43.4658C123.615 43.1587 123.892 43.072 124.169 43.072C124.549 43.072 124.928 43.072 125.389 43.072C125.389 42.6043 125.387 42.1905 125.389 41.7768C125.392 41.501 125.435 41.2295 125.8 41.2352C126.166 41.2395 126.259 41.4797 126.252 41.7982C126.242 42.2005 126.249 42.6028 126.249 43.072C126.633 43.072 126.985 43.0364 127.321 43.0862C127.512 43.1146 127.682 43.281 127.853 43.4629C127.845 43.6193 127.847 43.6989 127.843 43.7842C127.837 43.7913 127.825 43.8041 127.81 43.807C127.774 43.8184 127.767 43.834 127.773 43.8553C127.774 43.8539 127.777 43.8511 127.777 43.8511H126.036C125.994 44.2633 125.956 44.6216 125.917 45.0168C126.192 45.0524 126.431 45.0808 126.668 45.1149C127.153 45.1846 127.438 45.476 127.395 45.9395C127.298 46.9787 127.221 48.0307 126.993 49.0458C126.767 50.0481 126.189 50.4262 125.287 50.4092C124.534 50.3949 124.357 50.2329 124.329 49.5348C124.131 49.6614 123.933 49.7893 123.687 49.9144C123.618 49.9173 123.599 49.9272 123.582 49.9386M125.659 45.7945C125.474 47.0739 125.127 48.3023 124.351 49.4367C124.604 49.4367 124.77 49.4168 124.931 49.4396C125.713 49.5562 126.052 49.3969 126.24 48.652C126.424 47.9213 126.542 47.1692 126.62 46.4186C126.698 45.6722 126.482 45.5357 125.659 45.7916V45.7945Z" fill="white"/>
<path id="Vector_10" d="M188.075 45.8755C188.926 45.712 189.739 45.5599 190.618 45.3964C190.618 44.731 190.614 44.0572 190.621 43.3833C190.623 43.2255 190.61 43.0165 190.703 42.9241C190.834 42.7933 191.087 42.6497 191.229 42.6938C191.395 42.745 191.6 42.9852 191.61 43.1558C191.654 43.8283 191.628 44.5064 191.628 45.2386C192.055 45.2002 192.492 45.1547 192.927 45.1234C193.29 45.0978 193.654 45.068 194.017 45.0765C194.291 45.0836 194.568 45.1604 194.552 45.5129C194.535 45.8499 194.4 46.1157 194.001 46.1356C193.423 46.1641 192.843 46.1769 192.266 46.2124C191.97 46.2295 191.676 46.2806 191.348 46.319C191.304 46.592 191.278 46.8621 191.214 47.1251C191.12 47.5161 191.038 47.917 190.884 48.2866C190.613 48.9306 190.097 49.269 189.57 49.2149C189.128 49.1709 188.347 48.47 188.261 47.9966C188.238 47.8672 188.31 47.644 188.411 47.5886C188.541 47.5161 188.744 47.563 188.914 47.5729C188.949 47.5743 188.974 47.6483 189.013 47.6753C189.251 47.8445 189.489 48.0108 189.728 48.1786C189.908 47.9227 190.141 47.6867 190.253 47.4037C190.379 47.0853 190.396 46.7256 190.476 46.2991C189.406 46.5138 188.438 46.6986 187.476 46.9119C187.366 46.936 187.207 47.1237 187.214 47.226C187.268 47.998 187.304 48.7771 187.45 49.5348C187.613 50.3835 188.069 50.7191 188.961 50.6892C189.65 50.665 190.336 50.5413 191.023 50.4589C191.154 50.4433 191.3 50.3622 191.408 50.3978C191.6 50.4617 191.931 50.6153 191.919 50.6906C191.887 50.9039 191.75 51.2294 191.586 51.2749C190.377 51.6133 189.137 51.7341 187.923 51.3204C186.816 50.9423 186.577 49.9769 186.448 48.9889C186.371 48.3989 186.35 47.8004 186.296 47.1237C185.749 47.2801 185.218 47.4322 184.688 47.5829C184.419 47.6596 184.148 47.735 183.878 47.8132C183.553 47.907 183.261 47.8103 183.234 47.4905C183.218 47.3014 183.409 46.9957 183.59 46.9119C183.941 46.7484 184.35 46.7057 184.735 46.6105C185.261 46.4811 185.786 46.3503 186.238 46.238C186.238 45.5343 186.245 44.8917 186.235 44.2491C186.229 43.8809 186.314 43.5937 186.76 43.5866C187.239 43.5795 187.256 43.9065 187.252 44.2548C187.245 44.832 187.25 45.4092 187.25 46.0233C187.551 45.9707 187.791 45.9281 188.072 45.8726L188.075 45.8755Z" fill="white"/>
<path id="Vector_11" d="M137.088 44.6642C136.22 45.9963 135.57 47.371 135.707 48.9605C135.745 49.3926 135.924 49.8419 136.145 50.2229C136.466 50.7745 137.108 50.9906 137.743 50.8328C139.159 50.4802 140.013 49.5234 140.459 48.234C140.97 46.7555 141.072 45.2613 140.266 43.8197C140.119 43.5567 140.076 43.2255 140.418 43.1317C140.62 43.0762 141.041 43.2084 141.114 43.3662C141.671 44.5732 142.684 45.3011 143.797 45.9394C144.135 46.1328 144.271 46.4157 144.097 46.754C143.904 47.1308 143.554 47.1038 143.248 46.9047C142.727 46.5664 142.23 46.1925 141.758 45.857C141.665 46.5579 141.634 47.3298 141.449 48.0634C141.113 49.3997 140.447 50.5783 139.229 51.3403C138.757 51.636 138.177 51.8606 137.625 51.9232C136.132 52.0938 135.062 51.2124 134.805 49.7367C134.531 48.1601 134.978 46.727 135.708 45.3523C135.965 44.8675 136.271 44.4083 136.582 43.8922C136.164 43.9235 135.78 43.9591 135.395 43.979C135.031 43.9974 134.684 43.9008 134.667 43.497C134.648 43.0762 134.992 43.0108 135.359 42.9938C136.223 42.9539 137.072 42.8431 137.851 42.4294C138.142 42.2758 138.466 42.2602 138.645 42.5587C138.823 42.8544 138.632 43.0591 138.377 43.2838C137.915 43.6918 137.528 44.178 137.091 44.6628L137.088 44.6642Z" fill="white"/>
<path id="Vector_12" d="M167.782 48.6179C167.645 50.5286 165.521 51.7569 163.299 50.6864C163.047 50.5656 162.854 50.3637 163.027 50.0609C163.19 49.7765 163.426 49.7893 163.707 49.9258C163.987 50.0609 164.286 50.1718 164.587 50.2471C165.578 50.4945 166.512 49.9557 166.787 48.9989C166.949 48.4373 166.758 47.9639 166.225 47.691C165.276 47.2076 164.28 47.2758 163.329 47.6128C161.866 48.1303 162.153 47.8729 162.227 49.2093C162.245 49.532 162.256 49.8562 162.251 50.1789C162.236 51.0745 161.681 51.5892 160.779 51.4427C160.304 51.366 159.819 51.174 159.414 50.9181C158.827 50.5485 158.709 49.9656 159.165 49.4581C159.693 48.8709 160.332 48.3734 160.959 47.8786C161.186 47.6995 161.329 47.5573 161.313 47.2574C161.288 46.811 161.307 46.3617 161.307 45.9821C160.725 45.9821 160.216 46.002 159.707 45.975C159.385 45.958 159.031 45.8727 159.095 45.4462C159.158 45.0282 159.468 45.0765 159.818 45.1121C160.221 45.1519 160.642 45.1007 161.044 45.0325C161.151 45.014 161.283 44.795 161.295 44.66C161.327 44.242 161.301 43.8198 161.31 43.399C161.318 43.0379 161.457 42.7208 161.876 42.7535C162.296 42.7862 162.367 43.0819 162.302 43.4672C162.246 43.797 162.29 44.1425 162.29 44.5519C162.527 44.4155 162.75 44.2989 162.96 44.1624C163.212 43.9989 163.464 43.9378 163.655 44.2107C163.854 44.4965 163.72 44.751 163.45 44.9074C163.138 45.0879 162.788 45.2073 162.481 45.3936C162.342 45.4774 162.195 45.6537 162.181 45.8002C162.14 46.2167 162.166 46.6389 162.166 47.0768C162.86 46.9019 163.518 46.7015 164.19 46.575C165.061 46.4115 165.907 46.575 166.707 46.9318C167.418 47.2488 167.805 47.7933 167.78 48.6165M161.167 48.6676C160.889 48.8638 160.574 49.0259 160.341 49.2633C160.118 49.4922 159.978 49.7979 159.802 50.0708C160.098 50.2229 160.383 50.4021 160.693 50.5201C161.084 50.6679 161.311 50.4717 161.314 50.0907C161.317 49.6273 161.264 49.1638 161.167 48.6662V48.6676Z" fill="white"/>
<path id="Vector_13" d="M178.543 42.4095C179.013 42.283 179.437 42.1237 179.876 42.0669C180.088 42.0384 180.444 42.1408 180.53 42.2929C180.703 42.6028 180.431 42.8005 180.133 42.8758C179.447 43.0478 178.754 43.1999 178.033 43.3677V46.302C178.913 46.302 179.769 46.302 180.626 46.302C180.774 46.302 180.952 46.2522 181.067 46.3134C181.254 46.4129 181.401 46.5849 181.564 46.7271C181.401 46.8536 181.243 47.0825 181.076 47.0896C180.248 47.128 179.42 47.1067 178.591 47.1067C178.414 47.1067 178.237 47.1067 178.031 47.1067V50.8783C178.857 50.8783 179.664 50.884 180.471 50.8755C180.79 50.8726 181.124 50.8869 181.137 51.2735C181.152 51.6972 180.801 51.7171 180.464 51.7171C178.592 51.7143 176.719 51.7157 174.847 51.7171C174.781 51.7171 174.714 51.7171 174.649 51.7171C174.34 51.7143 174.081 51.5721 174.142 51.2721C174.174 51.1143 174.468 50.9082 174.655 50.8982C175.444 50.857 176.238 50.8812 177.061 50.8812V47.1095C176.46 47.1095 175.852 47.1095 175.246 47.1095C174.882 47.1095 174.509 47.1522 174.157 47.0896C173.989 47.0597 173.771 46.8465 173.731 46.6802C173.664 46.3987 173.902 46.302 174.17 46.3034C174.965 46.3063 175.76 46.3034 176.556 46.3034C176.717 46.3034 176.879 46.3034 177.066 46.3034V43.4359C176.359 43.5099 175.674 43.6037 174.985 43.6378C174.771 43.6478 174.473 43.5554 174.349 43.4032C174.136 43.1431 174.423 42.8602 174.86 42.8175C176.076 42.6967 177.29 42.5545 178.546 42.4109L178.543 42.4095Z" fill="white"/>
<path id="Vector_14" d="M193.871 4.20525C195.205 6.23396 196.517 8.23424 197.823 10.2402C198.15 10.7449 198.008 11.4315 197.522 11.8097C197.035 12.1893 196.468 12.1737 196.032 11.6533C195.416 10.9169 194.828 10.1492 194.306 9.34597C193.482 8.07785 192.686 6.78983 191.949 5.47195C191.522 4.70852 191.983 3.92661 192.873 3.8541C193.186 3.82851 193.522 4.06309 193.872 4.20525H193.871Z" fill="white"/>
<path id="Vector_15" d="M153.501 47.5047C153.451 46.7555 153.405 46.0489 153.355 45.3011C153.068 45.3282 152.807 45.3609 152.547 45.3765C152.15 45.4007 151.753 45.4334 151.358 45.422C151.017 45.4106 150.612 45.4135 150.586 44.9358C150.568 44.6131 150.883 44.5278 151.441 44.5491C152.032 44.5718 152.63 44.5136 153.22 44.4538C153.307 44.4453 153.431 44.2363 153.438 44.1141C153.464 43.662 153.447 43.2085 153.451 42.7564C153.454 42.4521 153.547 42.1891 153.914 42.1906C154.286 42.1906 154.423 42.418 154.413 42.7692C154.398 43.2682 154.408 43.7686 154.408 44.3245C154.724 44.2477 154.994 44.1283 155.26 44.134C155.467 44.1382 155.67 44.2989 155.875 44.3899C155.754 44.5733 155.674 44.8405 155.501 44.9216C155.182 45.0723 154.807 45.1121 154.348 45.2258C154.432 46.5309 154.51 47.8473 154.609 49.1624C154.617 49.2534 154.764 49.3486 154.866 49.4154C155.154 49.6031 155.461 49.7652 155.743 49.9628C155.885 50.0637 156.075 50.2101 156.089 50.3523C156.114 50.5812 156.06 50.8527 155.936 51.0432C155.894 51.1101 155.514 51.0503 155.352 50.9494C155.037 50.7518 154.768 50.4859 154.44 50.2144C154.032 51.066 153.397 51.5621 152.493 51.6887C151.757 51.7924 151.113 51.582 150.586 51.0731C149.964 50.4717 150.034 49.6557 150.749 49.1553C151.538 48.6022 152.434 48.6719 153.33 48.7672C153.409 48.7757 153.486 48.7984 153.62 48.8269C153.579 48.379 153.543 47.9653 153.502 47.5061M152.509 50.8641C153.048 50.729 153.482 50.4831 153.629 49.8846C152.935 49.5164 152.249 49.5164 151.571 49.8206C151.418 49.8888 151.231 50.1007 151.238 50.2357C151.249 50.4049 151.409 50.6395 151.566 50.7091C151.825 50.8229 152.136 50.8243 152.507 50.8641H152.509Z" fill="white"/>
<path id="Vector_16" d="M91.6605 49.1694C92.9628 48.0151 94.016 46.7185 94.7545 45.1902C95.0561 44.5647 94.9891 44.4566 94.2869 44.4766C93.6416 44.495 92.9948 44.522 92.3553 44.5988C92.1412 44.6244 91.9081 44.7794 91.7552 44.94C90.9511 45.7745 90.1965 46.6545 89.372 47.4691C88.8942 47.9411 88.4426 47.9895 88.2562 47.6796C87.9371 47.1521 88.4543 46.9872 88.7514 46.7441C90.0727 45.6608 91.0909 44.3315 92.0174 42.9269C92.1048 42.7947 92.2009 42.6 92.3247 42.5729C92.5112 42.5331 92.772 42.5573 92.9103 42.6654C93.005 42.7393 92.9759 43.0066 92.9468 43.1786C92.9249 43.3094 92.8142 43.4274 92.721 43.588C93.4581 43.5525 94.1471 43.5155 94.8361 43.4857C95.3503 43.4643 95.7611 43.669 95.9505 44.1339C96.0437 44.3628 96.0889 44.6969 95.9869 44.9031C94.6176 47.6511 92.7428 49.9642 89.9212 51.4285C89.6007 51.5948 89.2686 51.7441 88.9306 51.8734C88.6291 51.9886 88.2795 52.0625 88.1163 51.6943C87.9488 51.3162 88.2401 51.1299 88.5548 51.0176C89.7056 50.6067 90.7165 49.9755 91.659 49.1666L91.6605 49.1694Z" fill="white"/>
<path id="Vector_17" d="M69.8055 50.3636C69.2883 50.6238 68.8076 50.874 68.3138 51.1001C67.9875 51.2493 67.5913 51.3702 67.4048 50.9636C67.2023 50.5243 67.6204 50.385 67.9351 50.2499C70.3095 49.232 72.0721 47.5616 73.37 45.3964C73.4764 45.2201 73.5492 45.0239 73.6876 44.731C73.1005 44.731 72.6009 44.7253 72.1012 44.731C71.2068 44.7424 70.3139 44.7595 69.4194 44.7751C69.1325 44.7808 68.8717 44.7367 68.844 44.3913C68.8164 44.0415 69.0684 43.9406 69.3539 43.9363C70.8601 43.9136 72.3678 43.8638 73.8711 43.9036C74.6898 43.9249 75.019 44.569 74.6228 45.2713C74.2091 46.0034 73.7357 46.7029 73.2928 47.408C74.1523 48.0506 75.0613 48.7131 75.9455 49.404C76.199 49.6016 76.4044 49.8675 76.5923 50.1305C76.7714 50.3807 76.7729 50.6679 76.499 50.8626C76.2266 51.0574 75.9805 51.0048 75.7095 50.7674C74.8632 50.0224 73.9877 49.3059 73.1151 48.5894C72.9301 48.4373 72.7072 48.3292 72.5951 48.2582C71.6322 48.9846 70.7319 49.6628 69.8011 50.3608L69.8055 50.3636Z" fill="white"/>
<path id="Vector_18" d="M127.941 43.5511C128.224 42.88 128.524 42.2161 128.78 41.5366C128.907 41.2011 129.073 40.9764 129.461 41.0802C129.839 41.1812 129.858 41.4612 129.756 41.7783C129.653 42.0995 129.56 42.4237 129.439 42.8189C130.115 42.8189 130.766 42.809 131.417 42.826C131.585 42.8303 131.791 42.8815 131.902 42.9881C131.992 43.0748 132.036 43.3222 131.972 43.4174C131.892 43.5397 131.685 43.6392 131.529 43.6463C130.933 43.6719 130.332 43.6989 129.74 43.6463C129.146 43.5923 128.847 43.8212 128.747 44.4552C129.368 44.4552 129.984 44.451 130.601 44.4581C130.781 44.4595 130.974 44.4609 131.137 44.5221C131.566 44.6827 131.669 45.1362 131.347 45.5201C131.066 45.8556 130.737 46.1527 130.444 46.4541C130.598 47.0085 130.917 47.2843 131.526 47.182C131.826 47.1322 132.176 47.1592 132.195 47.563C132.215 47.9952 131.86 48.0136 131.534 48.0279C131.388 48.0336 131.242 48.0435 131.098 48.0506C131.037 48.5439 131.025 49.0173 130.913 49.4666C130.639 50.5698 129.458 51.083 128.403 50.5897C128.137 50.4646 127.927 50.2627 128.096 49.9869C128.176 49.8561 128.51 49.741 128.651 49.7993C129.522 50.1561 130.1 49.6741 130.154 48.7216C130.167 48.4828 130.156 48.244 130.156 47.9312C129.532 47.9312 128.941 47.9269 128.351 47.9326C128.048 47.9355 127.803 47.8445 127.796 47.5175C127.788 47.2317 127.969 47.0853 128.278 47.0896C128.808 47.0981 129.338 47.0924 129.94 46.9943C129.761 46.8635 129.564 46.7512 129.41 46.5977C129.266 46.4541 129.168 46.2664 129.05 46.0987C129.22 46.0048 129.388 45.9068 129.561 45.8172C129.888 45.6494 130.217 45.4859 130.543 45.321C130.523 45.2642 130.501 45.2087 130.48 45.1519C130.016 45.1519 129.553 45.1575 129.088 45.1504C128.639 45.1433 128.185 45.159 127.748 45.0822C127.608 45.058 127.41 44.7652 127.426 44.613C127.449 44.3742 127.63 44.1496 127.762 43.8837C127.781 43.8496 127.777 43.8525 127.79 43.8539C127.82 43.8411 127.828 43.824 127.828 43.8041C127.828 43.8041 127.839 43.7913 127.867 43.7714C127.911 43.6847 127.925 43.6179 127.941 43.5511Z" fill="white"/>
<path id="Vector_19" d="M113.623 49.0472C114.727 48.0322 115.556 46.8778 116.019 45.4931C116.258 44.7808 116.176 44.6415 115.426 44.6401C113.703 44.6373 111.98 44.6614 110.256 44.6842C109.888 44.6884 109.63 44.5918 109.636 44.1809C109.64 43.8582 109.85 43.7118 110.149 43.7061C112.136 43.6719 114.124 43.6151 116.111 43.6307C117.056 43.6378 117.508 44.2975 117.201 45.2116C116.296 47.9071 114.651 50.014 111.972 51.2565C111.645 51.4086 111.307 51.5451 110.964 51.6659C110.647 51.7782 110.351 51.7299 110.239 51.3773C110.131 51.0404 110.306 50.8115 110.64 50.7092C111.748 50.3722 112.73 49.822 113.623 49.0458V49.0472Z" fill="white"/>
<path id="Vector_20" d="M58.1602 51.0348C57.8324 50.8997 57.6693 50.658 57.8324 50.4078C57.9286 50.26 58.252 50.1562 58.4501 50.1846C59.8223 50.3879 59.8208 50.4007 59.8208 49.0587C59.8208 47.9455 59.8208 46.8324 59.8208 45.7078C59.0226 45.7078 58.268 45.705 57.5134 45.7078C57.2323 45.7092 56.9511 45.7192 56.67 45.7377C56.3553 45.7576 56.0669 45.6893 56.0523 45.341C56.0363 44.9813 56.3539 44.906 56.6452 44.8975C57.4887 44.869 58.3335 44.8591 59.1784 44.8434C59.3722 44.8392 59.5674 44.8434 59.8223 44.8434C59.8223 44.2776 59.8179 43.7658 59.8238 43.2526C59.8281 42.9398 59.8325 42.5716 60.2739 42.5873C60.6803 42.6015 60.7968 42.9114 60.7881 43.281C60.775 43.7957 60.7852 44.3103 60.7852 44.8932C61.6942 44.8932 62.5653 44.8932 63.4349 44.8932C63.633 44.8932 63.8559 44.8548 64.0234 44.9287C64.2012 45.0084 64.3264 45.2017 64.475 45.3439C64.3148 45.4747 64.1575 45.7121 63.9929 45.7192C63.333 45.7434 62.6716 45.7007 62.0103 45.6723C61.5864 45.6538 61.1639 45.6154 60.6861 45.5813C60.6861 46.5381 60.6861 47.4223 60.6861 48.308C60.6861 48.6961 60.6861 49.0843 60.6861 49.4724C60.6861 50.685 60.1326 51.2054 58.8842 51.1528C58.654 51.1428 58.4268 51.0845 58.1631 51.0319L58.1602 51.0348Z" fill="white"/>
<path id="Vector_21" d="M81.4434 43.035V45.5756C82.1208 45.7618 82.7909 45.9253 83.4449 46.1328C83.8994 46.2764 84.3422 46.4655 84.7763 46.6603C85.1012 46.8053 85.3692 47.0356 85.1376 47.418C84.9293 47.7635 84.6161 47.7109 84.2694 47.5659C83.5105 47.2488 82.7369 46.9659 81.9664 46.6773C81.8309 46.6262 81.6808 46.6148 81.4696 46.5707C81.458 46.7797 81.4419 46.9475 81.4419 47.1152C81.4405 48.426 81.4419 49.7367 81.439 51.0461C81.439 51.2067 81.4317 51.3702 81.4055 51.528C81.3516 51.8692 81.1302 52.0541 80.7864 52.0256C80.4266 51.9972 80.2941 51.7569 80.3043 51.4129C80.3348 50.3139 80.3654 49.215 80.3742 48.1161C80.3887 46.2878 80.3887 44.4595 80.3887 42.6313C80.3887 42.2986 80.4805 42.0456 80.8622 42.0171C81.2773 41.9859 81.4055 42.2531 81.4332 42.5958C81.4434 42.7251 81.4376 42.8545 81.4405 43.0294L81.4434 43.035Z" fill="white"/>
<path id="Vector_22" d="M104.693 47.9952C104.966 47.5332 105.253 47.1138 105.454 46.6574C105.71 46.0803 105.592 45.9153 104.957 45.921C103.251 45.9367 101.547 45.9736 99.841 46.0021C99.7915 46.0021 99.7419 46.0134 99.6924 46.0106C99.3792 45.9964 98.999 46.0291 98.9961 45.5898C98.9946 45.1633 99.3515 45.1547 99.6807 45.1491C101.468 45.122 103.257 45.0894 105.044 45.0709C105.307 45.068 105.577 45.0965 105.828 45.1661C106.43 45.331 106.776 45.8158 106.542 46.3916C106.217 47.1906 105.837 48.0038 105.304 48.679C104.137 50.1561 102.54 51.0589 100.711 51.5778C100.412 51.6617 100.115 51.6887 100.001 51.3589C99.8745 50.9935 100.109 50.7845 100.46 50.6921C102.16 50.2471 103.585 49.3913 104.69 47.9938L104.693 47.9952Z" fill="white"/>
<path id="Vector_23" d="M173.996 42.5104C172.761 43.9548 172.946 45.6637 172.912 47.3256C172.883 48.7942 172.841 50.2627 172.821 51.7327C172.816 52.091 172.729 52.3582 172.311 52.3398C171.893 52.3213 171.893 52.0057 171.9 51.7C171.942 49.876 171.982 48.052 172.021 46.2281C172.025 46.0503 172.021 45.8741 172.021 45.5712C171.765 45.8684 171.581 46.0958 171.381 46.3091C171.172 46.5351 170.978 46.8052 170.717 46.9503C170.532 47.0526 170.247 46.9787 170.005 46.983C170.05 46.7555 170.022 46.474 170.151 46.3091C170.794 45.4916 171.526 44.7382 172.132 43.8965C172.564 43.2952 172.856 42.5957 173.191 41.9304C173.336 41.6432 173.393 41.265 173.859 41.4029C174.218 41.5096 174.293 41.8806 174.079 42.3469C174.059 42.391 174.033 42.4322 173.995 42.509L173.996 42.5104Z" fill="white"/>
<path id="Vector_24" d="M147.078 45.2769C147.205 44.4694 147.336 43.706 147.434 42.9383C147.475 42.6184 147.574 42.3938 147.944 42.4379C148.29 42.4791 148.416 42.7137 148.365 43.0293C148.21 43.9861 148.018 44.9386 147.893 45.8982C147.773 46.8095 147.718 47.7293 147.644 48.6463C147.632 48.797 147.665 48.9519 147.775 49.1282C147.938 48.8254 148.092 48.5169 148.267 48.2198C148.407 47.9852 148.579 47.7833 148.905 47.961C149.209 48.1274 149.097 48.3364 149.01 48.5809C148.7 49.4424 148.432 50.3182 148.11 51.1754C148.041 51.3588 147.827 51.5891 147.658 51.6076C147.499 51.6261 147.192 51.4199 147.156 51.265C146.991 50.5783 146.794 49.8746 146.803 49.178C146.82 47.89 146.973 46.6034 147.078 45.2755V45.2769Z" fill="white"/>
<path id="Vector_25" d="M102.271 43.5853C101.676 43.5853 101.131 43.5853 100.585 43.5853C100.279 43.5853 99.9829 43.5056 99.9844 43.1559C99.9844 42.8048 100.28 42.7351 100.587 42.7351C102.059 42.7351 103.53 42.7365 105.003 42.7351C105.31 42.7351 105.607 42.7962 105.603 43.1531C105.599 43.4943 105.312 43.5853 105.001 43.5867C104.108 43.5867 103.215 43.5867 102.273 43.5867L102.271 43.5853Z" fill="white"/>
<path id="Vector_26" d="M57.9316 48.4886C57.5295 48.9392 57.1595 49.37 56.7633 49.7794C56.6206 49.9273 56.4254 50.1007 56.2389 50.1192C56.0393 50.1391 55.7757 50.0339 55.6329 49.8932C55.5644 49.8249 55.6562 49.505 55.7684 49.3771C56.3656 48.699 57.008 48.0592 57.6024 47.3782C57.8151 47.1351 58.0044 47.0043 58.3118 47.1664C58.6498 47.3441 58.5361 47.5858 58.389 47.8175C58.2506 48.0365 58.0977 48.2469 57.9301 48.4886H57.9316Z" fill="white"/>
<path id="Vector_27" d="M64.7391 48.7757C64.8586 48.9705 65.0334 49.1368 65.0319 49.3031C65.0319 49.4951 64.9227 49.7723 64.7726 49.8505C64.6503 49.9159 64.308 49.8021 64.2147 49.6671C63.7063 48.925 63.0319 48.3705 62.2802 47.8886C62.0428 47.7365 61.7631 47.5886 61.967 47.2446C62.1724 46.8991 62.4812 46.9674 62.7318 47.1593C63.4048 47.6725 64.0559 48.2156 64.7377 48.7743L64.7391 48.7757Z" fill="white"/>
<path id="Vector_28" d="M168.408 45.3964C168.153 45.631 167.923 45.6338 167.68 45.4319C167.161 45.0026 166.546 44.849 165.882 44.8633C165.572 44.8704 165.286 44.8263 165.278 44.4595C165.269 44.087 165.594 43.9832 165.867 44.033C166.622 44.1695 167.378 44.3287 168.108 44.5562C168.444 44.6614 168.688 44.9585 168.408 45.395V45.3964Z" fill="white"/>
<path id="Vector_29" d="M123.27 44.2178C123.047 44.1709 122.807 44.1496 122.671 44.023C122.236 43.615 121.826 43.1757 121.432 42.7279C121.324 42.6057 121.303 42.4109 121.242 42.2502C121.446 42.1877 121.753 42.0086 121.835 42.0796C122.409 42.573 122.951 43.1061 123.461 43.6634C123.528 43.7359 123.359 44.0145 123.27 44.2192V44.2178Z" fill="white"/>
<path id="Vector_30" d="M116.609 42.9938C116.332 42.873 116.083 42.7138 116.286 42.4465C116.394 42.3029 116.748 42.1735 116.884 42.2418C117.387 42.4934 117.878 42.7934 118.303 43.1545C118.434 43.2668 118.448 43.7103 118.328 43.861C118.107 44.1397 117.855 43.9264 117.626 43.7288C117.32 43.4658 116.972 43.2483 116.611 42.9953L116.609 42.9938Z" fill="white"/>
<path id="Vector_31" d="M143.936 43.0478C143.516 42.7336 143.105 42.4607 142.735 42.1451C142.592 42.0228 142.537 41.8039 142.442 41.6276C142.633 41.5508 142.891 41.3589 143.006 41.42C143.535 41.7001 144.046 42.0271 144.514 42.3953C144.63 42.4877 144.645 42.8474 144.555 42.9967C144.493 43.099 144.169 43.0521 143.937 43.0478H143.936Z" fill="white"/>
<path id="Vector_32" d="M119.324 42.9753C119.209 42.9966 119.102 43.035 119.05 42.9995C118.487 42.6171 117.924 42.2346 117.386 41.8195C117.312 41.7626 117.324 41.4925 117.398 41.3916C117.472 41.2907 117.726 41.194 117.81 41.2423C118.368 41.5693 118.923 41.9077 119.431 42.3015C119.654 42.4735 119.644 42.7663 119.325 42.9753H119.324Z" fill="white"/>
<path id="Vector_33" d="M143.542 43.3719C143.484 43.5852 143.458 43.861 143.331 43.9136C143.192 43.9719 142.94 43.8596 142.78 43.7586C142.407 43.524 142.045 43.2696 141.708 42.9881C141.578 42.88 141.532 42.6753 141.447 42.5147C141.638 42.4393 141.9 42.2474 142.008 42.3099C142.537 42.6142 143.025 42.9881 143.541 43.3719H143.542Z" fill="white"/>
<path id="Vector_34" d="M127.92 43.5283C127.926 43.6179 127.909 43.6847 127.871 43.7657C127.846 43.7003 127.846 43.6221 127.849 43.5027C127.868 43.4771 127.884 43.4913 127.92 43.5283Z" fill="white"/>
<path id="Vector_35" d="M123.603 49.9369C123.599 49.928 123.618 49.9191 123.652 49.9102C123.662 49.9087 123.626 49.9339 123.603 49.9369Z" fill="white"/>
<path id="Vector_36" d="M127.813 43.8085C127.828 43.8277 127.819 43.8455 127.787 43.8588C127.767 43.8366 127.775 43.8203 127.813 43.8085Z" fill="white"/>
<path id="Vector_37" d="M20.398 53.035C18.8714 53.8965 17.2078 53.6833 16.1167 52.5104C15.0737 51.3873 14.9455 49.7026 15.8414 48.4857C16.6368 47.4052 17.7439 46.929 19.084 47.1365C20.4461 47.3469 21.3784 48.1431 21.7513 49.4396C22.1359 50.7731 21.7353 51.9233 20.666 52.8431C20.5917 52.907 20.5073 52.9596 20.3965 53.035H20.398Z" fill="white"/>
</g>
<defs>
<clipPath id="clip0_5774_48005">
<rect width="198" height="57" fill="white"/>
</clipPath>
</defs>
</svg>
