<svg width="16" height="16" viewBox="0 0 16 16" fill="none" xmlns="http://www.w3.org/2000/svg">
<rect width="16" height="16" rx="2" fill="#697DBF"/>
<g clip-path="url(#clip0_8426_49877)">
<path d="M12.2661 7.72791C11.8767 7.91263 11.4423 8.00749 10.988 8.00749C9.3305 8.00749 7.99251 6.6695 7.99251 5.01198C7.99251 4.55766 8.10235 4.13829 8.28707 3.74888L8.63155 3L7.8028 3.02996C5.13679 3.12481 3 5.31652 3 8.00749C3 10.6985 5.24164 13 7.99251 13C10.7434 13 12.8752 10.8632 12.97 8.1972L13 7.38842L12.2661 7.7329V7.72791ZM7.99251 12.0015C5.78083 12.0015 3.9985 10.2192 3.9985 8.00749C3.9985 6.08537 5.37644 4.56765 7.18372 4.18323C7.12381 4.45781 6.99401 4.71243 6.99401 5.01198C6.99401 7.21368 8.78632 9.00599 10.988 9.00599C11.2926 9.00599 11.5472 8.88118 11.8318 8.81628C11.4523 10.6236 9.91962 12.0015 7.99251 12.0015Z" fill="#FFF8E7"/>
</g>
<defs>
<clipPath id="clip0_8426_49877">
<rect width="10" height="10" fill="white" transform="translate(3 3)"/>
</clipPath>
</defs>
</svg>
