<svg width="11" height="11" viewBox="0 0 11 11" fill="none" xmlns="http://www.w3.org/2000/svg">
<path id="Vector" d="M5.5 0C2.46712 0 0 2.46712 0 5.5C0 8.53288 2.46712 11 5.5 11C8.53288 11 11 8.53288 11 5.5C11 2.46712 8.53288 0 5.5 0ZM5.5 0.916667C8.03695 0.916667 10.0833 2.96305 10.0833 5.5C10.0833 8.03695 8.03695 10.0833 5.5 10.0833C2.96305 10.0833 0.916667 8.03695 0.916667 5.5C0.916667 2.96305 2.96305 0.916667 5.5 0.916667ZM2.97917 3.20833C2.59961 3.20833 2.29167 3.51628 2.29167 3.89583C2.29167 3.9388 2.29525 3.97998 2.30599 4.02474C2.32568 4.13395 2.37044 4.22705 2.4349 4.3112C2.77865 4.90381 3.66667 5.5 3.66667 5.5C3.66667 5.5 5.04167 4.6263 5.04167 3.89583C5.04167 3.51628 4.73372 3.20833 4.35417 3.20833C3.97461 3.20833 3.66667 3.51628 3.66667 3.89583C3.66667 3.51628 3.35872 3.20833 2.97917 3.20833ZM6.64583 3.20833C6.26628 3.20833 5.95833 3.51628 5.95833 3.89583C5.95833 3.9388 5.96191 3.97998 5.97266 4.02474C5.99235 4.13395 6.03711 4.22705 6.10156 4.3112C6.44531 4.90381 7.33333 5.5 7.33333 5.5C7.33333 5.5 8.24463 4.90918 8.57943 4.29688C8.65283 4.16081 8.70833 4.02832 8.70833 3.89583C8.70833 3.51628 8.40039 3.20833 8.02083 3.20833C7.64128 3.20833 7.33333 3.51628 7.33333 3.89583C7.33333 3.51628 7.02539 3.20833 6.64583 3.20833ZM3.1224 6.875L2.33464 7.33333C2.96842 8.42725 4.14648 9.16667 5.5 9.16667C6.85352 9.16667 8.03158 8.42725 8.66537 7.33333L7.8776 6.875C7.40137 7.69678 6.52051 8.25 5.5 8.25C4.47949 8.25 3.59863 7.69678 3.1224 6.875Z" fill="#D17979"/>
</svg>
