<svg width="17" height="17" viewBox="0 0 17 17" fill="none" xmlns="http://www.w3.org/2000/svg">
<path d="M8.51953 2C8.12235 2.0021 7.74204 2.16081 7.46119 2.44166C7.18034 2.72251 7.02163 3.10282 7.01953 3.5C7.01953 4.06267 7.3362 4.55667 7.80086 4.81267L6.3322 7.75L4.03486 6.11C4.18818 5.96868 4.31044 5.79703 4.39387 5.60595C4.47731 5.41486 4.5201 5.20851 4.51953 5C4.51743 4.60282 4.35872 4.22251 4.07787 3.94166C3.79702 3.66081 3.41671 3.5021 3.01953 3.5C2.62235 3.5021 2.24204 3.66081 1.96119 3.94166C1.68034 4.22251 1.52163 4.60282 1.51953 5C1.51953 5.67333 1.9822 6.23467 2.59753 6.422L3.51953 11.5V14H13.5195V11.5L14.4415 6.422C15.0569 6.23467 15.5195 5.67333 15.5195 5C15.5174 4.60282 15.3587 4.22251 15.0779 3.94166C14.797 3.66081 14.4167 3.5021 14.0195 3.5C13.6224 3.5021 13.242 3.66081 12.9612 3.94166C12.6803 4.22251 12.5216 4.60282 12.5195 5C12.5195 5.43533 12.7029 5.834 13.0042 6.10933L10.7069 7.75L9.2382 4.81267C9.47394 4.68375 9.67078 4.49396 9.8082 4.26308C9.94563 4.0322 10.0186 3.76868 10.0195 3.5C10.0174 3.10282 9.85872 2.72251 9.57787 2.44166C9.29702 2.16081 8.91671 2.0021 8.51953 2ZM8.51953 3C8.58544 2.9991 8.65086 3.01142 8.71193 3.03623C8.773 3.06104 8.82847 3.09784 8.87508 3.14445C8.92169 3.19106 8.95849 3.24653 8.9833 3.3076C9.00811 3.36867 9.02043 3.43409 9.01953 3.5C9.02043 3.56591 9.00811 3.63133 8.9833 3.6924C8.95849 3.75347 8.92169 3.80894 8.87508 3.85555C8.82847 3.90216 8.773 3.93896 8.71193 3.96377C8.65086 3.98858 8.58544 4.0009 8.51953 4C8.45362 4.0009 8.3882 3.98858 8.32713 3.96377C8.26607 3.93896 8.21059 3.90216 8.16398 3.85555C8.11737 3.80894 8.08057 3.75347 8.05576 3.6924C8.03095 3.63133 8.01863 3.56591 8.01953 3.5C8.01863 3.43409 8.03095 3.36867 8.05576 3.3076C8.08057 3.24653 8.11737 3.19106 8.16398 3.14445C8.21059 3.09784 8.26607 3.06104 8.32713 3.03623C8.3882 3.01142 8.45362 2.9991 8.51953 3ZM3.01953 4.5C3.08544 4.4991 3.15086 4.51142 3.21193 4.53623C3.273 4.56104 3.32847 4.59784 3.37508 4.64445C3.42169 4.69106 3.45849 4.74653 3.4833 4.8076C3.50811 4.86867 3.52043 4.93409 3.51953 5C3.52043 5.06591 3.50811 5.13133 3.4833 5.1924C3.45849 5.25347 3.42169 5.30894 3.37508 5.35555C3.32847 5.40216 3.273 5.43896 3.21193 5.46377C3.15086 5.48858 3.08544 5.5009 3.01953 5.5C2.95362 5.5009 2.8882 5.48858 2.82713 5.46377C2.76607 5.43896 2.71059 5.40216 2.66398 5.35555C2.61737 5.30894 2.58057 5.25347 2.55576 5.1924C2.53095 5.13133 2.51863 5.06591 2.51953 5C2.51863 4.93409 2.53095 4.86867 2.55576 4.8076C2.58057 4.74653 2.61737 4.69106 2.66398 4.64445C2.71059 4.59784 2.76607 4.56104 2.82713 4.53623C2.8882 4.51142 2.95362 4.4991 3.01953 4.5ZM14.0195 4.5C14.0854 4.4991 14.1509 4.51142 14.2119 4.53623C14.273 4.56104 14.3285 4.59784 14.3751 4.64445C14.4217 4.69106 14.4585 4.74653 14.4833 4.8076C14.5081 4.86867 14.5204 4.93409 14.5195 5C14.5204 5.06591 14.5081 5.13133 14.4833 5.1924C14.4585 5.25347 14.4217 5.30894 14.3751 5.35555C14.3285 5.40216 14.273 5.43896 14.2119 5.46377C14.1509 5.48858 14.0854 5.5009 14.0195 5.5C13.9536 5.5009 13.8882 5.48858 13.8271 5.46377C13.7661 5.43896 13.7106 5.40216 13.664 5.35555C13.6174 5.30894 13.5806 5.25347 13.5558 5.1924C13.531 5.13133 13.5186 5.06591 13.5195 5C13.5186 4.93409 13.531 4.86867 13.5558 4.8076C13.5806 4.74653 13.6174 4.69106 13.664 4.64445C13.7106 4.59784 13.7661 4.56104 13.8271 4.53623C13.8882 4.51142 13.9536 4.4991 14.0195 4.5ZM8.51953 5.62533L10.0662 8.71867L10.8162 8.906L13.3162 7.12533L12.6135 11H4.42553L3.72286 7.12467L6.22287 8.906L6.97287 8.71933L8.51953 5.624V5.62533ZM4.51953 12H12.5195V13H4.51953V12Z" fill="#FAFAFA"/>
</svg>
