<svg width="16" height="16" viewBox="0 0 16 16" fill="none" xmlns="http://www.w3.org/2000/svg">
<rect width="16" height="16" rx="2" fill="#F89336"/>
<path d="M5.14182 4.35068L4.16 3.36986L3.39091 4.14247L4.36727 5.12329L5.14182 4.35068ZM2 7.45205H3.63636V8.54794H2V7.45205ZM7.45455 2H8.54545V3.61644H7.45455V2ZM11.84 3.36712L12.608 4.13808L11.6316 5.1189L10.8642 4.3474L11.84 3.36712ZM10.8582 11.6493L11.8345 12.6356L12.6036 11.863L11.6218 10.8822L10.8582 11.6493ZM12.3636 7.45205H14V8.54794H12.3636V7.45205ZM8 4.71233C6.19455 4.71233 4.72727 6.1863 4.72727 8C4.72727 9.8137 6.19455 11.2877 8 11.2877C9.80545 11.2877 11.2727 9.8137 11.2727 8C11.2727 6.1863 9.80545 4.71233 8 4.71233ZM8 10.1918C6.79455 10.1918 5.81818 9.21096 5.81818 8C5.81818 6.78904 6.79455 5.80822 8 5.80822C9.20545 5.80822 10.1818 6.78904 10.1818 8C10.1818 9.21096 9.20545 10.1918 8 10.1918ZM7.45455 12.3836H8.54545V14H7.45455V12.3836ZM3.39091 11.8575L4.16 12.6301L5.13636 11.6438L4.36727 10.8712L3.39091 11.8575Z" fill="white"/>
</svg>
