<svg width="14" height="16" viewBox="0 0 14 16" fill="none" xmlns="http://www.w3.org/2000/svg">
<path id="Vector" d="M4.77825 8.16396C3.2002 8.26159 1.93407 9.5468 1.93407 11.139C1.93407 12.7955 3.30366 14.12 4.97144 14.12C6.60456 14.12 8.11107 12.8592 8.11107 11.17L8.11108 11.1675L8.11109 11.1604L8.11114 11.1341L8.11135 11.0366L8.11213 10.6753L8.11491 9.40258L8.12335 5.56548L8.13178 1.73868L8.13452 0.5H9.54926C9.94637 2.42836 11.5213 3.92728 13.5 4.25513V5.99181C12.1827 5.95989 11.0329 5.28661 10.3577 4.28291L9.44287 2.92298V4.562V11.139C9.44287 13.5372 7.45109 15.4999 4.97162 15.5L4.77825 8.16396ZM4.77825 8.16396V6.78099C2.38924 6.87978 0.5 8.80235 0.5 11.138C0.5 13.5352 2.49186 15.499 4.97144 15.5L4.77825 8.16396Z" stroke="white"/>
</svg>
