<svg width="48" height="48" viewBox="0 0 48 48" fill="none" xmlns="http://www.w3.org/2000/svg">
<mask id="path-1-inside-1_15_16" fill="white">
<path d="M42 24C42 33.9411 33.9411 42 24 42C14.0589 42 6 33.9411 6 24C6 14.0589 14.0589 6 24 6C33.9411 6 42 14.0589 42 24Z"/>
</mask>
<path d="M42 24C42 33.9411 33.9411 42 24 42C14.0589 42 6 33.9411 6 24C6 14.0589 14.0589 6 24 6C33.9411 6 42 14.0589 42 24Z" fill="white"/>
<path d="M41 24C41 33.3888 33.3888 41 24 41V43C34.4934 43 43 34.4934 43 24H41ZM24 41C14.6112 41 7 33.3888 7 24H5C5 34.4934 13.5066 43 24 43V41ZM7 24C7 14.6112 14.6112 7 24 7V5C13.5066 5 5 13.5066 5 24H7ZM24 7C33.3888 7 41 14.6112 41 24H43C43 13.5066 34.4934 5 24 5V7Z" fill="#F2F2F2" mask="url(#path-1-inside-1_15_16)"/>
<path d="M24 17.8125C21.8313 17.8125 20.0625 19.5813 20.0625 21.75C20.0625 23.1057 20.7546 24.3098 21.8027 25.0195C19.7966 25.8809 18.375 27.8716 18.375 30.1875H19.5C19.5 27.6958 21.5083 25.6875 24 25.6875C26.4917 25.6875 28.5 27.6958 28.5 30.1875H29.625C29.625 27.8716 28.2034 25.8809 26.1973 25.0195C27.2454 24.3098 27.9375 23.1057 27.9375 21.75C27.9375 19.5813 26.1687 17.8125 24 17.8125ZM24 18.9375C25.5601 18.9375 26.8125 20.1899 26.8125 21.75C26.8125 23.3101 25.5601 24.5625 24 24.5625C22.4399 24.5625 21.1875 23.3101 21.1875 21.75C21.1875 20.1899 22.4399 18.9375 24 18.9375Z" fill="#C8C8C8"/>
<g clip-path="url(#clip0_15_16)">
<rect x="30" y="30" width="12" height="12" rx="6" fill="white"/>
<path d="M36.0013 30.668C33.0603 30.668 30.668 33.0603 30.668 36.0013C30.668 38.9423 33.0603 41.3346 36.0013 41.3346C38.9423 41.3346 41.3346 38.9423 41.3346 36.0013C41.3346 33.0603 38.9423 30.668 36.0013 30.668ZM36.0013 31.5569C38.4614 31.5569 40.4457 33.5412 40.4457 36.0013C40.4457 38.4614 38.4614 40.4457 36.0013 40.4457C33.5412 40.4457 31.5569 38.4614 31.5569 36.0013C31.5569 33.5412 33.5412 31.5569 36.0013 31.5569ZM35.5569 32.4457V36.4457H38.668V35.5569H36.4457V32.4457H35.5569Z" fill="url(#paint0_linear_15_16)"/>
</g>
<rect x="30.5" y="30.5" width="11" height="11" rx="5.5" stroke="white"/>
<defs>
<linearGradient id="paint0_linear_15_16" x1="31.7346" y1="31.7346" x2="42.0845" y2="32.8214" gradientUnits="userSpaceOnUse">
<stop stop-color="#99AEFB"/>
<stop offset="0.578125" stop-color="#F04AA4"/>
<stop offset="1" stop-color="#E7B282"/>
</linearGradient>
<clipPath id="clip0_15_16">
<rect x="30" y="30" width="12" height="12" rx="6" fill="white"/>
</clipPath>
</defs>
</svg>
