<svg width="9" height="8" viewBox="0 0 9 8" fill="none" xmlns="http://www.w3.org/2000/svg">
<g clip-path="url(#clip0_5902_116718)">
<path d="M4.22211 4.81915C3.80667 4.5922 3.46421 4.44326 3.19474 4.37234C2.92526 4.28723 2.66702 4.24468 2.42 4.24468C2.10561 4.24468 1.77439 4.36525 1.42632 4.60638C1.07825 4.84752 0.769474 5.14539 0.5 5.5V3.62766C0.769474 3.25887 1.07263 2.98227 1.40947 2.79787C1.75754 2.59929 2.13368 2.5 2.53789 2.5C2.86351 2.5 3.18912 2.54255 3.51474 2.62766C3.84035 2.71277 4.2614 2.89716 4.77789 3.18085C5.19333 3.4078 5.53579 3.56383 5.80526 3.64894C6.07474 3.71986 6.32737 3.75532 6.56316 3.75532C6.88877 3.75532 7.22561 3.63475 7.57368 3.39362C7.92175 3.15248 8.23053 2.85461 8.5 2.5V4.35106C8.23053 4.71986 7.92175 5.00355 7.57368 5.20213C7.23684 5.40071 6.86632 5.5 6.46211 5.5C6.13649 5.5 5.80526 5.45745 5.46842 5.37234C5.14281 5.27305 4.72737 5.08865 4.22211 4.81915Z" fill="#333333"/>
</g>
<defs>
<clipPath id="clip0_5902_116718">
<rect width="8" height="8" fill="white" transform="translate(0.5)"/>
</clipPath>
</defs>
</svg>
