<svg width="17" height="16" viewBox="0 0 17 16" fill="none" xmlns="http://www.w3.org/2000/svg">
<path d="M1.83325 10.3336C2.27556 9.89206 2.87489 9.64331 3.49988 9.64331C4.12486 9.64331 4.72497 9.89206 5.1665 10.3336C5.60881 10.7759 6.20814 11.0239 6.83313 11.0239C7.45811 11.0239 8.05822 10.7759 8.49975 10.3336C8.94206 9.89206 9.54139 9.64331 10.1664 9.64331C10.7914 9.64331 11.3915 9.89206 11.833 10.3336C12.2753 10.7759 12.8746 11.0239 13.4996 11.0239C14.1246 11.0239 14.7247 10.7759 15.1663 10.3336" stroke="black" stroke-width="0.8" stroke-linecap="round" stroke-linejoin="round"/>
<path d="M1.83325 5.66636C2.27556 5.22482 2.87489 4.97607 3.49988 4.97607C4.12486 4.97607 4.72497 5.22482 5.1665 5.66636C5.60881 6.10866 6.20814 6.35664 6.83313 6.35664C7.45811 6.35664 8.05822 6.10866 8.49975 5.66636C8.94206 5.22482 9.54139 4.97607 10.1664 4.97607C10.7914 4.97607 11.3915 5.22482 11.833 5.66636C12.2753 6.10866 12.8746 6.35664 13.4996 6.35664C14.1246 6.35664 14.7247 6.10866 15.1663 5.66636" stroke="black" stroke-width="0.8" stroke-linecap="round" stroke-linejoin="round"/>
</svg>
