<svg width="12" height="12" viewBox="0 0 12 12" fill="none" xmlns="http://www.w3.org/2000/svg">
<mask id="mask0_5973_19494" style="mask-type:luminance" maskUnits="userSpaceOnUse" x="0" y="0" width="12" height="12">
<path d="M0 0H12V12H0V0Z" fill="white"/>
</mask>
<g mask="url(#mask0_5973_19494)">
<path d="M1.73034 5.26761C1.26158 4.79885 0.998047 4.16276 0.998047 3.49985C0.998047 2.83694 1.26158 2.20086 1.73034 1.7321C2.1991 1.26334 2.83519 0.999806 3.4981 0.999806C4.87872 0.999806 5.99814 2.11923 5.99814 3.49985V11" stroke="#666666" stroke-width="0.8" stroke-linecap="round" stroke-linejoin="round"/>
<path d="M6 3.49982C6 2.1192 7.11942 0.999771 8.50005 0.999771C9.16296 0.999771 9.79905 1.2633 10.2678 1.73206C10.7366 2.20082 11.0001 2.83691 11.0001 3.49982C11.0001 4.16273 10.7366 4.79882 10.2678 5.26758" stroke="#666666" stroke-width="0.8" stroke-linecap="round" stroke-linejoin="round"/>
</g>
</svg>
