<svg width="17" height="16" viewBox="0 0 17 16" fill="none" xmlns="http://www.w3.org/2000/svg">
<g clip-path="url(#clip0_7581_96439)">
<mask id="mask0_7581_96439" style="mask-type:luminance" maskUnits="userSpaceOnUse" x="0" y="0" width="17" height="16">
<path d="M0.300293 0.000366211H16.2996V15.9997H0.300293V0.000366211Z" fill="white"/>
</mask>
<g mask="url(#mask0_7581_96439)">
<path d="M1.63354 5.77758H3.85597L6.07762 14.6665L8.30004 5.77758H12.7441C13.9715 5.77758 14.9665 4.78336 14.9665 3.55593C14.9665 3.1657 14.8639 2.78247 14.6688 2.44433C14.2724 1.75716 13.5386 1.3335 12.7441 1.3335C11.5175 1.3335 10.5225 2.3285 10.5225 3.55593C10.5225 3.94616 10.6251 4.32939 10.8202 4.66675L14.6688 11.3333C14.8639 11.6714 14.9665 12.0546 14.9665 12.4441C14.9665 13.6715 13.9715 14.6665 12.7441 14.6665C11.5175 14.6665 10.5225 13.6715 10.5225 12.4441" stroke="black" stroke-width="0.8" stroke-linecap="round" stroke-linejoin="round"/>
</g>
</g>
<defs>
<clipPath id="clip0_7581_96439">
<rect width="16" height="16" fill="white" transform="translate(0.5)"/>
</clipPath>
</defs>
</svg>
