<svg width="16" height="16" viewBox="0 0 16 16" fill="none" xmlns="http://www.w3.org/2000/svg">
<path d="M6.33349 9.66662C6.33349 8.74625 5.58724 8 4.66687 8C3.74649 8 3.00024 8.74625 3.00024 9.66662C3.00024 10.587 3.74649 11.3333 4.66687 11.3333C5.58724 11.3333 6.33349 10.587 6.33349 9.66662Z" stroke="black" stroke-width="0.8" stroke-linecap="round" stroke-linejoin="round"/>
<path d="M6.33337 9.66662C6.33337 8 4.66675 6.33337 4.66675 4.66675C4.66675 2.826 6.15925 1.3335 8 1.3335C9.84075 1.3335 11.3332 2.826 11.3332 4.66675C11.3332 8 9.66662 9.66662 9.66662 12.9999C9.66662 13.9202 10.4129 14.6665 11.3332 14.6665C12.2536 14.6665 12.9999 13.9202 12.9999 12.9999" stroke="black" stroke-width="0.8" stroke-linecap="round" stroke-linejoin="round"/>
</svg>
