<svg width="320" height="254" viewBox="0 0 320 254" fill="none" xmlns="http://www.w3.org/2000/svg">
<g clip-path="url(#clip0_8489_70935)">
<path d="M138.602 167.771C139.181 167.444 139.832 167.268 140.497 167.257C141.161 167.246 141.817 167.401 142.407 167.708C142.996 168.016 143.501 168.465 143.874 169.017C144.248 169.568 144.48 170.205 144.548 170.868C142.119 170.868 139.737 170.301 138.602 167.771Z" fill="#EBEBEB"/>
<path d="M141.431 165.27C142.248 165.539 143.118 165.6 143.964 165.447C144.811 165.295 145.606 164.933 146.278 164.394C146.95 163.856 147.479 163.158 147.816 162.364C148.153 161.569 148.288 160.703 148.209 159.843C145.123 160.452 142.227 161.776 141.431 165.27Z" fill="#EBEBEB"/>
<path d="M130.855 169.399C130.903 169.375 130.954 169.354 131.006 169.339L131.451 169.189C131.836 169.063 132.394 168.88 133.08 168.64C134.453 168.157 136.336 167.471 138.371 166.584C139.384 166.137 140.336 165.683 141.193 165.248C142.049 164.813 142.797 164.383 143.417 164.003C143.906 163.709 144.377 163.386 144.829 163.037C145.147 162.795 145.31 162.624 145.31 162.633C145.279 162.678 145.243 162.718 145.202 162.754C145.094 162.868 144.979 162.975 144.858 163.076C144.416 163.444 143.949 163.782 143.461 164.088C142.847 164.48 142.095 164.91 141.243 165.359C140.392 165.808 139.434 166.26 138.417 166.71C136.384 167.599 134.492 168.28 133.111 168.735C132.421 168.964 131.858 169.133 131.468 169.244L131.018 169.373C130.965 169.388 130.91 169.397 130.855 169.399Z" fill="#E0E0E0"/>
<path d="M141.729 169.192C141.729 169.211 141.435 169.013 140.952 168.749C140.32 168.409 139.653 168.14 138.963 167.947C138.27 167.758 137.558 167.649 136.841 167.621C136.293 167.599 135.949 167.621 135.949 167.602C136.027 167.579 136.108 167.566 136.19 167.563C136.408 167.54 136.627 167.529 136.846 167.532C138.306 167.538 139.738 167.931 140.998 168.672C141.187 168.783 141.371 168.904 141.546 169.037C141.614 169.079 141.676 169.131 141.729 169.192Z" fill="#E0E0E0"/>
<path d="M84.4185 158.328C84.1244 159.115 84.0298 159.964 84.1433 160.798C84.2567 161.631 84.5746 162.423 85.0684 163.102C85.5621 163.782 86.2163 164.327 86.9719 164.689C87.7276 165.052 88.5611 165.22 89.3974 165.178C88.9356 162.138 87.7714 159.248 84.4185 158.328Z" fill="#EBEBEB"/>
<path d="M83.9446 156.834C83.9639 156.834 84.0457 157.168 84.2213 157.697C84.4494 158.387 84.735 159.056 85.0751 159.698C85.4198 160.337 85.8164 160.946 86.2609 161.52C86.6049 161.959 86.8382 162.216 86.8238 162.23C86.7561 162.184 86.6947 162.13 86.641 162.068C86.5279 161.957 86.374 161.79 86.1936 161.585C85.2475 160.46 84.547 159.148 84.1371 157.733C84.0601 157.463 84.0048 157.25 83.9783 157.086C83.9536 157.004 83.9422 156.92 83.9446 156.834Z" fill="#E0E0E0"/>
<path d="M36.3513 97.355C35.8946 98.5761 35.7475 99.8921 35.9234 101.185C36.0993 102.477 36.5926 103.705 37.3589 104.758C38.1251 105.811 39.1402 106.656 40.3126 107.217C41.485 107.778 42.7779 108.036 44.0747 107.97C43.3531 103.258 41.5563 98.7879 36.361 97.355" fill="#EBEBEB"/>
<path d="M35.6155 95.0447C35.6643 95.1608 35.7022 95.2814 35.7285 95.4047C35.7911 95.6463 35.8897 95.975 36.022 96.3881C36.3709 97.4603 36.812 98.5 37.3401 99.4955C37.8722 100.49 38.4903 101.436 39.1873 102.323C39.4567 102.661 39.6684 102.932 39.8391 103.113C39.9262 103.204 40.0066 103.302 40.0797 103.405C39.9805 103.328 39.8887 103.241 39.8055 103.147C39.6347 102.973 39.399 102.712 39.1224 102.378C37.6699 100.629 36.5872 98.6005 35.9402 96.4171C35.8175 96.0015 35.7309 95.6584 35.6828 95.4216C35.6515 95.2977 35.629 95.1718 35.6155 95.0447Z" fill="#E0E0E0"/>
<path d="M44.479 145.449C43.8263 145.976 43.3144 146.659 42.9894 147.435C42.6645 148.21 42.5367 149.055 42.6176 149.893C42.6985 150.73 42.9855 151.535 43.4527 152.233C43.92 152.932 44.5529 153.502 45.2944 153.894C46.4369 151.04 46.8987 147.96 44.479 145.449Z" fill="#EBEBEB"/>
<path d="M44.8251 143.922C44.8444 143.922 44.7458 144.262 44.6279 144.806C44.3165 146.229 44.2554 147.696 44.4475 149.141C44.5197 149.694 44.5918 150.035 44.5702 150.04C44.5357 149.962 44.5107 149.881 44.4956 149.798C44.4547 149.646 44.4066 149.424 44.3585 149.148C44.1175 147.695 44.1797 146.207 44.5413 144.779C44.6111 144.506 44.6784 144.296 44.7313 144.142C44.7541 144.065 44.7856 143.991 44.8251 143.922Z" fill="#E0E0E0"/>
<path d="M89.1157 84.3502C89.8654 84.7251 90.6961 84.907 91.5332 84.8793C92.3702 84.8516 93.1872 84.6153 93.9108 84.1916C94.6343 83.7679 95.2416 83.1701 95.678 82.4521C96.1144 81.734 96.3663 80.9182 96.4109 80.0781C93.3514 80.2255 90.3737 81.093 89.1157 84.3502Z" fill="#EBEBEB"/>
<path d="M87.5886 84.6836C87.5886 84.6642 87.9302 84.6159 88.4714 84.4951C89.8882 84.1841 91.2401 83.6272 92.4665 82.8496C92.9476 82.55 93.2146 82.3446 93.2266 82.3663C93.1757 82.4303 93.1157 82.4865 93.0486 82.533C92.9283 82.6345 92.7455 82.7747 92.5146 82.9293C91.3029 83.758 89.9324 84.3234 88.4906 84.5893C88.214 84.6401 87.9903 84.6691 87.834 84.6836C87.7525 84.6946 87.67 84.6946 87.5886 84.6836Z" fill="#E0E0E0"/>
<path d="M82.8816 83.9129C83.9614 83.6801 84.9666 83.1811 85.8068 82.461C86.647 81.7409 87.2957 80.8222 87.6946 79.7876C88.0935 78.753 88.23 77.635 88.0918 76.5342C87.9537 75.4334 87.5452 74.3845 86.9032 73.4817C83.8726 76.1614 81.5106 79.5225 82.8816 83.9129Z" fill="#EBEBEB"/>
<path d="M81.5706 85.5028C81.6302 85.416 81.6978 85.3351 81.7726 85.2611C81.9097 85.1089 82.1045 84.8818 82.3354 84.5966C83.5483 83.1082 84.4874 81.4144 85.1087 79.5949C85.229 79.2469 85.318 78.9618 85.3757 78.7637C85.3998 78.6589 85.4345 78.5569 85.4791 78.4592C85.4718 78.5666 85.4524 78.6728 85.4214 78.7758C85.3805 78.9787 85.3011 79.259 85.1809 79.6215C84.604 81.4723 83.6552 83.1845 82.3932 84.6522C82.1526 84.9325 81.9458 85.1524 81.7967 85.295C81.7287 85.3719 81.6529 85.4416 81.5706 85.5028Z" fill="#E0E0E0"/>
<path d="M102.612 166.686C102.84 167.137 103.176 167.525 103.59 167.813C104.004 168.102 104.483 168.283 104.984 168.34C105.485 168.396 105.992 168.327 106.459 168.139C106.927 167.95 107.341 167.647 107.663 167.258C106.133 166.224 104.382 165.567 102.612 166.686Z" fill="#EBEBEB"/>
<path d="M101.76 166.29C102.323 166.54 102.902 166.753 103.492 166.927C104.093 167.061 104.702 167.153 105.315 167.203C105.136 167.243 104.952 167.254 104.769 167.237C103.884 167.206 103.016 166.983 102.225 166.582C102.056 166.508 101.9 166.41 101.76 166.29Z" fill="#E0E0E0"/>
<path d="M124.909 79.9309C125.219 80.3304 125.624 80.6461 126.086 80.8494C126.548 81.0528 127.053 81.1374 127.556 81.0957C128.058 81.054 128.543 80.8872 128.966 80.6105C129.388 80.3338 129.736 79.9557 129.977 79.5105C128.276 78.7856 126.434 78.4884 124.909 79.9309Z" fill="#EBEBEB"/>
<path d="M123.997 79.7083C125.192 80.0225 126.438 80.0923 127.661 79.9136C127.492 79.9851 127.313 80.0315 127.131 80.0514C126.256 80.1945 125.361 80.1442 124.507 79.904C124.328 79.865 124.156 79.799 123.997 79.7083Z" fill="#E0E0E0"/>
<path d="M182.693 87.3635C183.5 87.5866 184.349 87.6047 185.165 87.4164C185.98 87.228 186.737 86.839 187.366 86.2844C187.994 85.7298 188.476 85.0269 188.768 84.2389C189.059 83.4508 189.151 82.6024 189.036 81.7698C186.063 82.4947 183.306 83.9275 182.693 87.3635Z" fill="#EBEBEB"/>
<path d="M181.255 87.972C181.255 87.9527 181.575 87.8391 182.084 87.6168C183.416 87.0394 184.637 86.2332 185.692 85.2343C186.099 84.8501 186.33 84.594 186.347 84.6085C186.307 84.6798 186.259 84.7456 186.202 84.8042C186.104 84.9274 185.962 85.0966 185.755 85.2875C184.723 86.3332 183.485 87.1512 182.121 87.6893C181.861 87.7908 181.639 87.8657 181.495 87.9068C181.418 87.9385 181.337 87.9604 181.255 87.972Z" fill="#E0E0E0"/>
<path d="M188.391 161.01C189.811 160.68 191.126 160 192.219 159.033C193.312 158.066 194.149 156.841 194.654 155.468C195.159 154.096 195.317 152.618 195.113 151.169C194.909 149.72 194.35 148.345 193.486 147.167C189.534 150.765 186.489 155.24 188.391 161.01Z" fill="#EBEBEB"/>
<path d="M186.686 163.136C186.768 163.02 186.858 162.91 186.955 162.808C187.136 162.605 187.388 162.303 187.689 161.923C187.989 161.544 188.336 161.077 188.694 160.546C189.053 160.014 189.416 159.408 189.769 158.755C190.123 158.103 190.412 157.46 190.659 156.866C190.907 156.271 191.102 155.728 191.249 155.264C191.395 154.8 191.506 154.423 191.576 154.16C191.606 154.021 191.648 153.885 191.701 153.754C191.685 153.895 191.66 154.034 191.624 154.172C191.569 154.44 191.47 154.822 191.333 155.29C191.196 155.759 191.006 156.31 190.768 156.912C190.529 157.513 190.229 158.156 189.88 158.816C189.547 159.432 189.183 160.031 188.79 160.611C188.422 161.143 188.069 161.604 187.759 161.979C187.448 162.353 187.181 162.648 186.991 162.841C186.897 162.948 186.795 163.046 186.686 163.136Z" fill="#E0E0E0"/>
<path d="M289.597 137.819C284.492 109.166 259.998 84.1697 231.119 81.7798C215.381 80.4955 199.562 85.4784 183.888 83.5763C170.605 81.9105 158.381 75.4368 149.507 65.3679C136.56 50.5735 132.183 29.5282 118.476 15.4492C99.5897 -3.97038 66.6325 -4.27113 43.6523 10.0111C20.672 24.2933 6.7787 50.0696 0.418682 76.4473L0.167843 84.4704C-1.21583 111.832 5.95337 143.672 21.7563 168.058C37.7697 192.77 48.2969 203.012 77.4753 220.741C102.252 235.828 150.769 242.461 179.737 243.16C208.705 243.859 238.458 235.194 260.249 215.994C282.04 196.794 294.711 166.473 289.597 137.819Z" fill="#FFB6C1"/>
<g opacity="0.8">
<path d="M289.597 137.819C284.492 109.166 259.998 84.1697 231.119 81.7798C215.381 80.4955 199.562 85.4784 183.888 83.5763C170.605 81.9105 158.381 75.4368 149.507 65.3679C136.56 50.5735 132.183 29.5282 118.476 15.4492C99.5897 -3.97038 66.6325 -4.27113 43.6523 10.0111C20.672 24.2933 6.7787 50.0696 0.418682 76.4473L0.167843 84.4704C-1.21583 111.832 5.95337 143.672 21.7563 168.058C37.7697 192.77 48.2969 203.012 77.4753 220.741C102.252 235.828 150.769 242.461 179.737 243.16C208.705 243.859 238.458 235.194 260.249 215.994C282.04 196.794 294.711 166.473 289.597 137.819Z" fill="white"/>
</g>
<path d="M317.995 240.123C319.102 232.459 313.815 225.345 306.187 224.232C298.558 223.12 291.476 228.43 290.368 236.094C289.261 243.758 294.547 250.873 302.176 251.985C309.805 253.098 316.887 247.787 317.995 240.123Z" fill="#FFB6C1"/>
<path opacity="0.8" d="M317.995 240.123C319.102 232.459 313.815 225.345 306.187 224.232C298.558 223.12 291.476 228.43 290.368 236.094C289.261 243.758 294.547 250.873 302.176 251.985C309.805 253.098 316.887 247.787 317.995 240.123Z" fill="white"/>
<path d="M175.141 165.389C175.347 164.937 175.66 164.543 176.052 164.24C176.444 163.936 176.904 163.734 177.391 163.649C177.878 163.564 178.379 163.599 178.85 163.752C179.321 163.905 179.747 164.171 180.093 164.526C179.586 165.348 178.799 165.956 177.878 166.237C177.391 166.409 176.863 166.419 176.37 166.267C175.877 166.114 175.446 165.806 175.141 165.389Z" fill="#FFB6C1"/>
<path d="M173.433 165.785C173.654 165.686 173.885 165.613 174.123 165.567C174.559 165.461 175.165 165.343 175.836 165.232C176.507 165.12 177.118 165.036 177.563 164.99C177.801 164.95 178.043 164.932 178.284 164.934C178.053 165.003 177.817 165.051 177.577 165.079L175.857 165.362C175.189 165.473 174.583 165.58 174.145 165.662C173.91 165.716 173.672 165.757 173.433 165.785Z" fill="#EC4899"/>
<path d="M89.1689 150.091C89.6818 150.515 90.0816 151.061 90.3323 151.679C90.5831 152.297 90.6769 152.968 90.6053 153.632C90.5338 154.295 90.2991 154.931 89.9224 155.481C89.5457 156.03 89.0388 156.477 88.4474 156.782C87.5646 154.508 87.2255 152.06 89.1689 150.091Z" fill="#FFB6C1"/>
<path d="M92.5146 151.836C92.562 152.697 92.8219 153.534 93.2709 154.27C93.7199 155.006 94.344 155.618 95.0871 156.052C95.8301 156.485 96.6688 156.726 97.5276 156.753C98.3864 156.78 99.2384 156.592 100.007 156.207C98.3234 153.549 96.0456 151.309 92.5146 151.831" fill="#FFB6C1"/>
<path d="M84.8489 143.431C84.8913 143.467 84.9293 143.507 84.9619 143.552L85.2626 143.912C85.5175 144.229 85.8904 144.685 86.3618 145.239C87.2998 146.35 88.6252 147.863 90.1862 149.441C90.9679 150.228 91.7352 150.956 92.4471 151.599C93.1591 152.241 93.8326 152.79 94.4098 153.23C94.8633 153.579 95.3363 153.901 95.8265 154.196C96.1753 154.404 96.3822 154.491 96.3774 154.503C96.3237 154.491 96.2719 154.471 96.2234 154.445C96.0789 154.386 95.9383 154.317 95.8025 154.24C95.301 153.959 94.8189 153.645 94.3593 153.3C93.7724 152.865 93.099 152.316 92.375 151.683C91.651 151.05 90.8837 150.315 90.0996 149.528C88.5362 147.947 87.2133 146.423 86.2968 145.294C85.8326 144.731 85.4718 144.265 85.2265 143.941L84.9427 143.564C84.9074 143.523 84.876 143.479 84.8489 143.431Z" fill="#EC4899"/>
<path d="M88.9836 153.527C88.9619 153.527 89.0413 153.188 89.111 152.64C89.2895 151.205 89.1381 149.749 88.6685 148.382C88.4881 147.86 88.3413 147.549 88.3606 147.539C88.4106 147.602 88.4518 147.672 88.4833 147.747C88.5836 147.943 88.6735 148.145 88.7526 148.351C89.012 149.033 89.1818 149.746 89.2578 150.472C89.3326 151.197 89.3124 151.928 89.1976 152.647C89.162 152.87 89.1138 153.09 89.0533 153.307C89.0386 153.383 89.0152 153.456 88.9836 153.527Z" fill="#EC4899"/>
<path d="M195.126 104.628C194.828 104.231 194.631 103.768 194.551 103.278C194.471 102.787 194.511 102.285 194.668 101.814C194.825 101.343 195.093 100.917 195.451 100.573C195.808 100.229 196.243 99.9783 196.718 99.8413C197.198 100.678 197.358 101.661 197.168 102.608C197.088 103.12 196.847 103.593 196.479 103.957C196.111 104.321 195.637 104.556 195.126 104.628Z" fill="#FFB6C1"/>
<path d="M194.669 106.327C194.686 106.084 194.732 105.845 194.806 105.614C194.919 105.179 195.102 104.587 195.323 103.939C195.544 103.292 195.761 102.712 195.925 102.294C196.002 102.064 196.1 101.841 196.218 101.629C196.168 101.867 196.098 102.1 196.009 102.325C195.85 102.787 195.655 103.352 195.441 103.98C195.227 104.609 195.025 105.213 194.89 105.638C194.828 105.871 194.754 106.101 194.669 106.327Z" fill="#EC4899"/>
<path d="M184.543 122.605C184.294 121.678 184.274 120.703 184.484 119.765C184.694 118.828 185.128 117.956 185.749 117.225C186.369 116.493 187.158 115.925 188.046 115.568C188.934 115.212 189.896 115.078 190.847 115.178C191.181 117.004 190.606 118.88 189.656 120.467C188.523 122.34 186.272 123.125 184.543 122.605Z" fill="#FFB6C1"/>
<path d="M177.426 129.758C177.456 129.711 177.49 129.667 177.529 129.627L177.839 129.272C178.116 128.967 178.52 128.533 179.023 128.001C180.033 126.938 181.442 125.486 183.011 123.893C184.579 122.301 186.005 120.863 187.044 119.831L188.281 118.611L188.622 118.285C188.699 118.212 188.742 118.174 188.747 118.179C188.715 118.224 188.679 118.266 188.639 118.304L188.314 118.647L187.112 119.892L183.1 123.98L179.088 128.064L177.885 129.306L177.558 129.644C177.518 129.687 177.474 129.725 177.426 129.758Z" fill="#EC4899"/>
<g opacity="0.3">
<path d="M184.543 122.605C184.294 121.678 184.274 120.703 184.484 119.765C184.694 118.828 185.128 117.956 185.749 117.225C186.369 116.493 187.158 115.925 188.046 115.568C188.934 115.212 189.896 115.078 190.847 115.178C191.181 117.004 190.606 118.88 189.656 120.467C188.523 122.34 186.272 123.125 184.543 122.605Z" fill="black"/>
</g>
<path d="M181.245 123.323C180.721 123.055 180.27 122.662 179.932 122.179C179.594 121.696 179.378 121.137 179.304 120.551C179.23 119.965 179.299 119.37 179.506 118.817C179.713 118.264 180.052 117.77 180.492 117.379C181.454 117.983 182.07 119.015 182.39 120.107C182.77 121.397 182.198 122.765 181.245 123.323Z" fill="#FFB6C1"/>
<g opacity="0.3">
<path d="M181.245 123.323C180.721 123.055 180.27 122.662 179.932 122.179C179.594 121.696 179.378 121.137 179.304 120.551C179.23 119.965 179.299 119.37 179.506 118.817C179.713 118.264 180.052 117.77 180.492 117.379C181.454 117.983 182.07 119.015 182.39 120.107C182.77 121.397 182.198 122.765 181.245 123.323Z" fill="black"/>
</g>
<path d="M181.62 125.382C181.587 125.311 181.563 125.236 181.548 125.159C181.507 125.017 181.462 124.807 181.411 124.543C181.31 124.021 181.204 123.292 181.108 122.487C181.012 121.682 180.944 120.948 180.903 120.416C180.869 120.131 180.858 119.843 180.87 119.556C180.93 119.837 180.971 120.122 180.992 120.409C181.057 120.969 181.142 121.682 181.233 122.472C181.324 123.263 181.421 124.004 181.498 124.529C181.575 125.053 181.639 125.377 181.62 125.382Z" fill="#EC4899"/>
<path d="M136.197 151.328C136.564 150.452 137.144 149.682 137.882 149.087C138.621 148.492 139.495 148.092 140.426 147.922C141.357 147.752 142.316 147.818 143.215 148.114C144.115 148.41 144.927 148.927 145.577 149.617C142.85 151.741 139.668 153.191 136.216 151.328" fill="#FFB6C1"/>
<g opacity="0.3">
<path d="M136.197 151.328C136.564 150.452 137.144 149.682 137.882 149.087C138.621 148.492 139.495 148.092 140.426 147.922C141.357 147.752 142.316 147.819 143.215 148.115C144.115 148.411 144.927 148.927 145.577 149.618C142.85 151.741 139.668 153.191 136.216 151.328" fill="black"/>
</g>
<path d="M134.665 152.179C134.729 152.113 134.802 152.057 134.881 152.009C135.025 151.906 135.239 151.768 135.514 151.608C136.943 150.778 138.527 150.253 140.168 150.064C140.481 150.03 140.735 150.014 140.911 150.011C141.002 149.999 141.094 149.999 141.185 150.011C141.185 150.03 140.798 150.055 140.177 150.146C139.37 150.265 138.574 150.453 137.799 150.707C137.025 150.964 136.275 151.287 135.557 151.674C134.994 151.983 134.677 152.195 134.665 152.179Z" fill="#EC4899"/>
<path d="M72.801 119.843C73.4615 119.534 74.1883 119.394 74.9159 119.437C75.6434 119.479 76.3491 119.703 76.9692 120.088C77.5894 120.472 78.1047 121.006 78.4687 121.64C78.8328 122.274 79.0341 122.99 79.0547 123.721C76.3969 123.523 73.8257 122.704 72.801 119.843Z" fill="#FFB6C1"/>
<g opacity="0.3">
<path d="M72.801 119.843C73.4615 119.534 74.1883 119.394 74.9159 119.437C75.6434 119.479 76.3491 119.703 76.9692 120.088C77.5894 120.472 78.1047 121.006 78.4687 121.64C78.8328 122.274 79.0341 122.99 79.0547 123.721C76.3969 123.523 73.8257 122.704 72.801 119.843Z" fill="black"/>
</g>
<path d="M71.4805 119.532C71.5506 119.52 71.6221 119.52 71.6921 119.532C71.8836 119.552 72.0739 119.583 72.2622 119.623C72.8851 119.754 73.4929 119.949 74.0758 120.206C74.6582 120.465 75.2126 120.783 75.7306 121.155C75.9278 121.3 76.0818 121.424 76.1828 121.515C76.2396 121.558 76.2906 121.609 76.3343 121.665C76.3199 121.682 76.0938 121.496 75.6801 121.23C74.6287 120.533 73.4661 120.023 72.243 119.72C71.7739 119.602 71.4781 119.551 71.4805 119.532Z" fill="#EC4899"/>
<path d="M158.989 148.368C158.911 147.717 158.994 147.058 159.233 146.448C159.471 145.838 159.857 145.298 160.355 144.875C160.853 144.452 161.448 144.161 162.086 144.026C162.725 143.892 163.386 143.919 164.011 144.105C163.104 146.321 161.695 148.29 158.989 148.368Z" fill="#FFB6C1"/>
<path d="M158.357 149.409C158.43 149.184 158.531 148.968 158.657 148.767C159.225 147.77 159.996 146.905 160.921 146.23C161.106 146.082 161.309 145.958 161.524 145.86C161.348 146.016 161.163 146.163 160.971 146.3C160.088 147.003 159.33 147.852 158.73 148.81C158.617 149.017 158.492 149.217 158.357 149.409Z" fill="#EC4899"/>
<path d="M177.916 135.815C177.718 135.191 177.676 134.528 177.797 133.884C177.917 133.24 178.194 132.636 178.604 132.127C179.014 131.618 179.544 131.219 180.146 130.967C180.747 130.714 181.402 130.616 182.051 130.681C181.57 133.029 180.56 135.228 177.916 135.815Z" fill="#FFB6C1"/>
<g opacity="0.3">
<path d="M177.916 135.815C177.718 135.191 177.676 134.527 177.797 133.884C177.917 133.24 178.194 132.636 178.604 132.127C179.014 131.618 179.544 131.219 180.146 130.966C180.747 130.714 181.402 130.615 182.051 130.68C181.57 133.029 180.56 135.228 177.916 135.815Z" fill="black"/>
</g>
<path d="M177.49 136.958C177.52 136.723 177.579 136.492 177.666 136.272C177.85 135.73 178.092 135.209 178.388 134.718C178.68 134.227 179.026 133.769 179.417 133.353C179.571 133.171 179.746 133.009 179.939 132.87C179.796 133.057 179.644 133.236 179.482 133.406C179.116 133.836 178.786 134.295 178.493 134.779C178.206 135.264 177.958 135.772 177.75 136.296C177.676 136.522 177.59 136.743 177.49 136.958Z" fill="#EC4899"/>
<path d="M35.2427 118.536C35.3841 117.897 35.6816 117.303 36.1084 116.807C36.5352 116.312 37.0779 115.931 37.6876 115.699C38.2974 115.467 38.9551 115.39 39.6015 115.477C40.2479 115.564 40.8627 115.81 41.3906 116.195C39.8031 117.981 37.8211 119.368 35.2427 118.536Z" fill="#FFB6C1"/>
<path d="M34.3022 119.307C34.4469 119.119 34.6133 118.95 34.7977 118.802C35.229 118.431 35.6983 118.107 36.1976 117.835C36.6974 117.559 37.2256 117.338 37.7731 117.176C37.9959 117.097 38.2279 117.047 38.4634 117.028C38.2466 117.121 38.025 117.202 37.7995 117.27C36.7336 117.637 35.738 118.185 34.8555 118.889C34.6794 119.039 34.4947 119.179 34.3022 119.307Z" fill="#EC4899"/>
<path d="M117.325 119.865C117.403 128.187 115.598 134.55 111.908 138.954C108.218 143.358 103.167 145.589 96.7548 145.647C90.3086 145.71 85.1846 143.577 81.3827 139.249C77.5807 134.92 75.6389 128.596 75.5571 120.276L75.4176 105.642C75.3374 97.353 77.143 90.99 80.8343 86.5537C84.5256 82.1173 89.5935 79.8718 96.038 79.817C102.452 79.7542 107.562 81.9023 111.367 86.2613C115.172 90.6203 117.113 96.9438 117.19 105.232L117.325 119.865ZM106.542 103.695C106.489 98.4548 105.581 94.5855 103.817 92.087C102.053 89.5886 99.4872 88.3546 96.1198 88.3852C92.7636 88.4175 90.2309 89.7005 88.5215 92.2344C86.8122 94.7683 85.9775 98.6545 86.0176 103.893L86.186 121.675C86.2357 126.942 87.1553 130.833 88.9449 133.348C90.7344 135.862 93.3056 137.104 96.6586 137.071C100.012 137.039 102.536 135.756 104.233 133.222C105.929 130.688 106.753 126.773 106.703 121.477L106.542 103.695Z" fill="#FFC6C6"/>
<g opacity="0.4">
<path d="M117.325 119.865C117.403 128.187 115.598 134.55 111.908 138.954C108.218 143.358 103.167 145.589 96.7548 145.647C90.3086 145.71 85.1846 143.577 81.3827 139.249C77.5807 134.92 75.6389 128.596 75.5571 120.276L75.4176 105.642C75.3374 97.353 77.143 90.99 80.8343 86.5537C84.5256 82.1173 89.5935 79.8718 96.038 79.817C102.452 79.7542 107.562 81.9023 111.367 86.2613C115.172 90.6203 117.113 96.9438 117.19 105.232L117.325 119.865ZM106.542 103.695C106.489 98.4548 105.581 94.5855 103.817 92.087C102.053 89.5886 99.4872 88.3546 96.1198 88.3852C92.7636 88.4175 90.2309 89.7005 88.5215 92.2344C86.8122 94.7683 85.9775 98.6545 86.0176 103.893L86.186 121.675C86.2357 126.942 87.1553 130.833 88.9449 133.348C90.7344 135.862 93.3056 137.104 96.6586 137.071C100.012 137.039 102.536 135.756 104.233 133.222C105.929 130.688 106.753 126.773 106.703 121.477L106.542 103.695Z" fill="black"/>
</g>
<path d="M123.448 119.807C123.528 128.127 121.723 134.49 118.032 138.896C114.34 143.302 109.289 145.533 102.878 145.589C96.4323 145.652 91.3082 143.518 87.5063 139.188C83.7044 134.858 81.7649 128.532 81.688 120.211L81.5485 105.577C81.4683 97.2879 83.2738 90.9249 86.9651 86.4886C90.6564 82.0522 95.7243 79.8059 102.169 79.7495C108.583 79.6899 113.693 81.838 117.498 86.1938C121.303 90.5496 123.237 96.8763 123.299 105.174L123.448 119.807ZM112.665 103.637C112.614 98.3986 111.702 94.5325 109.928 92.0388C108.155 89.5452 105.589 88.3113 102.231 88.3371C98.8752 88.3709 96.3425 89.6539 94.6331 92.1862C92.9238 94.7185 92.0932 98.6056 92.1413 103.847L92.3121 121.627C92.3634 126.896 93.283 130.788 95.0709 133.302C96.8588 135.817 99.43 137.058 102.785 137.026C106.138 136.992 108.662 135.709 110.359 133.176C112.055 130.644 112.878 126.728 112.827 121.428L112.665 103.637Z" fill="#FFC6C6"/>
<path d="M81.5796 106.447C81.5916 106.479 80.1701 107.047 78.4046 107.714C76.6392 108.38 75.1936 108.883 75.1936 108.861C75.1936 108.84 76.6031 108.262 78.3686 107.595C80.134 106.928 81.5676 106.414 81.5796 106.447Z" fill="#FFC6C6"/>
<path d="M81.9287 112.229C81.9407 112.261 80.5192 112.829 78.7513 113.496C76.9834 114.162 75.5451 114.675 75.533 114.643C75.521 114.612 76.9425 114.044 78.708 113.377C80.4735 112.71 81.9287 112.196 81.9287 112.229Z" fill="#FFC6C6"/>
<path d="M82.2868 118.012C82.2988 118.043 80.8773 118.611 79.1094 119.278C77.3415 119.945 75.9152 120.457 75.8912 120.425C75.8671 120.394 77.3007 119.826 79.0661 119.159C80.8316 118.492 82.2748 117.978 82.2868 118.012Z" fill="#FFC6C6"/>
<path d="M82.6501 123.794C82.6621 123.825 81.2406 124.393 79.4727 125.06C77.7048 125.727 76.2641 126.239 76.252 126.207C76.24 126.176 77.6639 125.608 79.4294 124.941C81.1949 124.274 82.6284 123.76 82.6501 123.794Z" fill="#FFC6C6"/>
<path d="M82.994 129.576C82.9247 129.621 82.8504 129.657 82.7727 129.685C82.6284 129.747 82.4168 129.834 82.157 129.938C81.6326 130.149 80.9087 130.422 80.1053 130.733C79.3019 131.045 78.5707 131.304 78.0392 131.492C77.7746 131.586 77.5581 131.661 77.409 131.71C77.3322 131.742 77.2512 131.763 77.1685 131.772C77.2374 131.727 77.3117 131.69 77.3897 131.664C77.5341 131.601 77.7433 131.514 78.0055 131.422C78.5274 131.212 79.2538 130.939 80.0572 130.627C80.8606 130.315 81.5918 130.054 82.1233 129.868C82.3879 129.774 82.6044 129.699 82.7535 129.651C82.8294 129.614 82.9105 129.588 82.994 129.576Z" fill="#FFC6C6"/>
<path d="M84.6369 134.865C84.4049 134.991 84.1637 135.098 83.9153 135.187C83.4583 135.37 82.8258 135.617 82.1258 135.882C81.4259 136.148 80.7861 136.38 80.3243 136.542C80.0777 136.643 79.8235 136.724 79.5642 136.784C79.7958 136.658 80.0371 136.55 80.2858 136.462C80.7404 136.276 81.373 136.03 82.0753 135.767C82.7776 135.503 83.4126 135.269 83.8769 135.107C84.123 135.005 84.3772 134.924 84.6369 134.865Z" fill="#FFC6C6"/>
<path d="M88.1559 139.717C87.9489 139.833 87.7324 139.931 87.5089 140.01C87.1024 140.174 86.5468 140.394 85.9166 140.631C85.2864 140.867 84.714 141.073 84.3099 141.215C84.0902 141.305 83.8632 141.375 83.6316 141.426C83.838 141.309 84.0546 141.211 84.2786 141.133C84.6827 140.969 85.2407 140.749 85.8709 140.512C86.5011 140.275 87.0735 140.07 87.4776 139.925C87.6971 139.836 87.9241 139.766 88.1559 139.717Z" fill="#FFC6C6"/>
<path d="M94.0031 142.9C93.7956 143.014 93.5792 143.111 93.3561 143.19C92.9496 143.356 92.394 143.576 91.7638 143.811C91.1336 144.045 90.5611 144.253 90.157 144.398C89.9375 144.487 89.7106 144.557 89.4788 144.606C89.6858 144.49 89.9022 144.392 90.1258 144.313C90.5323 144.149 91.0879 143.929 91.7181 143.692C92.3483 143.455 92.9207 143.25 93.3248 143.107C93.5438 143.017 93.7709 142.947 94.0031 142.9Z" fill="#FFC6C6"/>
<path d="M111.638 130.559C111.653 130.591 109.827 131.446 107.561 132.471C105.296 133.495 103.446 134.298 103.431 134.266C103.417 134.235 105.243 133.379 107.52 132.355C109.798 131.33 111.624 130.528 111.638 130.559Z" fill="#FFC6C6"/>
<path d="M112.836 125.606C112.851 125.637 111.342 126.348 109.469 127.193C107.595 128.039 106.065 128.701 106.051 128.67C106.036 128.638 107.542 127.925 109.418 127.08C111.294 126.234 112.822 125.574 112.836 125.606Z" fill="#FFC6C6"/>
<path d="M113.387 120.041C113.401 120.073 111.893 120.783 110.02 121.629C108.146 122.475 106.616 123.137 106.602 123.105C106.587 123.074 108.093 122.361 109.969 121.515C111.845 120.67 113.373 119.998 113.387 120.041Z" fill="#FFC6C6"/>
<path d="M113.938 114.474C113.952 114.505 112.446 115.218 110.57 116.064C108.694 116.91 107.167 117.569 107.152 117.538C107.138 117.506 108.646 116.796 110.52 115.95C112.394 115.105 113.918 114.44 113.938 114.474Z" fill="#FFC6C6"/>
<path d="M114.491 108.909C114.503 108.941 112.998 109.654 111.124 110.499C109.25 111.345 107.72 112.005 107.706 111.973C107.691 111.942 109.2 111.232 111.073 110.383C112.947 109.535 114.477 108.883 114.491 108.909Z" fill="#FFC6C6"/>
<path d="M113.387 103.953C113.401 103.985 111.893 104.697 110.02 105.543C108.146 106.389 106.616 107.049 106.602 107.017C106.587 106.986 108.093 106.273 109.969 105.427C111.845 104.581 113.373 103.922 113.387 103.953Z" fill="#FFC6C6"/>
<path d="M113.387 98.6183C113.401 98.6497 111.893 99.3625 110.02 100.208C108.146 101.054 106.616 101.714 106.602 101.682C106.587 101.651 108.093 100.938 109.969 100.092C111.845 99.2465 113.373 98.5869 113.387 98.6183Z" fill="#FFC6C6"/>
<path d="M112.836 93.5948C112.851 93.6262 111.342 94.3366 109.469 95.1823C107.595 96.028 106.065 96.6901 106.051 96.6587C106.036 96.6273 107.542 95.9145 109.418 95.0688C111.294 94.2231 112.822 93.5634 112.836 93.5948Z" fill="#FFC6C6"/>
<path d="M108.086 90.0935C107.425 90.4611 106.745 90.7918 106.049 91.0842C105.368 91.4141 104.671 91.7061 103.958 91.9589C104.618 91.5896 105.298 91.2588 105.996 90.9682C106.676 90.6383 107.374 90.3463 108.086 90.0935Z" fill="#FFC6C6"/>
<path d="M105.546 87.9504C104.885 88.316 104.205 88.6459 103.509 88.9387C102.828 89.2686 102.131 89.5606 101.418 89.8134C102.079 89.4475 102.759 89.1184 103.456 88.8276C104.136 88.4968 104.834 88.204 105.546 87.9504Z" fill="#FFC6C6"/>
<path d="M81.8515 99.4374C81.8635 99.4688 80.442 100.037 78.6766 100.704C76.9111 101.37 75.4679 101.885 75.4559 101.851C75.4439 101.817 76.8654 101.252 78.6332 100.585C80.4011 99.9183 81.8395 99.406 81.8515 99.4374Z" fill="#FFC6C6"/>
<path d="M83.6122 92.2273C83.6267 92.2587 82.0825 92.87 80.1703 93.5949C78.2581 94.3198 76.6923 94.8756 76.6802 94.8441C76.6682 94.8127 78.21 94.199 80.1246 93.4765C82.0392 92.754 83.6122 92.1935 83.6122 92.2273Z" fill="#FFC6C6"/>
<path d="M88.2473 85.0896C88.2593 85.1235 86.3039 85.8894 83.8793 86.8052C81.4548 87.721 79.4801 88.4362 79.4681 88.4048C79.456 88.3734 81.4115 87.6026 83.836 86.6868C86.2606 85.771 88.2353 85.0582 88.2473 85.0896Z" fill="#FFC6C6"/>
<path d="M122.412 130.63L122.311 130.596L122.022 130.482C121.895 130.436 121.729 130.4 121.541 130.347C121.316 130.303 121.089 130.275 120.86 130.262C119.833 130.197 118.294 130.572 116.805 131.693C115.999 132.306 115.277 133.024 114.657 133.826C113.967 134.674 113.291 135.634 112.524 136.6C111.743 137.637 110.808 138.547 109.753 139.299C108.597 140.082 107.291 140.614 105.919 140.86C104.546 141.108 103.137 141.062 101.784 140.722C100.535 140.393 99.3218 139.941 98.1617 139.372C97.0433 138.852 95.997 138.323 95.0012 137.886C94.0751 137.475 93.1139 137.149 92.1293 136.912C91.3176 136.719 90.486 136.624 89.6519 136.627C89.0223 136.632 88.3959 136.717 87.7878 136.881C87.4053 136.993 87.0335 137.14 86.6766 137.318L86.4024 137.463C86.3721 137.482 86.3398 137.497 86.3062 137.509L86.3951 137.453L86.6645 137.296C87.0183 137.106 87.3897 136.952 87.7734 136.835C88.3843 136.661 89.0148 136.568 89.6495 136.557C90.4902 136.546 91.3291 136.636 92.1486 136.825C93.1377 137.059 94.1038 137.382 95.0349 137.791C96.0403 138.226 97.0866 138.758 98.2026 139.27C99.3584 139.834 100.567 140.28 101.811 140.604C103.149 140.94 104.542 140.986 105.9 140.739C107.255 140.496 108.545 139.972 109.688 139.2C110.736 138.457 111.664 137.556 112.439 136.53C113.207 135.564 113.883 134.612 114.583 133.761C115.208 132.956 115.935 132.237 116.747 131.623C118.258 130.501 119.819 130.134 120.858 130.216C121.089 130.232 121.319 130.263 121.546 130.311C121.738 130.371 121.904 130.41 122.027 130.46L122.313 130.586L122.412 130.63Z" fill="white"/>
<path d="M123.929 114.513C123.929 114.525 123.758 114.547 123.46 114.646C123.046 114.798 122.654 115.009 122.298 115.271C121.841 115.593 121.336 116.042 120.757 116.506C120.117 117.007 119.424 117.436 118.691 117.784C117.359 118.425 115.917 118.8 114.443 118.886C114.161 118.91 113.904 118.903 113.68 118.908C113.457 118.913 113.264 118.893 113.108 118.881L112.745 118.845C112.703 118.844 112.662 118.837 112.622 118.823C112.664 118.818 112.706 118.818 112.747 118.823L113.11 118.835H113.68C113.904 118.823 114.161 118.835 114.436 118.797C115.894 118.684 117.318 118.301 118.638 117.668C119.362 117.322 120.049 116.901 120.687 116.412C121.271 115.958 121.779 115.511 122.25 115.204C122.618 114.942 123.024 114.74 123.453 114.605C123.57 114.571 123.689 114.545 123.809 114.527C123.848 114.516 123.889 114.511 123.929 114.513Z" fill="white"/>
<path d="M92.5117 120.111C92.4679 120.109 92.4244 120.103 92.3818 120.092C92.2953 120.072 92.1678 120.053 92.0066 120.007C91.5549 119.873 91.1218 119.682 90.7174 119.439C90.1243 119.074 89.5612 118.661 89.0337 118.205C88.43 117.702 87.7854 117.129 87.047 116.617C86.3575 116.128 85.5835 115.771 84.7643 115.566C83.6388 115.288 82.4624 115.293 81.3392 115.581C81.0193 115.663 80.8462 115.726 80.8438 115.713C80.8809 115.689 80.9214 115.67 80.964 115.658C81.0458 115.626 81.1661 115.578 81.3272 115.532C81.7777 115.4 82.2417 115.319 82.7102 115.291C83.4084 115.239 84.1104 115.297 84.7908 115.462C85.6256 115.666 86.4147 116.025 87.1167 116.523C87.8647 117.042 88.5094 117.62 89.1083 118.125C89.6279 118.582 90.1811 119 90.7631 119.374C91.159 119.619 91.5809 119.82 92.0211 119.971C92.187 120.009 92.3508 120.056 92.5117 120.111Z" fill="white"/>
<path d="M92.5525 97.27C92.423 97.3304 92.2886 97.3797 92.1508 97.4174C91.993 97.4732 91.8325 97.5208 91.6698 97.5599C91.4797 97.6083 91.2657 97.6735 91.0227 97.717C90.7798 97.7605 90.5176 97.8209 90.229 97.8571C89.9404 97.8934 89.6349 97.9272 89.3102 97.9562C88.605 98.0012 87.8974 97.9923 87.1935 97.9296C86.4902 97.859 85.7931 97.7354 85.1082 97.5599C84.7955 97.4705 84.4948 97.3884 84.223 97.2893C83.9512 97.1902 83.6963 97.0984 83.4702 97.0042C83.2441 96.91 83.042 96.8109 82.864 96.7287C82.6861 96.6466 82.5393 96.5668 82.4191 96.4992C82.2918 96.4354 82.1696 96.3619 82.0535 96.2793C82.1866 96.3286 82.3161 96.3876 82.4407 96.4557C82.5634 96.5161 82.7149 96.591 82.8929 96.6659C83.0709 96.7408 83.2729 96.8375 83.5038 96.9196C83.7348 97.0018 83.9849 97.1057 84.2567 97.1902C84.5285 97.2748 84.8243 97.3618 85.137 97.4464C86.4974 97.791 87.9024 97.9239 89.303 97.8402C89.6253 97.8137 89.9307 97.7967 90.217 97.7532C90.5032 97.7098 90.7654 97.6735 91.0059 97.63C91.2464 97.5865 91.4605 97.5334 91.6505 97.4923C91.8405 97.4512 92.0041 97.4077 92.1316 97.3715C92.2693 97.3276 92.4099 97.2936 92.5525 97.27Z" fill="white"/>
<path d="M122.563 97.2095C122.528 97.1964 122.494 97.1794 122.462 97.1588L122.183 96.9969C122.039 96.9083 121.889 96.8277 121.736 96.7552C121.538 96.6487 121.335 96.5527 121.127 96.4677L120.767 96.3155C120.639 96.2647 120.504 96.2261 120.365 96.1777C120.091 96.0762 119.785 96.0062 119.465 95.9216C118.067 95.602 116.616 95.5896 115.213 95.8854C114.907 95.9503 114.606 96.031 114.308 96.127C114.169 96.1729 114.032 96.2091 113.904 96.2575L113.541 96.4024C113.332 96.4846 113.127 96.5773 112.928 96.6803C112.773 96.7511 112.623 96.8318 112.478 96.922L112.194 97.079C112.129 97.1128 112.093 97.1298 112.091 97.1249C112.118 97.0984 112.149 97.0757 112.182 97.0573L112.452 96.8785C112.594 96.7832 112.743 96.6976 112.897 96.6223C113.094 96.511 113.298 96.4117 113.508 96.3251L113.871 96.1705C113.998 96.1197 114.138 96.0811 114.277 96.0328C114.576 95.9314 114.881 95.8467 115.189 95.779C116.608 95.4664 118.079 95.4796 119.492 95.8177C119.814 95.9047 120.122 95.9796 120.399 96.0859C120.538 96.1367 120.675 96.1777 120.8 96.2333L121.164 96.3928C121.371 96.4848 121.573 96.5872 121.77 96.6997C121.921 96.7786 122.067 96.8674 122.207 96.9654L122.477 97.1491C122.537 97.1805 122.578 97.2047 122.563 97.2095Z" fill="white"/>
<path d="M107.857 80.7957C107.803 80.8367 107.745 80.8723 107.684 80.902L107.184 81.1798C106.739 81.4215 106.094 81.7573 105.286 82.1633C103.675 82.9631 101.411 84.0577 98.7318 84.7391C97.4721 85.0572 96.1817 85.237 94.8834 85.2755C93.8237 85.3066 92.764 85.215 91.7253 85.0024C91.0251 84.8612 90.3404 84.6516 89.6808 84.3766C89.4403 84.2848 89.2743 84.1881 89.154 84.135C89.0917 84.1081 89.0314 84.0766 88.9736 84.0408C89.0394 84.0579 89.1031 84.0822 89.1636 84.1132C89.2887 84.1592 89.4619 84.2486 89.7 84.3331C90.3619 84.5892 91.0453 84.7849 91.7421 84.9179C92.7761 85.1163 93.829 85.1974 94.881 85.1595C96.1689 85.1146 97.4485 84.9323 98.6982 84.6158C101.361 83.9393 103.627 82.864 105.245 82.0835L107.17 81.1339L107.665 80.8778C107.727 80.8462 107.792 80.8188 107.857 80.7957Z" fill="white"/>
<path d="M59.5739 122.897L67.6148 123.25L67.242 131.811L59.2011 131.458L58.583 145.683L47.9998 145.219L48.6179 130.995L21.3157 129.796L21.3373 123.272L50.4411 81.2766L61.3659 81.7599L59.5739 122.897ZM31.9133 121.689L48.9907 122.438L50.1164 96.4921L49.859 96.393L48.8969 98.2415L31.9133 121.689Z" fill="#FFC6C6"/>
<g opacity="0.4">
<path d="M59.5739 122.897L67.6148 123.25L67.242 131.811L59.2011 131.458L58.583 145.683L47.9998 145.219L48.6179 130.995L21.3157 129.796L21.3373 123.272L50.4411 81.2766L61.3659 81.7599L59.5739 122.897ZM31.9133 121.689L48.9907 122.438L50.1164 96.4921L49.859 96.393L48.8969 98.2415L31.9133 121.689Z" fill="black"/>
</g>
<path d="M66.2942 123.192L74.335 123.545L73.9622 132.106L65.9214 131.753L65.3033 145.978L54.7201 145.514L55.3382 131.289L28.0239 130.081L28.0456 123.557L57.1542 81.5786L68.0813 82.0619L66.2942 123.192ZM38.6336 121.984L55.723 122.733L56.8487 96.7868L56.5914 96.6878L55.6292 98.5363L38.6336 121.984Z" fill="#FFC6C6"/>
<path d="M28.1923 124.811C28.1115 124.87 28.0244 124.919 27.9326 124.958C27.7618 125.045 27.5116 125.166 27.211 125.311C26.5928 125.604 25.7293 125.993 24.7648 126.403C23.8003 126.814 22.9224 127.162 22.2826 127.406C21.9627 127.527 21.7005 127.621 21.5201 127.684C21.4278 127.722 21.3319 127.752 21.2339 127.771C21.3183 127.716 21.4087 127.672 21.5033 127.638L22.2489 127.322L24.7071 126.28L27.1653 125.224L27.9133 124.905C28.0029 124.864 28.0964 124.833 28.1923 124.811Z" fill="#FFC6C6"/>
<path d="M32.108 117.582C31.9915 117.653 31.8701 117.717 31.7448 117.772C31.5043 117.888 31.1628 118.053 30.7346 118.256C29.8759 118.647 28.6853 119.171 27.3672 119.734C26.0492 120.297 24.8297 120.778 23.9614 121.121C23.5236 121.295 23.1676 121.431 22.9175 121.52C22.7918 121.574 22.6613 121.616 22.5278 121.646C22.648 121.58 22.7725 121.523 22.9006 121.474L23.9277 121.039L27.3215 119.606L30.7082 118.157L31.7352 117.719C31.8549 117.662 31.9798 117.616 32.108 117.582Z" fill="#FFC6C6"/>
<path d="M36.8875 111.123C36.7665 111.198 36.6393 111.262 36.5075 111.316C36.2669 111.432 35.8989 111.596 35.4515 111.799C34.5544 112.193 33.3108 112.717 31.9302 113.28C30.5496 113.843 29.2844 114.334 28.3728 114.679C27.9158 114.851 27.543 114.986 27.2856 115.076C27.1542 115.13 27.0182 115.172 26.8792 115.201C27.0052 115.136 27.1353 115.078 27.2688 115.03L28.3416 114.595L31.8821 113.162L35.4155 111.712L36.4882 111.275C36.6172 111.214 36.7507 111.163 36.8875 111.123Z" fill="#FFC6C6"/>
<path d="M56.0308 118.575C55.9489 118.632 55.861 118.679 55.7687 118.717C55.5979 118.802 55.3477 118.918 55.0351 119.058C54.4145 119.341 53.5486 119.715 52.5841 120.109C51.6196 120.503 50.7368 120.834 50.097 121.076C49.7747 121.192 49.515 121.283 49.3346 121.344C49.2419 121.379 49.146 121.406 49.0483 121.424C49.1321 121.371 49.2217 121.329 49.3153 121.298L50.0658 120.993L52.5384 119.998L55.0014 118.983L55.7494 118.676C55.8392 118.632 55.9336 118.598 56.0308 118.575Z" fill="#FFC6C6"/>
<path d="M55.2515 131.85C55.1728 131.907 55.0881 131.954 54.9989 131.992C54.8329 132.075 54.59 132.193 54.2893 132.333C53.688 132.616 52.8462 132.99 51.9153 133.382C50.9845 133.773 50.1234 134.107 49.5101 134.348C49.1974 134.464 48.9448 134.556 48.7692 134.614C48.6795 134.652 48.586 134.679 48.4902 134.696C48.5718 134.644 48.6589 134.601 48.75 134.568L49.4716 134.264L51.8769 133.271L54.2629 132.256L54.9845 131.951C55.0697 131.908 55.1592 131.874 55.2515 131.85Z" fill="#FFC6C6"/>
<path d="M55.1409 136.504C55.0662 136.559 54.9855 136.606 54.9003 136.644C54.7344 136.728 54.4914 136.844 54.1788 136.987C53.5774 137.267 52.7356 137.642 51.8023 138.036C50.8691 138.429 50.0128 138.76 49.3971 139.002C49.0868 139.118 48.8342 139.21 48.6562 139.27C48.5679 139.309 48.4749 139.336 48.3796 139.35C48.4619 139.3 48.5489 139.258 48.6394 139.224L49.361 138.92L51.7663 137.927L54.1547 136.912L54.8763 136.608C54.9598 136.562 55.0487 136.527 55.1409 136.504Z" fill="#FFC6C6"/>
<path d="M55.0305 141.155C54.9552 141.211 54.8747 141.258 54.79 141.298C54.624 141.382 54.3811 141.498 54.0684 141.639C53.4647 141.921 52.6252 142.296 51.692 142.687C50.7587 143.079 49.9025 143.412 49.2867 143.654C48.9764 143.77 48.7215 143.862 48.5459 143.92C48.4568 143.957 48.3641 143.984 48.2693 144.002C48.3507 143.949 48.4379 143.906 48.5291 143.874L49.2506 143.572L51.6559 142.576L54.0444 141.561L54.7659 141.257C54.8502 141.213 54.9389 141.179 55.0305 141.155Z" fill="#FFC6C6"/>
<path d="M56.156 113.66C56.0734 113.715 55.9856 113.763 55.8939 113.802C55.7231 113.887 55.4729 114.003 55.1723 114.143C54.5517 114.426 53.6858 114.8 52.7213 115.194C51.7568 115.588 50.874 115.919 50.2342 116.161C49.9119 116.277 49.6522 116.368 49.4718 116.426C49.3793 116.463 49.2834 116.491 49.1855 116.508C49.2688 116.455 49.3585 116.412 49.4525 116.38L50.203 116.076L52.6756 115.083L55.1386 114.068L55.8866 113.764C55.9725 113.719 56.0628 113.685 56.156 113.66Z" fill="#FFC6C6"/>
<path d="M56.2811 108.745C56.1984 108.801 56.1106 108.849 56.0189 108.888C55.8481 108.97 55.598 109.088 55.2853 109.228C54.6647 109.511 53.7988 109.886 52.8343 110.277C51.8698 110.669 50.9895 111.002 50.3473 111.244C50.025 111.36 49.7652 111.449 49.5848 111.509C49.4924 111.546 49.3965 111.574 49.2986 111.592C49.3826 111.537 49.4731 111.494 49.568 111.463L50.316 111.159L52.7886 110.166L55.2516 109.151L55.9997 108.847C56.0895 108.802 56.1839 108.768 56.2811 108.745Z" fill="#FFC6C6"/>
<path d="M56.4064 103.831C56.3309 103.884 56.2503 103.929 56.1658 103.966C56.0047 104.046 55.7666 104.157 55.4707 104.292C54.8766 104.563 54.054 104.923 53.1352 105.295C52.2164 105.667 51.3745 105.988 50.7636 106.208C50.4581 106.317 50.2104 106.404 50.042 106.45C49.9538 106.486 49.8618 106.512 49.7678 106.527C49.8486 106.476 49.935 106.435 50.0252 106.404L50.7468 106.114L53.1015 105.169L55.4491 104.203L56.1707 103.913C56.2459 103.877 56.325 103.849 56.4064 103.831Z" fill="#FFC6C6"/>
<path d="M56.9593 99.2368C56.5752 99.4457 56.1726 99.618 55.7566 99.7515C55.354 99.9237 54.936 100.057 54.5083 100.15C54.8923 99.9407 55.2949 99.7675 55.7109 99.6331C56.1134 99.4609 56.5314 99.3282 56.9593 99.2368Z" fill="#FFC6C6"/>
<path d="M41.6571 104.434C41.5358 104.507 41.4096 104.572 41.2794 104.628C41.0389 104.744 40.6709 104.906 40.2211 105.111C39.3263 105.505 38.0828 106.029 36.6998 106.592C35.3168 107.155 34.054 107.648 33.1448 107.991C32.6878 108.163 32.315 108.298 32.0576 108.387C31.9252 108.439 31.7893 108.482 31.6511 108.515C31.7758 108.446 31.9062 108.388 32.0408 108.341L33.1135 107.909L36.6541 106.466L40.1874 105.017L41.2578 104.579C41.3875 104.522 41.5209 104.474 41.6571 104.434Z" fill="#FFC6C6"/>
<path d="M46.429 97.7439C46.308 97.819 46.1809 97.8837 46.049 97.9372C45.8085 98.0532 45.4405 98.2175 44.9931 98.4205C44.0983 98.8119 42.8524 99.3387 41.4718 99.8992C40.0911 100.46 38.826 100.955 37.9168 101.298C37.4574 101.472 37.087 101.608 36.8272 101.697C36.6964 101.751 36.5612 101.793 36.4231 101.823C36.5478 101.756 36.6773 101.699 36.8103 101.651L37.8831 101.216L41.4237 99.7833L44.9594 98.3335L46.0298 97.8937C46.159 97.834 46.2924 97.7839 46.429 97.7439Z" fill="#FFC6C6"/>
<path d="M50.838 91.0552C50.716 91.1285 50.589 91.1931 50.4579 91.2485C50.2174 91.3645 49.8494 91.5264 49.402 91.7317C48.5073 92.1256 47.2613 92.6499 45.8807 93.2129C44.5001 93.7759 43.2349 94.2689 42.3257 94.612C41.8687 94.7835 41.4959 94.9189 41.2385 95.0083C41.1061 95.0601 40.9703 95.1029 40.832 95.1363C40.9567 95.0672 41.0871 95.009 41.2217 94.9623L42.2944 94.5298L45.835 93.097L49.3683 91.6472L50.4387 91.2098C50.567 91.1466 50.7006 91.0948 50.838 91.0552Z" fill="#FFC6C6"/>
<path d="M55.4273 84.6228C55.3049 84.6955 55.178 84.7601 55.0473 84.8161C54.8067 84.9321 54.4387 85.094 53.9913 85.2994C53.0942 85.6932 51.8506 86.2176 50.47 86.7806C49.0894 87.3436 47.8242 87.8365 46.9126 88.1796C46.4556 88.3512 46.0852 88.4865 45.8254 88.5759C45.6933 88.6286 45.5574 88.6714 45.4189 88.7039C45.5439 88.6355 45.6742 88.5773 45.8086 88.53L46.8813 88.0974L50.4195 86.6525L53.9529 85.2027L55.0256 84.7654C55.1558 84.708 55.2901 84.6603 55.4273 84.6228Z" fill="#FFC6C6"/>
<path d="M67.6027 94.4503C67.5625 94.5087 67.5157 94.5622 67.4632 94.6097C67.3272 94.7598 67.1817 94.9011 67.0278 95.0326C66.4668 95.5246 65.8372 95.9317 65.1589 96.2407C64.1473 96.6974 63.0543 96.944 61.9455 96.9656C61.2901 96.9778 60.636 96.9039 59.9996 96.7457C59.3204 96.571 58.6616 96.3239 58.0345 96.0088C56.7405 95.3757 55.5908 94.6291 54.4675 94.1096C53.483 93.6247 52.4114 93.3437 51.3166 93.2832C50.5789 93.2452 49.8428 93.3835 49.1687 93.6867C48.987 93.7723 48.8124 93.8725 48.6467 93.9863C48.5902 94.0284 48.5307 94.0663 48.4688 94.0999C48.5201 94.0518 48.5747 94.0073 48.6323 93.967C48.7938 93.8437 48.9661 93.7353 49.147 93.6432C49.8217 93.3195 50.5646 93.1652 51.3118 93.1938C52.4221 93.2467 53.5099 93.5271 54.5084 94.0177C55.6437 94.5372 56.7982 95.2815 58.0802 95.9097C58.7012 96.2185 59.3525 96.4615 60.0237 96.6346C60.6489 96.7911 61.2916 96.8659 61.9359 96.8569C63.7824 96.8314 65.5647 96.1723 66.9869 94.9891C67.1914 94.8248 67.3357 94.6798 67.4367 94.5856C67.4884 94.5362 67.5439 94.4909 67.6027 94.4503Z" fill="white"/>
<path d="M64.2547 82.5039C64.1577 82.5715 64.0556 82.6313 63.9492 82.6827C63.7495 82.7914 63.4513 82.9243 63.0761 83.0935C62.6363 83.2793 62.1866 83.4406 61.7291 83.5767C60.6083 83.9129 59.449 84.1029 58.2799 84.1422C57.7987 84.1598 57.3169 84.1501 56.8368 84.1132C56.4303 84.0818 56.1152 84.0431 55.8747 84.002C55.7574 83.9888 55.6415 83.9654 55.5283 83.9319C55.6466 83.9278 55.765 83.9351 55.8819 83.9537C56.1056 83.9803 56.4327 84.0044 56.844 84.0238C57.2553 84.0431 57.7315 84.0479 58.2655 84.0238C58.8439 83.995 59.4204 83.9353 59.9925 83.845C60.5599 83.747 61.1219 83.6196 61.6762 83.4632C62.1885 83.3134 62.6383 83.1587 63.0207 83.0089C63.4032 82.8591 63.699 82.731 63.9059 82.6368C64.0177 82.5815 64.1344 82.537 64.2547 82.5039Z" fill="white"/>
<path d="M47.1769 109.34C47.0977 109.266 47.0252 109.185 46.9605 109.098L46.3928 108.417C45.7593 107.676 45.0864 106.97 44.3772 106.302C43.9921 105.935 43.5688 105.611 43.1144 105.336C42.7428 105.112 42.3362 104.954 41.9118 104.867C41.518 104.796 41.1149 104.796 40.7212 104.867C40.7212 104.867 40.7476 104.853 40.8006 104.836C40.8788 104.81 40.9594 104.791 41.0411 104.78C41.3365 104.73 41.6381 104.73 41.9334 104.78C42.3717 104.857 42.7929 105.011 43.177 105.237C43.6439 105.513 44.0774 105.843 44.4686 106.22C45.1829 106.89 45.85 107.608 46.465 108.371C46.7055 108.663 46.8835 108.907 47.0038 109.076C47.0707 109.158 47.1287 109.246 47.1769 109.34Z" fill="white"/>
<path d="M66.364 116.639C66.364 116.639 66.3328 116.668 66.2702 116.712C66.2077 116.755 66.1139 116.825 65.984 116.898C65.6229 117.11 65.2438 117.291 64.8511 117.437C63.5504 117.93 62.1371 118.043 60.7749 117.763C59.4127 117.483 58.1574 116.821 57.1542 115.854C56.8501 115.567 56.5731 115.252 56.3268 114.914C56.2378 114.796 56.1801 114.696 56.1368 114.631C56.0935 114.566 56.0743 114.53 56.0791 114.527C56.1809 114.641 56.2764 114.761 56.3653 114.885C56.6253 115.207 56.9091 115.509 57.2144 115.789C58.2184 116.721 59.4571 117.359 60.7965 117.635C62.1358 117.91 63.5247 117.813 64.8126 117.352C65.2027 117.216 65.5815 117.05 65.9455 116.854C66.081 116.775 66.2207 116.703 66.364 116.639Z" fill="white"/>
<path d="M73.3704 131.939C73.3704 131.939 73.3464 131.903 73.3031 131.826C73.2598 131.748 73.1925 131.637 73.1107 131.492C72.8694 131.062 72.5943 130.653 72.2881 130.267L71.961 129.88L71.7854 129.67L71.5809 129.47L71.148 129.04L70.6429 128.619C69.8362 127.975 68.9461 127.444 67.9971 127.041C66.8514 126.555 65.631 126.269 64.3892 126.198C62.9597 126.121 61.5303 126.352 60.1968 126.875C58.7897 127.43 57.4307 128.269 55.9924 129.081C55.2639 129.504 54.5096 129.88 53.7338 130.207C52.9299 130.547 52.082 130.77 51.2155 130.871C50.3484 130.959 49.4729 130.906 48.6226 130.714C47.7995 130.532 46.9987 130.261 46.2342 129.905C44.802 129.209 43.4393 128.377 42.1644 127.421C40.9305 126.539 39.7592 125.686 38.6022 125.004C37.5386 124.35 36.3855 123.855 35.1795 123.535C34.1802 123.288 33.1454 123.219 32.1224 123.332C31.3501 123.413 30.5982 123.631 29.9024 123.977C29.467 124.201 29.0627 124.482 28.6997 124.811L28.4207 125.072C28.3606 125.132 28.3269 125.161 28.3269 125.161C28.3269 125.161 28.3534 125.128 28.4135 125.062L28.6757 124.78C29.0364 124.441 29.4409 124.152 29.8783 123.922C30.5776 123.564 31.3354 123.337 32.1152 123.25C33.1467 123.129 34.1915 123.192 35.2012 123.436C36.4168 123.754 37.5802 124.248 38.6551 124.9C39.8265 125.582 40.9955 126.432 42.2318 127.317C43.5019 128.266 44.859 129.091 46.2847 129.781C47.0401 130.137 47.8322 130.409 48.6467 130.591C49.4852 130.779 50.3484 130.831 51.2035 130.746C52.0565 130.646 52.8913 130.427 53.6833 130.093C54.4541 129.767 55.2043 129.395 55.9298 128.977C57.373 128.167 58.7296 127.326 60.1487 126.768C60.4988 126.63 60.857 126.514 61.2214 126.42C61.4018 126.374 61.5798 126.319 61.7578 126.283L62.2966 126.193C62.989 126.09 63.6902 126.057 64.3892 126.097C65.6459 126.172 66.8803 126.464 68.038 126.962C68.9877 127.374 69.8776 127.914 70.6838 128.566C70.8569 128.713 71.0253 128.858 71.1889 128.994L71.6194 129.431L71.8215 129.634C71.8816 129.706 71.9417 129.777 71.997 129.847C72.1125 129.984 72.2207 130.115 72.3218 130.24C72.6255 130.63 72.8951 131.046 73.1275 131.482C73.2061 131.631 73.2662 131.744 73.3079 131.823C73.3536 131.898 73.3704 131.939 73.3704 131.939Z" fill="white"/>
<path d="M66.1018 142.032C66.0624 142.048 66.0212 142.059 65.9791 142.064L65.6231 142.131C65.4363 142.169 65.2476 142.197 65.0579 142.216C64.8366 142.238 64.5768 142.274 64.3026 142.281L63.8601 142.3C63.7085 142.3 63.5474 142.3 63.379 142.3C63.0495 142.3 62.6959 142.269 62.3255 142.24C61.5227 142.152 60.7286 141.997 59.9515 141.776C59.1781 141.542 58.4251 141.245 57.7002 140.887C57.373 140.711 57.058 140.549 56.7789 140.367C56.6394 140.28 56.4999 140.201 56.3724 140.126L56.0117 139.872C55.7711 139.715 55.5859 139.548 55.4103 139.408C55.2586 139.291 55.1133 139.166 54.975 139.034C54.8716 138.932 54.7826 138.85 54.7128 138.792C54.6802 138.764 54.6511 138.733 54.6262 138.698C54.6635 138.719 54.6982 138.744 54.7296 138.773L55.0087 139.014C55.1265 139.116 55.2732 139.239 55.4536 139.369C55.634 139.5 55.8265 139.664 56.0622 139.816L56.4254 140.058C56.5528 140.143 56.6923 140.22 56.8319 140.3C57.1109 140.476 57.426 140.633 57.7531 140.805C59.1916 141.517 60.7432 141.971 62.3375 142.146C62.7055 142.177 63.0591 142.216 63.3838 142.218C63.5474 142.218 63.7061 142.233 63.8649 142.218H64.3026C64.5816 142.218 64.8342 142.187 65.0555 142.172C65.2768 142.158 65.4668 142.134 65.6207 142.11L65.9791 142.066C66.0181 142.049 66.0594 142.037 66.1018 142.032Z" fill="white"/>
<path d="M164.025 122.996L172.035 122.211L172.865 130.738L164.855 131.526L166.233 145.695L155.698 146.732L154.327 132.563L127.109 135.235L126.217 128.776L149.151 83.0863L160.035 82.0159L164.025 122.996ZM136.466 125.705L153.488 124.033L150.972 98.1785L150.702 98.1181L150.015 100.085L136.466 125.705Z" fill="#FFC6C6"/>
<g opacity="0.4">
<path d="M164.025 122.996L172.035 122.211L172.865 130.738L164.855 131.526L166.233 145.695L155.698 146.732L154.327 132.563L127.109 135.235L126.217 128.776L149.151 83.0863L160.035 82.0159L164.025 122.996ZM136.466 125.705L153.488 124.033L150.972 98.1785L150.702 98.1181L150.015 100.085L136.466 125.705Z" fill="black"/>
</g>
<path d="M170.724 122.339L178.733 121.552L179.566 130.081L171.554 130.871L172.934 145.043L162.397 146.077L161.019 131.908L133.808 134.576L132.92 128.119L155.854 82.4293L166.738 81.3589L170.724 122.339ZM143.167 125.046L160.189 123.381L157.673 97.5264L157.401 97.4636L156.716 99.4304L143.167 125.046Z" fill="#FFC6C6"/>
<path d="M133.223 129.327C133.15 129.396 133.069 129.457 132.983 129.508C132.826 129.62 132.595 129.774 132.309 129.963C131.734 130.34 130.936 130.847 130.039 131.388C129.141 131.93 128.321 132.401 127.72 132.732C127.422 132.896 127.176 133.029 126.998 133.116C126.912 133.167 126.821 133.209 126.727 133.242C126.8 133.176 126.88 133.119 126.967 133.072L127.662 132.654L129.962 131.28L132.247 129.888L132.942 129.467C133.03 129.41 133.124 129.363 133.223 129.327Z" fill="#FFC6C6"/>
<path d="M136.086 121.609C135.981 121.698 135.87 121.779 135.754 121.851C135.537 121.998 135.217 122.209 134.82 122.465C134.027 122.975 132.92 123.673 131.694 124.398C130.467 125.123 129.336 125.802 128.516 126.266C128.107 126.507 127.773 126.684 127.54 126.807C127.421 126.876 127.298 126.937 127.172 126.988C127.28 126.904 127.395 126.829 127.516 126.763L128.478 126.188L131.636 124.291L134.784 122.38L135.746 121.803C135.854 121.73 135.968 121.665 136.086 121.609Z" fill="#FFC6C6"/>
<path d="M139.915 114.547C139.805 114.636 139.688 114.717 139.566 114.789C139.326 114.938 139.003 115.151 138.587 115.409C137.755 115.924 136.596 116.618 135.306 117.372C134.017 118.125 132.841 118.79 131.982 119.273C131.554 119.515 131.205 119.696 130.962 119.822C130.839 119.892 130.71 119.952 130.578 120.003C130.692 119.919 130.813 119.844 130.938 119.778L131.939 119.196L135.244 117.277L138.541 115.344L139.54 114.76C139.659 114.679 139.785 114.608 139.915 114.547Z" fill="#FFC6C6"/>
<path d="M159.912 119.22C159.839 119.287 159.758 119.346 159.672 119.396C159.515 119.505 159.282 119.655 158.996 119.838C158.419 120.206 157.615 120.699 156.716 121.225C155.816 121.752 154.989 122.206 154.385 122.525C154.084 122.687 153.839 122.813 153.663 122.897C153.577 122.947 153.486 122.988 153.392 123.018C153.466 122.955 153.546 122.9 153.632 122.854L154.332 122.448L156.639 121.114L158.936 119.763L159.636 119.355C159.722 119.299 159.815 119.254 159.912 119.22Z" fill="#FFC6C6"/>
<path d="M160.999 132.471C160.927 132.539 160.846 132.598 160.759 132.647C160.607 132.753 160.384 132.903 160.105 133.087C159.549 133.449 158.772 133.94 157.901 134.462C157.031 134.984 156.23 135.428 155.645 135.752C155.354 135.912 155.116 136.037 154.95 136.122C154.867 136.172 154.778 136.212 154.686 136.24C154.76 136.178 154.84 136.124 154.926 136.078L155.602 135.675L157.836 134.353L160.059 133.01L160.735 132.606C160.817 132.55 160.906 132.505 160.999 132.471Z" fill="#FFC6C6"/>
<path d="M161.543 137.093C161.471 137.162 161.39 137.221 161.303 137.27C161.151 137.376 160.928 137.526 160.649 137.709C160.093 138.072 159.316 138.562 158.445 139.082C157.575 139.601 156.774 140.048 156.189 140.375C155.898 140.534 155.66 140.66 155.494 140.744C155.411 140.794 155.322 140.834 155.229 140.863C155.304 140.8 155.384 140.746 155.47 140.701L156.146 140.297L158.38 138.976L160.603 137.632L161.279 137.229C161.361 137.173 161.45 137.128 161.543 137.093Z" fill="#FFC6C6"/>
<path d="M162.082 141.716C162.009 141.784 161.928 141.843 161.841 141.892C161.69 141.998 161.466 142.148 161.187 142.329C160.632 142.694 159.855 143.185 158.984 143.704C158.113 144.224 157.312 144.671 156.728 144.997C156.437 145.156 156.199 145.282 156.033 145.367C155.949 145.415 155.86 145.455 155.768 145.485C155.842 145.423 155.923 145.368 156.009 145.323L156.684 144.92L158.919 143.598L161.141 142.254L161.817 141.851C161.9 141.795 161.989 141.75 162.082 141.716Z" fill="#FFC6C6"/>
<path d="M159.347 114.334C159.273 114.402 159.193 114.462 159.107 114.513C158.948 114.619 158.717 114.771 158.428 114.955C157.851 115.32 157.048 115.815 156.148 116.34C155.249 116.864 154.421 117.321 153.82 117.642C153.517 117.801 153.271 117.929 153.098 118.014C153.012 118.064 152.921 118.104 152.826 118.135C152.901 118.072 152.982 118.017 153.067 117.971L153.764 117.565L156.074 116.231L158.371 114.878L159.068 114.472C159.156 114.416 159.25 114.37 159.347 114.334Z" fill="#FFC6C6"/>
<path d="M158.782 109.45C158.709 109.519 158.628 109.579 158.541 109.629C158.383 109.736 158.152 109.885 157.863 110.069C157.288 110.436 156.485 110.932 155.583 111.456C154.681 111.98 153.858 112.437 153.255 112.758C152.954 112.918 152.709 113.046 152.533 113.13C152.448 113.181 152.356 113.221 152.261 113.249C152.335 113.186 152.416 113.132 152.502 113.087L153.199 112.679L155.508 111.347L157.805 109.994L158.503 109.586C158.591 109.531 158.685 109.486 158.782 109.45Z" fill="#FFC6C6"/>
<path d="M158.219 104.567C158.15 104.632 158.075 104.689 157.993 104.736C157.841 104.84 157.62 104.978 157.346 105.159C156.8 105.509 156.035 105.981 155.181 106.481C154.327 106.981 153.536 107.416 152.961 107.72L152.276 108.073C152.193 108.121 152.106 108.159 152.016 108.187C152.091 108.126 152.171 108.074 152.256 108.03L152.92 107.641L155.121 106.372L157.307 105.082L157.974 104.695C158.051 104.644 158.133 104.601 158.219 104.567Z" fill="#FFC6C6"/>
<path d="M158.123 99.9424C157.772 100.205 157.397 100.433 157.002 100.624C156.626 100.85 156.231 101.042 155.821 101.196C156.172 100.934 156.547 100.705 156.942 100.515C157.317 100.288 157.713 100.096 158.123 99.9424Z" fill="#FFC6C6"/>
<path d="M143.701 107.25C143.592 107.339 143.476 107.42 143.354 107.491C143.114 107.641 142.789 107.854 142.373 108.112C141.543 108.627 140.384 109.32 139.095 110.074C137.806 110.828 136.629 111.493 135.771 111.961C135.343 112.203 134.991 112.384 134.748 112.51C134.625 112.579 134.497 112.64 134.366 112.691C134.48 112.606 134.601 112.531 134.727 112.466L135.727 111.884L139.032 109.965L142.327 108.032L143.328 107.448C143.447 107.373 143.572 107.306 143.701 107.25Z" fill="#FFC6C6"/>
<path d="M147.489 99.9424C147.379 100.032 147.263 100.113 147.14 100.184C146.9 100.334 146.578 100.546 146.161 100.805C145.329 101.32 144.17 102.013 142.883 102.767C141.596 103.521 140.415 104.185 139.557 104.654C139.128 104.896 138.78 105.077 138.537 105.203C138.413 105.273 138.285 105.333 138.152 105.384C138.266 105.3 138.387 105.225 138.513 105.159L139.513 104.577L142.818 102.658L146.116 100.725L147.116 100.141C147.235 100.065 147.36 99.9987 147.489 99.9424Z" fill="#FFC6C6"/>
<path d="M150.919 92.7058C150.809 92.7953 150.693 92.8761 150.57 92.9474C150.33 93.0973 150.007 93.3099 149.591 93.5684C148.759 94.0831 147.6 94.7766 146.311 95.5305C145.021 96.2844 143.845 96.9488 142.986 97.4176C142.558 97.6592 142.21 97.8405 141.967 97.9661C141.843 98.0356 141.714 98.0962 141.582 98.1473C141.696 98.0634 141.817 97.9883 141.943 97.9226L142.943 97.3403L146.248 95.4217L149.546 93.4887L150.544 92.9039C150.663 92.828 150.789 92.7617 150.919 92.7058Z" fill="#FFC6C6"/>
<path d="M154.568 85.6863C154.458 85.7757 154.341 85.8565 154.219 85.9279C153.99 86.0777 153.656 86.2904 153.24 86.5489C152.408 87.0636 151.248 87.7571 149.959 88.5134C148.67 89.2697 147.494 89.9293 146.635 90.4005C146.207 90.6421 145.858 90.8209 145.615 90.9466C145.492 91.0173 145.363 91.0787 145.23 91.1302C145.344 91.0438 145.464 90.9678 145.591 90.9031L146.592 90.3232L149.897 88.3901L153.194 86.4571L154.193 85.8723C154.313 85.8011 154.438 85.7389 154.568 85.6863Z" fill="#FFC6C6"/>
<path d="M167.992 93.699C167.959 93.7611 167.92 93.8202 167.876 93.8754C167.763 94.0444 167.638 94.2058 167.503 94.3586C167.017 94.9272 166.45 95.4206 165.82 95.8229C164.884 96.4229 163.836 96.8258 162.741 97.0069C162.094 97.1108 161.437 97.1295 160.786 97.0625C160.088 96.9853 159.401 96.8338 158.736 96.6106C157.365 96.1684 156.124 95.5909 154.938 95.2333C153.896 94.8964 152.797 94.7724 151.706 94.8685C150.97 94.9359 150.26 95.1768 149.635 95.5716C149.465 95.6826 149.305 95.8062 149.154 95.9413C149.105 95.9922 149.052 96.0384 148.995 96.079C149.038 96.0234 149.085 95.9717 149.137 95.9244C149.279 95.7794 149.435 95.6476 149.601 95.5305C150.226 95.114 150.943 94.8569 151.689 94.7815C152.795 94.6648 153.913 94.7766 154.974 95.1101C156.177 95.4653 157.418 96.038 158.775 96.4801C159.433 96.6995 160.111 96.8501 160.8 96.9296C161.441 96.9954 162.088 96.9784 162.724 96.8788C163.806 96.706 164.842 96.3174 165.772 95.7359C166.395 95.3427 166.962 94.8645 167.455 94.3151C167.593 94.1676 167.722 94.0127 167.843 93.8512C167.889 93.797 167.938 93.7461 167.992 93.699Z" fill="white"/>
<path d="M163.003 82.3445C162.918 82.426 162.825 82.4996 162.727 82.5644C162.544 82.7021 162.27 82.8833 161.921 83.0935C161.512 83.3398 161.089 83.5633 160.656 83.7629C160.123 84.0047 159.577 84.2152 159.02 84.3935C158.461 84.5663 157.892 84.7059 157.317 84.8115C156.847 84.8942 156.374 84.9523 155.898 84.9855C155.491 85.0121 155.162 85.0169 154.936 85.0097C154.818 85.0147 154.699 85.0074 154.582 84.9879C154.698 84.968 154.816 84.9591 154.933 84.9613C155.16 84.9613 155.487 84.9323 155.896 84.8961C156.304 84.8599 156.776 84.7946 157.3 84.698C157.868 84.5858 158.43 84.4446 158.984 84.2751C159.537 84.0982 160.079 83.8917 160.61 83.6565C161.091 83.4367 161.526 83.2192 161.877 83.0162C162.229 82.8132 162.51 82.6465 162.7 82.533C162.795 82.4614 162.897 82.3983 163.003 82.3445Z" fill="white"/>
<path d="M149.853 111.326C149.767 111.262 149.687 111.191 149.613 111.113L148.954 110.521C148.224 109.877 147.459 109.273 146.664 108.711C146.231 108.399 145.766 108.135 145.276 107.924C144.877 107.755 144.453 107.657 144.021 107.631C143.621 107.615 143.221 107.669 142.84 107.791C142.84 107.791 142.864 107.771 142.914 107.747C142.987 107.712 143.063 107.683 143.14 107.66C143.427 107.571 143.726 107.531 144.025 107.542C144.47 107.556 144.908 107.649 145.319 107.817C145.82 108.025 146.294 108.29 146.734 108.608C147.535 109.17 148.297 109.788 149.014 110.456C149.288 110.712 149.495 110.939 149.647 111.079C149.725 111.153 149.794 111.236 149.853 111.326Z" fill="white"/>
<path d="M169.87 115.844C169.87 115.844 169.846 115.876 169.788 115.929C169.731 115.982 169.649 116.062 169.531 116.151C169.206 116.414 168.857 116.646 168.49 116.845C167.271 117.513 165.889 117.823 164.503 117.737C163.117 117.652 161.784 117.175 160.656 116.361C160.315 116.12 159.998 115.847 159.708 115.547C159.602 115.443 159.53 115.354 159.467 115.305C159.439 115.277 159.414 115.244 159.395 115.209C159.395 115.209 159.516 115.32 159.73 115.523C160.03 115.806 160.352 116.065 160.692 116.298C161.815 117.081 163.13 117.54 164.495 117.625C165.859 117.71 167.221 117.419 168.432 116.782C168.799 116.592 169.151 116.374 169.485 116.129C169.608 116.027 169.737 115.932 169.87 115.844Z" fill="white"/>
<path d="M178.952 129.999C178.92 129.969 178.889 129.938 178.861 129.905C178.803 129.834 178.726 129.733 178.62 129.602C178.321 129.212 177.991 128.845 177.634 128.505L177.254 128.167L177.052 127.986L176.812 127.814L176.331 127.452L175.77 127.106C174.884 126.583 173.93 126.183 172.937 125.918C171.733 125.595 170.482 125.482 169.24 125.584C167.814 125.711 166.431 126.142 165.185 126.848C163.869 127.597 162.642 128.619 161.336 129.627C160.673 130.147 159.979 130.625 159.258 131.059C158.508 131.51 157.698 131.851 156.853 132.072C156.006 132.279 155.131 132.35 154.262 132.282C153.421 132.212 152.589 132.05 151.782 131.799C150.267 131.314 148.802 130.684 147.407 129.917C146.06 129.216 144.788 128.539 143.542 128.029C142.392 127.534 141.177 127.208 139.934 127.063C138.91 126.963 137.876 127.045 136.879 127.305C136.126 127.493 135.413 127.816 134.772 128.257C134.371 128.541 134.007 128.876 133.69 129.252L133.461 129.561C133.409 129.631 133.38 129.665 133.38 129.665C133.38 129.665 133.401 129.627 133.449 129.554L133.671 129.238C133.98 128.85 134.341 128.507 134.743 128.218C135.384 127.764 136.102 127.431 136.862 127.237C137.867 126.97 138.91 126.884 139.944 126.983C141.192 127.128 142.413 127.453 143.568 127.95C144.824 128.457 146.101 129.134 147.448 129.83C148.838 130.59 150.296 131.216 151.804 131.7C152.603 131.944 153.425 132.1 154.257 132.166C155.114 132.234 155.975 132.164 156.809 131.958C157.64 131.739 158.436 131.403 159.174 130.96C159.892 130.53 160.582 130.055 161.24 129.537C162.548 128.534 163.782 127.51 165.11 126.756C165.438 126.57 165.777 126.405 166.125 126.261C166.296 126.188 166.462 126.111 166.635 126.048L167.154 125.884C167.826 125.683 168.516 125.551 169.213 125.49C170.468 125.388 171.731 125.504 172.946 125.833C173.946 126.103 174.904 126.51 175.794 127.041L176.355 127.392L176.836 127.764L177.076 127.935L177.278 128.121L177.656 128.464C178.006 128.81 178.328 129.183 178.618 129.581C178.714 129.716 178.791 129.822 178.844 129.892L178.952 129.999Z" fill="white"/>
<path d="M173.165 141.02C173.129 141.039 173.09 141.056 173.05 141.068L172.708 141.186C172.528 141.25 172.345 141.304 172.16 141.348C171.941 141.401 171.698 141.474 171.419 141.52L170.986 141.602C170.835 141.629 170.676 141.643 170.505 141.665C170.178 141.713 169.824 141.73 169.452 141.754C168.648 141.779 167.843 141.737 167.046 141.631C166.248 141.509 165.461 141.32 164.694 141.066C164.343 140.94 164.009 140.824 163.708 140.684C163.556 140.616 163.407 140.558 163.27 140.49L162.878 140.29C162.623 140.167 162.409 140.029 162.217 139.915C162.051 139.821 161.89 139.718 161.736 139.606L161.44 139.396C161.404 139.374 161.37 139.347 161.341 139.316C161.381 139.33 161.419 139.35 161.454 139.374L161.762 139.565C161.892 139.65 162.055 139.751 162.243 139.855C162.431 139.959 162.652 140.097 162.907 140.21L163.301 140.401C163.438 140.469 163.588 140.524 163.739 140.59C164.04 140.722 164.372 140.831 164.72 140.957C165.489 141.202 166.277 141.385 167.075 141.503C167.868 141.611 168.669 141.655 169.468 141.636C169.836 141.614 170.19 141.604 170.512 141.558C170.674 141.539 170.832 141.527 170.993 141.503L171.426 141.43C171.703 141.392 171.946 141.324 172.165 141.278C172.384 141.232 172.566 141.182 172.716 141.136L173.064 141.041C173.097 141.031 173.131 141.023 173.165 141.02Z" fill="white"/>
<path d="M114.234 129.588C114.294 129.546 114.363 129.518 114.436 129.508C114.631 129.466 114.833 129.472 115.025 129.528C115.307 129.608 115.571 129.744 115.802 129.926C115.941 130.03 116.07 130.146 116.189 130.272C116.309 130.42 116.411 130.582 116.492 130.755C116.777 131.331 117.014 131.93 117.202 132.546C117.274 132.787 117.322 132.973 117.353 133.109C117.376 133.177 117.386 133.249 117.385 133.321C117.368 133.321 117.281 133.034 117.118 132.572C116.905 131.971 116.659 131.383 116.379 130.811C116.303 130.65 116.208 130.5 116.095 130.364C115.983 130.242 115.862 130.13 115.732 130.028C115.517 129.851 115.273 129.714 115.011 129.622C114.758 129.547 114.491 129.535 114.234 129.588Z" fill="#EB996E"/>
<path d="M116.103 136.141C116.047 136.057 116.001 135.967 115.965 135.873L115.626 135.133C115.34 134.508 114.922 133.652 114.522 132.678C114.362 132.215 114.149 131.772 113.89 131.357C113.666 131.031 113.357 130.773 112.997 130.61C112.758 130.494 112.492 130.446 112.228 130.472C112.04 130.497 111.944 130.547 111.939 130.535C111.934 130.523 111.961 130.518 112.006 130.494C112.073 130.461 112.144 130.437 112.218 130.424C112.494 130.377 112.778 130.413 113.033 130.528C113.415 130.688 113.744 130.953 113.984 131.292C114.254 131.71 114.473 132.159 114.638 132.63C115.035 133.597 115.441 134.462 115.708 135.097C115.84 135.414 115.949 135.675 116.011 135.854C116.052 135.946 116.083 136.042 116.103 136.141Z" fill="#EB996E"/>
<path d="M108.978 132.413C109.054 132.359 109.134 132.313 109.219 132.275L109.912 131.939C110.061 131.869 110.217 131.792 110.393 131.715C110.59 131.635 110.804 131.604 111.016 131.623C111.251 131.642 111.478 131.725 111.67 131.864C111.863 132.023 112.026 132.217 112.151 132.435C112.283 132.652 112.391 132.877 112.488 133.085C112.584 133.292 112.697 133.493 112.803 133.681C113.012 134.056 113.209 134.392 113.353 134.687C113.472 134.917 113.575 135.155 113.661 135.399C113.7 135.486 113.726 135.578 113.738 135.672C113.719 135.672 113.589 135.298 113.276 134.728C113.12 134.443 112.918 134.114 112.702 133.739C112.593 133.551 112.485 133.35 112.379 133.14C112.273 132.93 112.172 132.71 112.045 132.5C111.928 132.296 111.778 132.114 111.6 131.961C111.428 131.829 111.225 131.746 111.011 131.719C110.816 131.698 110.619 131.723 110.436 131.792C110.263 131.862 110.097 131.939 109.955 132L109.245 132.321C109.16 132.362 109.071 132.393 108.978 132.413Z" fill="#EB996E"/>
<path d="M109.315 131.13C109.251 131.183 109.18 131.228 109.103 131.263C108.964 131.342 108.759 131.453 108.504 131.589C107.997 131.859 107.29 132.227 106.506 132.623C105.722 133.019 105.01 133.372 104.49 133.623L103.874 133.913C103.798 133.954 103.718 133.984 103.634 134.003C103.699 133.949 103.771 133.904 103.848 133.867C103.987 133.79 104.192 133.679 104.447 133.544C104.954 133.273 105.661 132.908 106.446 132.509C107.23 132.111 107.942 131.76 108.459 131.511C108.719 131.386 108.94 131.287 109.077 131.219C109.152 131.178 109.232 131.148 109.315 131.13Z" fill="#EB996E"/>
<path d="M215.775 73.6909C215.775 73.6909 200.598 84.0503 200.406 87.5717C200.213 91.0931 199.84 100.861 197.875 102.624C195.909 104.388 192.212 107.312 192.212 109.451C192.212 111.59 192.987 114.338 192.987 115.316C192.987 116.295 190.654 118.053 190.456 120.203C190.258 122.353 191.628 126.461 191.628 127.633C191.628 128.805 188.514 130.761 188.123 132.32C187.732 133.879 188.689 134.863 187.732 136.428C186.775 137.992 184.816 140.535 184.816 140.535C184.816 140.535 188.316 144.83 200.576 146.793C212.836 148.755 230.544 149.336 237.951 147.771C245.358 146.207 259.572 136.632 259.572 136.632C259.572 136.632 258.207 135.853 258.207 133.703C258.207 131.552 260.931 128.23 259.572 125.687C258.212 123.144 255.092 122.951 255.092 119.236C255.092 115.521 256.457 116.107 255.092 113.371C253.727 110.634 250.811 110.247 250.426 108.097C250.041 105.947 252.567 103.21 250.992 99.8824C249.418 96.5544 246.128 94.1935 245.545 92.6518C244.961 91.1102 246.711 86.7866 244.763 84.2494C242.815 81.7122 229.394 73.8843 224.915 72.9115C220.435 71.9387 215.775 73.6909 215.775 73.6909Z" fill="#263238" stroke="#263238" stroke-linecap="round" stroke-linejoin="round"/>
<path d="M240.924 112.95C239.474 122.268 231.942 128.662 231.942 128.662V133.612L226.33 132.952L212.241 131.285V118.77C211.271 118.745 210.304 118.648 209.347 118.479C207.609 118.189 205.576 114.992 207.315 108.877C209.053 102.761 212.241 110.014 212.241 110.014C212.241 110.014 213.374 110.304 217.457 102.448C221.54 94.5919 223.539 83.8513 223.539 83.8513L238.896 92.2936C238.896 92.2936 242.368 103.637 240.924 112.95Z" fill="white" stroke="#263238" stroke-linecap="round" stroke-linejoin="round"/>
<path d="M234.026 100.815C234.026 100.815 233.086 103.512 233.086 104.325C233.086 105.139 235.232 114.036 235.504 114.565C235.776 115.094 230.266 115.914 230.266 115.914" stroke="#263238" stroke-linecap="round" stroke-linejoin="round"/>
<path d="M235.368 118.087C235.368 118.087 229.864 120.243 226.642 117.006" stroke="#263238" stroke-linecap="round" stroke-linejoin="round"/>
<path d="M228.25 98.6422C228.25 98.6422 223.55 97.8287 221.132 100.798" stroke="#263238" stroke-linecap="round" stroke-linejoin="round"/>
<path d="M235.221 98.9268C235.221 98.9268 238.579 97.9824 239.921 100.144" stroke="#263238" stroke-linecap="round" stroke-linejoin="round"/>
<path d="M226.376 104.929C226.376 106.066 225.843 106.994 225.186 106.994C224.53 106.994 224.003 106.066 224.003 104.929C224.003 103.791 224.535 102.864 225.186 102.864C225.838 102.864 226.376 103.791 226.376 104.929Z" fill="#263238"/>
<path d="M238.777 104.929C238.777 106.066 238.245 106.994 237.594 106.994C236.943 106.994 236.405 106.066 236.405 104.929C236.405 103.791 236.937 102.864 237.594 102.864C238.251 102.864 238.777 103.791 238.777 104.929Z" fill="#263238"/>
<path d="M231.942 128.662V133.612L226.33 132.952C222.162 129.413 218.3 123.053 218.017 122.575C222.763 129.692 231.942 128.662 231.942 128.662Z" fill="#263238" stroke="#263238" stroke-linecap="round" stroke-linejoin="round"/>
<path d="M248.206 144.392C248.206 144.392 264.323 202.902 265.495 208.767C266.667 214.632 269.578 240.727 269.578 240.727L270.456 248.35H260.829L262.873 237.206L251.491 199.09C251.491 199.09 247.402 170.942 247.108 163.023C246.813 155.104 248.206 144.392 248.206 144.392Z" fill="white" stroke="#263238" stroke-linecap="round" stroke-linejoin="round"/>
<path d="M248.206 144.392C248.206 144.392 246.813 155.104 247.074 163.023C247.334 170.942 251.457 199.09 251.457 199.09L255.964 214.126L266.101 212.516C265.874 210.94 265.665 209.643 265.495 208.79C264.323 202.902 248.206 144.392 248.206 144.392Z" fill="#D75A8B" stroke="#263238" stroke-linecap="round" stroke-linejoin="round"/>
<path d="M211.788 143.38L225.798 158.626L236.597 143.084L230.759 138.982L214.999 138.1L211.788 143.38Z" fill="white" stroke="#263238" stroke-linecap="round" stroke-linejoin="round"/>
<path d="M229.881 141.622L239.225 144.255L252.94 226.357L255.279 248.64H193.106L200.111 147.777L213.051 140.154L229.881 141.622Z" fill="#FFE0E0" stroke="#263238" stroke-linecap="round" stroke-linejoin="round"/>
<path d="M217.043 178.565L238.93 179.441" stroke="#263238" stroke-linecap="round" stroke-linejoin="round"/>
<path d="M228.426 178.855L227.548 190.881" stroke="#263238" stroke-linecap="round" stroke-linejoin="round"/>
<path d="M230.759 179.737L230.47 201.73" stroke="#263238" stroke-linecap="round" stroke-linejoin="round"/>
<path d="M233.092 185.892L233.681 197.037" stroke="#263238" stroke-linecap="round" stroke-linejoin="round"/>
<path d="M207.796 139.369C207.796 139.369 193.593 146.992 193.01 149.535C192.427 152.078 185.518 184.134 185.518 184.72C185.518 185.306 192.427 203.493 192.427 203.493L190.994 232.08C190.994 232.08 197.999 233.644 202.28 233.451C206.561 233.257 212.983 232.882 212.983 232.882L214.025 139.391L207.796 139.369Z" fill="#D75A8B" stroke="#263238" stroke-linecap="round" stroke-linejoin="round"/>
<path d="M198.945 194.101L201.572 170.942" stroke="#263238" stroke-linecap="round" stroke-linejoin="round"/>
<path d="M199.041 190.586L184.057 153.255C184.057 153.255 181.917 147.39 180.167 145.826C178.417 144.261 176.469 143.089 175.302 141.917C174.136 140.746 173.943 138.009 173.162 140.939C172.38 143.869 175.501 146.025 175.501 146.025L177.46 149.341L165.002 146.998C165.002 146.998 158.58 143.874 157.997 145.24C157.413 146.605 160.72 147.783 163.444 149.933C166.168 152.083 167.725 154.035 172.199 155.622C175.109 156.71 177.809 158.298 180.178 160.315C180.178 160.315 181.152 199.995 183.485 201.758C185.818 203.522 193.803 208.204 196.719 204.296C199.636 200.387 199.624 196.843 199.041 190.586Z" fill="white" stroke="#263238" stroke-linecap="round" stroke-linejoin="round"/>
<path d="M199.041 190.586L196.623 184.544L181.537 189.664C182.035 196.058 182.67 201.121 183.474 201.73C185.813 203.488 193.792 208.175 196.708 204.267C199.624 200.359 199.624 196.843 199.041 190.586Z" fill="#D75A8B" stroke="#263238" stroke-linecap="round" stroke-linejoin="round"/>
<path d="M170.098 153.824C170.098 153.824 164.956 150.69 164.022 149.125C163.087 147.561 159.814 141.457 160.907 141.303C162 141.149 164.871 145.615 164.956 146.309C165.041 147.003 168.229 150.064 168.229 150.064" fill="white"/>
<path d="M170.098 153.824C170.098 153.824 164.956 150.69 164.022 149.125C163.087 147.561 159.814 141.457 160.907 141.303C162 141.149 164.871 145.615 164.956 146.309C165.041 147.003 168.229 150.064 168.229 150.064" stroke="#263238" stroke-linecap="round" stroke-linejoin="round"/>
<path d="M170.54 155.064C169.091 154.035 167.958 152.621 167.267 150.98C166.021 148.164 164.616 144.25 164.616 142.06C164.616 139.869 165.862 140.654 166.315 142.219C166.768 143.783 168.354 147.566 168.966 148.334C169.577 149.102 171.797 152.248 171.797 152.248" fill="white"/>
<path d="M170.54 155.064C169.091 154.035 167.958 152.621 167.267 150.98C166.021 148.164 164.616 144.25 164.616 142.06C164.616 139.869 165.862 140.654 166.315 142.219C166.768 143.783 168.354 147.566 168.966 148.334C169.577 149.102 171.797 152.248 171.797 152.248" stroke="#263238" stroke-linecap="round" stroke-linejoin="round"/>
<path d="M182.556 156.629C182.398 156.157 180.376 152.874 179.753 152.715C179.13 152.556 174.923 153.654 174.923 153.654L172.092 151.463C172.092 151.463 171.933 146.77 171.933 145.046C171.933 143.323 169.594 147.549 169.441 150.365C169.288 153.181 171.469 156.157 171.469 156.157C171.469 156.157 173.96 156.629 174.425 156.782C174.889 156.936 180.161 160.287 180.161 160.287" fill="white"/>
<path d="M182.556 156.629C182.398 156.157 180.376 152.874 179.753 152.715C179.13 152.556 174.923 153.654 174.923 153.654L172.092 151.463C172.092 151.463 171.933 146.77 171.933 145.046C171.933 143.323 169.594 147.549 169.441 150.365C169.288 153.181 171.469 156.157 171.469 156.157C171.469 156.157 173.96 156.629 174.425 156.782C174.889 156.936 180.161 160.287 180.161 160.287" stroke="#263238" stroke-linecap="round" stroke-linejoin="round"/>
<path d="M208.577 139.369L206.629 196.644L214.999 196.451L213.051 140.154L208.577 139.369Z" fill="#F7DEE8" stroke="#263238" stroke-linecap="round" stroke-linejoin="round"/>
<path d="M208.577 139.369L212.468 201.144L224.535 200.945L216.556 139.96L208.577 139.369Z" fill="#F7DEE8" stroke="#263238" stroke-linecap="round" stroke-linejoin="round"/>
<path d="M233.969 142.208L234.043 143.311L240.097 231.341L256.174 230.288L251.791 189.414C251.791 189.414 249.095 144.978 248.223 144.392C247.351 143.806 233.969 140.74 233.969 140.74V142.208Z" fill="#D75A8B" stroke="#263238" stroke-linecap="round" stroke-linejoin="round"/>
<path d="M210.656 128.133C210.656 128.133 230.476 132.047 232.254 132.047C234.032 132.047 235.17 133.219 234.779 134.584C234.452 135.663 234.262 136.78 234.213 137.907C234.213 138.692 236.354 141.82 234.604 143.385C232.854 144.949 214.563 142.014 212.032 141.82C209.5 141.627 207.167 141.428 207.167 140.057C207.167 138.686 210.084 136.348 210.084 135.369C210.084 134.391 207.734 131.461 210.656 128.133Z" fill="#F7DEE8" stroke="#263238" stroke-linecap="round" stroke-linejoin="round"/>
</g>
<defs>
<clipPath id="clip0_8489_70935">
<rect width="320" height="254" fill="white"/>
</clipPath>
</defs>
</svg>
