<svg width="16" height="17" viewBox="0 0 16 17" fill="none" xmlns="http://www.w3.org/2000/svg">
<g id="crown-solid">
<path id="Vector" d="M8 2C7.17773 2 6.5 2.67773 6.5 3.5C6.5 4.0625 6.81641 4.55664 7.28125 4.8125L5.8125 7.75L3.51562 6.10938C3.81641 5.83398 4 5.43555 4 5C4 4.17773 3.32227 3.5 2.5 3.5C1.67773 3.5 1 4.17773 1 5C1 5.67383 1.46289 6.23438 2.07812 6.42188L3 11.5V14H13V11.5L13.9219 6.42188C14.5371 6.23438 15 5.67383 15 5C15 4.17773 14.3223 3.5 13.5 3.5C12.6777 3.5 12 4.17773 12 5C12 5.43555 12.1836 5.83398 12.4844 6.10938L10.1875 7.75L8.71875 4.8125C9.18359 4.55664 9.5 4.0625 9.5 3.5C9.5 2.67773 8.82227 2 8 2ZM8 3C8.28125 3 8.5 3.21875 8.5 3.5C8.5 3.78125 8.28125 4 8 4C7.71875 4 7.5 3.78125 7.5 3.5C7.5 3.21875 7.71875 3 8 3ZM2.5 4.5C2.78125 4.5 3 4.71875 3 5C3 5.28125 2.78125 5.5 2.5 5.5C2.21875 5.5 2 5.28125 2 5C2 4.71875 2.21875 4.5 2.5 4.5ZM13.5 4.5C13.7812 4.5 14 4.71875 14 5C14 5.28125 13.7812 5.5 13.5 5.5C13.2188 5.5 13 5.28125 13 5C13 4.71875 13.2188 4.5 13.5 4.5ZM8 5.625L9.54688 8.71875L10.2969 8.90625L12.7969 7.125L12.0938 11H3.90625L3.20312 7.125L5.70312 8.90625L6.45312 8.71875L8 5.625ZM4 12H12V13H4V12Z" fill="#027A48"/>
</g>
</svg>
