<svg width="20" height="20" viewBox="0 0 20 20" fill="none" xmlns="http://www.w3.org/2000/svg">
<g id="list-alt">
<path id="Vector" d="M5.625 4.375C3.56201 4.375 1.875 6.06201 1.875 8.125C1.875 9.36523 2.48535 10.4688 3.41797 11.1523C1.77002 11.9702 0.625 13.6646 0.625 15.625H1.875C1.875 13.5474 3.54736 11.875 5.625 11.875C7.70264 11.875 9.375 13.5474 9.375 15.625H10.625C10.625 13.5474 12.2974 11.875 14.375 11.875C16.4526 11.875 18.125 13.5474 18.125 15.625H19.375C19.375 13.6646 18.23 11.9702 16.582 11.1523C17.5146 10.4688 18.125 9.36523 18.125 8.125C18.125 6.06201 16.438 4.375 14.375 4.375C12.312 4.375 10.625 6.06201 10.625 8.125C10.625 9.36523 11.2354 10.4688 12.168 11.1523C11.2573 11.604 10.4932 12.3169 10 13.2031C9.50684 12.3169 8.74268 11.604 7.83203 11.1523C8.76465 10.4688 9.375 9.36523 9.375 8.125C9.375 6.06201 7.68799 4.375 5.625 4.375ZM5.625 5.625C7.01416 5.625 8.125 6.73584 8.125 8.125C8.125 9.51416 7.01416 10.625 5.625 10.625C4.23584 10.625 3.125 9.51416 3.125 8.125C3.125 6.73584 4.23584 5.625 5.625 5.625ZM14.375 5.625C15.7642 5.625 16.875 6.73584 16.875 8.125C16.875 9.51416 15.7642 10.625 14.375 10.625C12.9858 10.625 11.875 9.51416 11.875 8.125C11.875 6.73584 12.9858 5.625 14.375 5.625Z" fill="white"/>
</g>
</svg>
