<svg width="11" height="11" viewBox="0 0 11 11" fill="none" xmlns="http://www.w3.org/2000/svg">
	<path d="M6.36783 0.12955H7.70902V11H6.36783V0.12955ZM3.49385 2.803H10.6732V4.18094H3.49385V2.803ZM7.99078 3.23876C8.57684 5.21735 9.72643 7.32548 11 8.46788C10.6844 8.7152 10.2223 9.22163 9.99693 9.5985C8.66701 8.23233 7.57377 5.88865 6.92008 3.54497L7.99078 3.23876ZM6.15369 3.28587L7.30328 3.63919C6.58197 6.0182 5.37603 8.29122 3.95594 9.65739C3.71926 9.31585 3.26844 8.80942 2.95287 8.55032C4.30533 7.40792 5.53381 5.28801 6.15369 3.28587ZM2.86271 0L4.21516 0.459314C3.42623 2.52034 2.13012 4.68737 0.788934 6.04176C0.642418 5.68844 0.23668 4.89936 0 4.54604C1.13832 3.46253 2.23156 1.75482 2.86271 0ZM1.70184 3.40364L3.03176 2.01392L3.04303 2.03747V10.9764H1.70184V3.40364Z" fill="#A09E91"/>
</svg>
