<svg width="16" height="16" viewBox="0 0 16 16" fill="none" xmlns="http://www.w3.org/2000/svg">
<g id="Checks">
<path id="Vector" d="M9.3507 5.35681L3.7507 10.8568C3.65718 10.9488 3.53125 11.0004 3.40007 11.0004C3.2689 11.0004 3.14297 10.9488 3.04945 10.8568L0.64945 8.49993C0.602625 8.45389 0.565328 8.39907 0.539689 8.33861C0.514049 8.27815 0.500569 8.21324 0.500018 8.14757C0.499466 8.0819 0.511855 8.01677 0.536475 7.95589C0.561096 7.895 0.597467 7.83957 0.643512 7.79275C0.689557 7.74592 0.744374 7.70862 0.804832 7.68298C0.865291 7.65734 0.930208 7.64386 0.995876 7.64331C1.06154 7.64276 1.12668 7.65515 1.18756 7.67977C1.24844 7.70439 1.30388 7.74076 1.3507 7.78681L3.40007 9.79931L8.65007 4.64306C8.74472 4.55007 8.87244 4.49848 9.00512 4.49965C9.07082 4.50024 9.13576 4.51375 9.19623 4.53943C9.25671 4.5651 9.31153 4.60244 9.35757 4.64931C9.40362 4.69617 9.43998 4.75165 9.46459 4.81257C9.48919 4.87349 9.50156 4.93865 9.50098 5.00435C9.5004 5.07005 9.48688 5.13499 9.4612 5.19546C9.43553 5.25594 9.39819 5.31076 9.35132 5.35681H9.3507ZM15.3569 4.64931C15.3109 4.60241 15.2561 4.56504 15.1956 4.53934C15.1352 4.51364 15.0702 4.50011 15.0045 4.49953C14.9388 4.49895 14.8736 4.51133 14.8127 4.53596C14.7518 4.56058 14.6963 4.59698 14.6494 4.64306L9.39945 9.79931L8.22257 8.64306C8.12793 8.55015 8.00025 8.49864 7.86762 8.49988C7.735 8.50111 7.6083 8.55497 7.51539 8.64962C7.42248 8.74427 7.37097 8.87195 7.37221 9.00457C7.37344 9.1372 7.4273 9.2639 7.52195 9.35681L9.04882 10.8568C9.14234 10.9488 9.26827 11.0004 9.39945 11.0004C9.53063 11.0004 9.65655 10.9488 9.75007 10.8568L15.3501 5.35681C15.397 5.31082 15.4344 5.25604 15.4602 5.19558C15.4859 5.13513 15.4995 5.07019 15.5002 5.00448C15.5008 4.93877 15.4885 4.87358 15.4639 4.81264C15.4393 4.7517 15.403 4.69619 15.3569 4.64931Z" fill="#D75A8B"/>
</g>
</svg>
