<svg width="20" height="20" viewBox="0 0 20 20" fill="none" xmlns="http://www.w3.org/2000/svg">
<g id="link-solid">
<path id="Vector" d="M13.5938 2.5C12.5488 2.5 11.5576 2.9126 10.8203 3.65234L9.90234 4.57031C9.1626 5.31006 8.75 6.29883 8.75 7.34375C8.75 7.83936 8.84521 8.32275 9.02344 8.76953L10.0391 7.75391C9.91211 6.94336 10.1587 6.07178 10.7812 5.44922L11.6992 4.53125C12.2021 4.02832 12.8833 3.75 13.5938 3.75C14.3042 3.75 14.9658 4.02832 15.4688 4.53125C16.5063 5.56885 16.5063 7.26318 15.4688 8.30078L14.5508 9.21875C14.0479 9.72168 13.3667 10 12.6562 10C12.5171 10 12.3804 9.98535 12.2461 9.96094L11.2305 10.9766C11.6772 11.1548 12.1606 11.25 12.6562 11.25C13.7012 11.25 14.6924 10.8374 15.4297 10.0977L16.3477 9.17969C17.0874 8.43994 17.5 7.45117 17.5 6.40625C17.5 5.36133 17.0874 4.39209 16.3477 3.65234C15.6104 2.9126 14.6387 2.5 13.5938 2.5ZM12.0508 7.05078L7.05078 12.0508L7.94922 12.9492L12.9492 7.94922L12.0508 7.05078ZM7.34375 8.75C6.29883 8.75 5.30762 9.1626 4.57031 9.90234L3.65234 10.8203C2.9126 11.5601 2.5 12.5488 2.5 13.5938C2.5 14.6387 2.9126 15.6079 3.65234 16.3477C4.38965 17.0874 5.36133 17.5 6.40625 17.5C7.45117 17.5 8.44238 17.0874 9.17969 16.3477L10.0977 15.4297C10.8374 14.6899 11.25 13.7012 11.25 12.6562C11.25 12.1606 11.1548 11.6772 10.9766 11.2305L9.96094 12.2461C10.0879 13.0566 9.84131 13.9282 9.21875 14.5508L8.30078 15.4688C7.79785 15.9717 7.1167 16.25 6.40625 16.25C5.6958 16.25 5.03418 15.9717 4.53125 15.4688C3.49365 14.4312 3.49365 12.7368 4.53125 11.6992L5.44922 10.7812C5.95215 10.2783 6.6333 10 7.34375 10C7.48291 10 7.61963 10.0146 7.75391 10.0391L8.76953 9.02344C8.32275 8.84521 7.83936 8.75 7.34375 8.75Z" fill="white"/>
</g>
</svg>
