<svg width="20" height="20" viewBox="0 0 20 20" fill="none" xmlns="http://www.w3.org/2000/svg">
<g id="list-alt" clip-path="url(#clip0_6566_12127)">
<path id="Vector" d="M17.5 0.5625H2.5C1.4375 0.5625 0.5625 1.4375 0.5625 2.5V17.5C0.5625 18.5625 1.4375 19.4688 2.53125 19.4688H17.5312C18.5938 19.4688 19.5 18.5938 19.5 17.5V2.5C19.4688 1.4375 18.5625 0.5625 17.5 0.5625ZM7.4375 11.7188V7.125H12.5625V11.6875H7.4375V11.7188ZM12.5625 13.125V18.0625H7.4375V13.125H12.5625ZM1.96875 7.125H6.0625V11.6875H1.96875V7.125ZM13.9688 7.125H18.0625V11.6875H13.9688V7.125ZM2.5 1.96875H17.5C17.8125 1.96875 18.0625 2.21875 18.0625 2.53125V5.75H1.96875V2.5C1.96875 2.1875 2.1875 1.96875 2.5 1.96875ZM1.96875 17.5V13.125H6.0625V18.0625H2.5C2.1875 18.0625 1.96875 17.8125 1.96875 17.5ZM17.5 18.0625H13.9688V13.125H18.0625V17.5C18.0625 17.8125 17.8125 18.0625 17.5 18.0625Z" fill="#FFB6C1"/>
</g>
<defs>
<clipPath id="clip0_6566_12127">
<rect width="20" height="20" fill="white"/>
</clipPath>
</defs>
</svg>
