<svg xmlns="http://www.w3.org/2000/svg" width="11" height="10" viewBox="0 0 11 10" fill="none">
	<path fill-rule="evenodd" clip-rule="evenodd" d="M2.6875 3.75C2.6875 2.20093 3.95093 0.9375 5.5 0.9375C7.04907 0.9375 8.3125 2.20093 8.3125 3.75C8.3125 4.18945 8.13428 4.6936 7.89258 5.24414C7.65088 5.79468 7.3396 6.37939 7.02344 6.92383C6.39111 8.01392 5.75391 8.92578 5.75391 8.92578L5.5 9.29688L5.24609 8.92578C5.24609 8.92578 4.60889 8.01392 3.97656 6.92383C3.6604 6.37939 3.34912 5.79468 3.10742 5.24414C2.86572 4.6936 2.6875 4.18945 2.6875 3.75ZM5.5 3.125C5.15454 3.125 4.875 3.40454 4.875 3.75C4.875 4.09546 5.15454 4.375 5.5 4.375C5.84546 4.375 6.125 4.09546 6.125 3.75C6.125 3.40454 5.84546 3.125 5.5 3.125Z" fill="#D75A8B"/>
</svg>