<svg width="24" height="24" viewBox="0 0 24 24" fill="none" xmlns="http://www.w3.org/2000/svg">
<path d="M16 4C13.7995 4 12 5.76051 12 7.91338C12 8.56051 12.2552 9.22038 12.5833 9.95159C12.9115 10.6828 13.3255 11.4573 13.75 12.1732C14.599 13.6051 15.4583 14.8025 15.4583 14.8025L16 15.5771L16.5417 14.8025C16.5417 14.8025 17.401 13.6051 18.25 12.1732C18.6745 11.4573 19.0885 10.6828 19.4167 9.95159C19.7448 9.22038 20 8.56051 20 7.91338C20 5.76051 18.2005 4 16 4ZM9.3125 5.26369L4 7.48535V19.6984C4 19.8415 4.14599 19.9383 4.27785 19.8826L9.35417 17.7376L14.6875 19.6943L20 17.4726V11.786C19.5755 12.5834 19.1042 13.3478 18.6667 14.028V16.6166L15.3333 18.0025V16.9427L14.3542 15.5567C14.25 15.4089 14.1276 15.2331 14 15.0471V18.0637L10 16.5962V6.89427L10.7292 7.15924C10.7943 6.71847 10.9115 6.29299 11.0833 5.89554L9.3125 5.26369ZM16 5.30446C17.4792 5.30446 18.6667 6.46624 18.6667 7.91338C18.6667 8.16561 18.5052 8.76178 18.2083 9.42166C17.9115 10.0815 17.4922 10.8306 17.0833 11.521C16.5391 12.4382 16.3047 12.7643 16 13.2127C15.6953 12.7643 15.4609 12.4382 14.9167 11.521C14.5078 10.8306 14.0885 10.0815 13.7917 9.42166C13.4948 8.76178 13.3333 8.16561 13.3333 7.91338C13.3333 6.46624 14.5208 5.30446 16 5.30446ZM8.66667 6.93503V16.6166L5.33333 18.0025V8.3414L8.66667 6.93503ZM16 6.93503C15.4479 6.93503 15 7.37325 15 7.91338C15 8.4535 15.4479 8.89172 16 8.89172C16.5521 8.89172 17 8.4535 17 7.91338C17 7.37325 16.5521 6.93503 16 6.93503Z" fill="#D75A8B"/>
</svg>
