<svg width="150" height="46" viewBox="0 0 150 46" fill="none" xmlns="http://www.w3.org/2000/svg">
<g id="Final Logo" clip-path="url(#clip0_3985_20951)">
<path id="Vector" d="M23.2198 0C23.7789 0.145708 24.3193 0.245523 24.8236 0.442859C26.8319 1.22991 28.3994 3.21933 28.3282 5.78126C28.2788 7.55614 28.3183 9.33217 28.3183 11.1082V11.6291C26.9897 10.7996 25.5888 10.3957 24.088 10.2397V7.46895H4.7827V35.2371H28.3183C28.3183 35.4207 28.3183 35.5595 28.3183 35.6995C28.3183 37.1876 28.2778 38.6779 28.3271 40.1648C28.4268 43.1249 26.4723 45.2129 24.1045 45.805C23.6474 45.9185 23.1694 45.9885 22.7002 45.9897C17.1611 46.0023 11.622 46 6.08171 45.9966C3.52864 45.9943 1.26168 44.2572 0.620399 41.8261C0.590801 41.7137 0.566684 41.5989 0.517355 41.4693C0.493238 29.1748 0.493238 16.8963 0.517355 4.56627C1.05559 2.26478 2.44778 0.907517 4.51304 0.240934C4.81559 0.142266 5.12801 0.079164 5.43495 0C11.3523 0 17.2685 0 23.2198 0ZM25.3092 2.1925C24.464 1.60737 23.5388 1.32858 22.5216 1.32973C17.069 1.33661 11.6154 1.32399 6.16283 1.34693C5.60157 1.34923 5.01729 1.46855 4.48454 1.659C2.83145 2.24757 1.73963 3.77807 1.73963 5.42216C1.73853 17.1361 1.73963 28.8512 1.73744 40.5652C1.73744 41.3511 1.95448 42.0625 2.38858 42.69C3.34886 44.0771 4.69062 44.6749 6.29657 44.676C11.6866 44.6794 17.0778 44.6783 22.4678 44.6737C22.8033 44.6737 23.1409 44.6416 23.472 44.5888C25.193 44.3123 26.6762 42.9539 26.959 41.2731C27.096 40.4597 27.0423 39.6095 27.0588 38.7754C27.0719 38.0607 27.0621 37.3459 27.0621 36.5852H3.53083V6.14496H25.341C25.341 7.05248 25.3366 7.92672 25.3465 8.80097C25.3476 8.90996 25.4035 9.09582 25.4704 9.11533C25.9867 9.27366 26.5129 9.39871 27.061 9.54212C27.061 8.25256 27.0489 7.01232 27.0642 5.77209C27.0829 4.27256 26.5019 3.10001 25.3081 2.19135L25.3092 2.1925Z" fill="#D75A8B"/>
<path id="Vector_2" d="M16.4827 14.4607C20.3183 11.3561 25.7522 11.6303 29.2699 15.0871C32.3569 18.1194 33.2744 22.8796 31.515 26.9066C31.174 27.6856 31.2201 28.3568 31.7737 28.9545C32.5016 29.7405 33.2535 30.5034 34.0198 31.248C34.8606 32.0649 35.731 32.8473 36.5871 33.647C36.6989 33.7514 36.8053 33.8616 36.9094 33.9752C37.6625 34.7932 37.7809 35.6009 37.1857 36.5554C36.8842 37.0385 36.4972 37.4916 36.0664 37.8496C35.1248 38.6309 33.9617 38.3774 33.0628 37.315C31.7813 35.8017 30.4758 34.3102 29.1789 32.8118C29.0956 32.7154 28.997 32.6328 28.9104 32.5399C28.1628 31.7356 27.3921 31.6106 26.3551 32.089C20.5956 34.7473 13.7673 30.8614 12.8027 24.3734C12.2074 20.3716 13.4659 17.057 16.4848 14.4618M16.9167 23.4211C16.9299 23.4854 16.9453 23.5485 16.9551 23.6127C17.3498 26.3571 19.7691 28.5633 22.4153 28.5909C26.0219 28.6287 28.6867 25.469 28.2088 21.7231C27.7758 18.334 24.4554 16.0003 21.2654 16.808C18.7408 17.4482 16.5703 19.962 16.9167 23.42V23.4211Z" fill="#D75A8B"/>
<path id="Vector_3" d="M102.48 10.1656C102.505 11.3243 102.544 12.4453 102.553 13.5673C102.572 16.2038 102.58 18.8403 102.59 21.478C102.593 22.2696 102.59 23.0624 102.59 23.8047H115.842C115.88 18.8082 115.919 13.8966 115.957 8.97122C113.636 9.02744 111.346 9.0871 109.058 9.13643C108.172 9.15594 107.286 9.17544 106.401 9.1502C105.381 9.12152 104.871 8.13369 105.415 7.21355C105.545 6.99327 105.858 6.87395 106.105 6.75348C106.23 6.69268 106.4 6.72939 106.549 6.72824C108.656 6.70185 110.763 6.6835 112.87 6.64564C113.829 6.62843 114.787 6.57795 115.746 6.52746C115.879 6.52058 116.033 6.44945 116.137 6.35766C116.877 5.7037 117.988 5.98938 118.248 6.97032C118.381 7.4694 118.348 8.0247 118.342 8.5536C118.302 12.8468 118.243 17.14 118.207 21.4332C118.193 22.9855 118.253 24.539 118.227 26.0901C118.211 27.0963 117.47 27.6367 116.578 27.3717C116.142 27.2432 115.869 26.9552 115.783 26.4837C115.76 26.3575 115.729 26.2324 115.697 26.0833H102.447C102.296 26.9816 102.056 27.2787 101.428 27.4061C100.643 27.5656 100.081 27.1089 100.088 26.2714C100.099 25.1494 100.161 24.0284 100.172 22.9075C100.187 21.369 100.189 19.8293 100.172 18.2908C100.149 16.3335 100.107 14.3773 100.059 12.4212C100.024 11.0134 99.9459 9.60683 99.9261 8.19794C99.9184 7.68395 99.9634 7.1516 100.092 6.65711C100.25 6.04789 100.76 5.75189 101.328 5.81499C101.892 5.87694 102.283 6.24179 102.331 6.88657C102.413 7.96504 102.433 9.04809 102.48 10.1656Z" fill="#D75A8B"/>
<path id="Vector_4" d="M85.7619 8.60784C84.5407 8.64226 83.3206 8.67553 82.0994 8.7111C80.3433 8.76273 78.5861 8.82009 76.83 8.86369C76.158 8.8809 75.4827 8.90729 74.8151 8.85451C74.1552 8.80288 73.8866 8.36117 73.9371 7.57068C73.9809 6.88918 74.3503 6.51631 74.985 6.51516C77.218 6.50713 79.4521 6.52319 81.684 6.48418C83.1913 6.45779 84.6963 6.35912 86.2025 6.27652C86.3615 6.26734 86.5336 6.18359 86.6673 6.08607C87.1573 5.72696 87.6769 5.61567 88.2152 5.90938C88.7282 6.18932 88.9156 6.7079 88.8389 7.26779C88.7655 7.80243 88.6284 8.34396 88.4267 8.84074C86.994 12.3549 85.2806 15.7062 83.0466 18.7454C82.9863 18.828 82.9293 18.9141 82.8547 19.0208C83.6845 19.5852 84.5297 20.113 85.3278 20.7119C87.2724 22.1713 89.1985 23.6593 91.1234 25.1462C91.5882 25.5053 91.768 26.0136 91.5992 26.601C91.4391 27.1574 91.0708 27.5487 90.5095 27.5842C90.2168 27.6026 89.831 27.5085 89.626 27.3089C87.2735 25.0258 84.6218 23.1671 81.9646 21.3142C81.2192 20.7945 81.2192 20.8129 80.5735 21.4542C78.5992 23.4149 76.5515 25.2839 74.2769 26.8603C73.822 27.1758 73.3374 27.4546 72.8387 27.6875C72.2072 27.9812 71.6175 27.7311 71.3314 27.1173C71.0146 26.4369 71.2009 25.7749 71.8258 25.4067C74.8338 23.6329 77.571 21.4806 79.9213 18.8326C82.4853 15.9437 84.4289 12.636 85.7377 8.93023C85.7641 8.8568 85.7772 8.77994 85.8068 8.66406C85.8112 8.60669 85.8068 8.58948 85.8013 8.57227C85.7882 8.58375 85.775 8.59637 85.7619 8.60784Z" fill="#D75A8B"/>
<path id="Vector_5" d="M134.965 9.47C134.583 9.40575 134.421 9.57555 134.264 9.90483C132.972 12.6159 131.102 14.8302 128.842 16.6957C128.157 17.2613 127.437 17.2109 127.022 16.6246C126.598 16.0223 126.766 15.2593 127.467 14.7338C128.969 13.6095 130.307 12.3084 131.399 10.747C131.948 9.96449 132.412 9.1304 132.582 8.15749C132.632 7.87869 132.64 7.58842 132.639 7.30389C132.635 6.12332 133.676 5.81125 134.429 6.13135C134.703 6.24723 134.809 6.52028 134.908 7.19719C135.535 7.19719 136.167 7.22014 136.796 7.1926C138.14 7.13409 139.483 7.04001 140.827 6.98265C141.307 6.962 141.766 6.92414 142.137 6.53405C142.013 6.31721 141.867 6.09005 141.751 5.84796C141.553 5.43723 141.692 5.0047 142.089 4.74082C142.476 4.48382 142.957 4.52053 143.2 4.8762C143.469 5.26743 143.69 5.69193 143.932 6.10267C144.672 7.35667 145.411 8.61067 146.155 9.86238C146.423 10.311 146.37 10.6896 145.972 11.028C145.621 11.3275 145.121 11.3218 144.838 10.9328C144.402 10.3328 144.02 9.68799 143.618 9.06041C143.515 8.89979 143.423 8.73114 143.294 8.51315C143.103 9.32085 142.938 10.0769 142.743 10.8227C141.907 14.0248 140.713 17.0617 138.913 19.8152C137.049 22.6651 134.543 24.7659 131.725 26.4845C130.878 27.002 129.984 27.4425 129.093 27.8751C128.408 28.2066 127.741 27.9278 127.468 27.2635C127.178 26.5579 127.418 25.8787 128.126 25.5552C129.927 24.7337 131.647 23.7746 133.196 22.4976C136.352 19.8956 138.498 16.5466 139.822 12.6067C140.168 11.5765 140.412 10.5083 140.701 9.45738C140.728 9.35871 140.73 9.25316 140.748 9.12237C138.82 9.23939 136.91 9.35527 134.965 9.4723V9.47Z" fill="#D75A8B"/>
<path id="Vector_6" d="M59.5701 9.88469C60.7891 9.82848 61.9708 9.7757 63.1526 9.71719C63.978 9.67588 64.5129 10.6821 64.1413 11.5804C63.9769 11.9785 63.6908 12.2034 63.2786 12.2195C61.6343 12.2826 59.9911 12.3537 58.3468 12.3881C57.0423 12.4156 55.7367 12.3938 54.3917 12.3938V12.956C54.3917 17.6038 54.3927 22.2515 54.3917 26.8992C54.3917 27.9192 53.7504 28.4985 52.8613 28.2966C52.3494 28.1796 52.0381 27.8067 52.0041 27.2583C51.9942 27.1023 51.9964 26.9451 51.9964 26.7891C51.9964 22.1941 51.9964 17.598 51.9964 13.0031V12.5396C51.8265 12.5396 51.6928 12.5396 51.5601 12.5396C49.4642 12.5396 47.3693 12.5361 45.2734 12.543C44.8634 12.5441 44.4523 12.6118 44.0423 12.6015C42.9823 12.5717 42.4287 11.5758 42.9067 10.588C43.0843 10.222 43.332 10.0315 43.7606 10.035C46.3301 10.0522 48.8996 10.0442 51.4692 10.0442C51.6051 10.0442 51.7421 10.0442 51.9329 10.0442V9.61163C51.9329 8.44942 51.9175 7.2872 51.9416 6.12613C51.9493 5.73834 52.0282 5.34252 52.1335 4.9685C52.2771 4.4568 52.8197 4.13555 53.3459 4.18948C53.9236 4.24914 54.3182 4.6048 54.4136 5.16354C54.4421 5.32875 54.4487 5.50084 54.4497 5.6695C54.4519 7.10478 54.4508 8.54005 54.4508 10.0568C56.1609 9.99942 57.848 9.94321 59.5723 9.88699L59.5701 9.88469Z" fill="#D75A8B"/>
<path id="Vector_7" d="M45.734 19.7637C46.0837 19.0559 46.429 18.3778 46.7469 17.686C46.8412 17.4806 46.8894 17.2374 46.9037 17.0079C46.9442 16.3746 47.3125 15.8985 47.8464 15.8331C48.4581 15.7585 49.0325 16.1612 49.1695 16.7842C49.3131 17.4439 49.2364 18.1047 48.9558 18.6933C48.3572 19.9508 47.773 21.2277 47.0495 22.4071C46.2832 23.6531 45.3744 24.805 44.5008 25.9753C44.1851 26.3986 43.7904 26.7554 43.2072 26.7107C42.6394 26.6659 42.2546 26.3516 42.0376 25.8169C41.8337 25.3144 41.8918 24.8532 42.2809 24.4551C43.6359 23.068 44.7463 21.4824 45.7362 19.7649L45.734 19.7637Z" fill="#D75A8B"/>
<path id="Vector_8" d="M57.551 18.3301C57.2945 17.7587 57.0676 17.2115 57.095 16.5873C57.1224 15.9494 57.5116 15.4859 58.12 15.3849C58.6209 15.3023 59.2765 15.658 59.3894 16.1984C59.7906 18.1063 61.0194 19.4521 62.2099 20.8128C62.8797 21.5792 63.6525 22.2481 64.3947 22.9434C64.8211 23.3426 65.0349 23.7947 64.8924 24.397C64.6742 25.324 63.6778 25.7348 62.9543 25.1485C62.4445 24.7355 61.9819 24.2536 61.5303 23.7694C60.3102 22.4615 59.191 21.0618 58.2208 19.5393C57.9797 19.1607 57.7802 18.7534 57.551 18.3324V18.3301Z" fill="#D75A8B"/>
<path id="Vector_9" d="M93.4979 40.3024C94.0559 41.0825 94.8813 41.2615 95.7232 41.281C96.8424 41.3074 97.965 41.2397 99.0853 41.2133C99.2848 41.2087 99.5018 41.1594 99.6772 41.2271C99.8186 41.2822 99.9776 41.4703 99.9995 41.6206C100.015 41.7262 99.8219 41.9682 99.7101 41.9774C98.1075 42.1059 96.5015 42.2356 94.901 41.9682C94.1732 41.8466 93.5834 41.4416 93.1065 40.8749C92.758 41.1881 92.4324 41.4864 92.0991 41.7743C91.995 41.865 91.8711 41.982 91.7516 41.9889C91.5927 41.9981 91.3756 41.9637 91.277 41.8547C91.1268 41.6883 91.2211 41.5036 91.403 41.3671C91.7769 41.0871 92.1594 40.8118 92.4993 40.4905C92.6341 40.3632 92.7196 40.1199 92.7338 39.9215C92.7678 39.4671 92.7338 39.0082 92.7481 38.5516C92.7591 38.2097 92.61 38.0754 92.3008 38.0823C92.0893 38.0869 91.87 38.1167 91.6672 38.0708C91.5401 38.0422 91.437 37.8942 91.3241 37.8001C91.4261 37.6727 91.5236 37.4433 91.6311 37.4375C92.0498 37.4192 92.4795 37.4307 92.8917 37.5087C93.2885 37.5844 93.385 37.9527 93.3949 38.3244C93.4069 38.7937 93.3981 39.2629 93.3981 39.7413C94.1227 39.2836 94.7881 36.9717 94.6402 35.4183C94.411 35.4183 94.1677 35.4584 93.9452 35.4034C93.8005 35.3678 93.6086 35.2129 93.5779 35.0775C93.5231 34.8297 93.7314 34.7597 93.9397 34.7597C94.2258 34.7597 94.5108 34.7597 94.8583 34.7597C94.8583 34.3823 94.8561 34.0484 94.8583 33.7145C94.8605 33.492 94.8923 33.2728 95.1674 33.2774C95.4426 33.2809 95.5127 33.4748 95.5072 33.7317C95.4996 34.0564 95.5051 34.3811 95.5051 34.7597C95.7945 34.7597 96.0586 34.7311 96.3119 34.7712C96.4555 34.7942 96.5837 34.9284 96.712 35.0752C96.7065 35.2014 96.7076 35.2657 96.7043 35.3345C96.6999 35.3403 96.6912 35.3506 96.6802 35.3529C96.6528 35.3621 96.6473 35.3747 96.6517 35.3919C96.6528 35.3908 96.655 35.3885 96.655 35.3885H95.345C95.3132 35.7212 95.2847 36.0103 95.2551 36.3292C95.4623 36.3579 95.6421 36.3809 95.8208 36.4084C96.1858 36.4646 96.3996 36.6998 96.3678 37.0738C96.2943 37.9125 96.2362 38.7615 96.0652 39.5807C95.8953 40.3896 95.4601 40.6947 94.7816 40.681C94.2148 40.6695 94.0811 40.5387 94.0603 39.9754C93.9112 40.0775 93.7621 40.1807 93.5768 40.2817C93.5253 40.284 93.5111 40.292 93.4979 40.3012M95.0611 36.9568C94.9219 37.9894 94.661 38.9807 94.0767 39.8962C94.2674 39.8962 94.3924 39.8802 94.513 39.8985C95.1017 39.9926 95.3571 39.8641 95.4985 39.2629C95.6366 38.6732 95.7254 38.0663 95.7846 37.4605C95.8427 36.8582 95.6804 36.748 95.0611 36.9545V36.9568Z" fill="#D75A8B"/>
<path id="Vector_10" d="M142.032 37.0225C142.672 36.8905 143.283 36.7678 143.946 36.6358C143.946 36.0989 143.942 35.5551 143.948 35.0112C143.949 34.8839 143.939 34.7152 144.009 34.6407C144.108 34.5351 144.299 34.4192 144.405 34.4548C144.53 34.4961 144.684 34.69 144.692 34.8277C144.725 35.3703 144.705 35.9176 144.705 36.5085C145.026 36.4775 145.355 36.4408 145.683 36.4155C145.956 36.3949 146.23 36.3708 146.503 36.3777C146.709 36.3834 146.917 36.4454 146.905 36.7299C146.893 37.0018 146.791 37.2164 146.491 37.2324C146.056 37.2554 145.619 37.2657 145.185 37.2944C144.963 37.3081 144.741 37.3494 144.495 37.3804C144.462 37.6007 144.442 37.8187 144.394 38.0309C144.323 38.3465 144.261 38.67 144.145 38.9683C143.941 39.488 143.553 39.7611 143.156 39.7175C142.824 39.6819 142.237 39.1163 142.172 38.7342C142.154 38.6298 142.208 38.4497 142.285 38.405C142.382 38.3465 142.535 38.3843 142.663 38.3923C142.689 38.3935 142.708 38.4532 142.738 38.475C142.916 38.6115 143.096 38.7457 143.276 38.8811C143.411 38.6746 143.586 38.4841 143.67 38.2558C143.766 37.9988 143.778 37.7086 143.838 37.3644C143.034 37.5376 142.305 37.6868 141.581 37.8589C141.498 37.8784 141.378 38.0298 141.384 38.1124C141.424 38.7354 141.452 39.3641 141.561 39.9756C141.684 40.6606 142.027 40.9313 142.698 40.9072C143.217 40.8877 143.733 40.7879 144.25 40.7214C144.349 40.7088 144.459 40.6434 144.54 40.672C144.684 40.7237 144.933 40.8476 144.924 40.9084C144.9 41.0805 144.797 41.3432 144.673 41.3799C143.764 41.653 142.831 41.7505 141.918 41.4166C141.084 41.1115 140.905 40.3324 140.807 39.5351C140.749 39.0589 140.734 38.5759 140.693 38.0298C140.281 38.156 139.882 38.2788 139.483 38.4004C139.28 38.4623 139.076 38.5231 138.873 38.5862C138.629 38.662 138.409 38.5839 138.389 38.3258C138.377 38.1732 138.52 37.9265 138.656 37.8589C138.921 37.7269 139.229 37.6925 139.518 37.6156C139.914 37.5112 140.309 37.4057 140.649 37.315C140.649 36.7471 140.655 36.2285 140.647 35.7099C140.643 35.4128 140.706 35.181 141.042 35.1753C141.402 35.1696 141.416 35.4334 141.412 35.7145C141.407 36.1803 141.411 36.6461 141.411 37.1418C141.637 37.0993 141.818 37.0649 142.029 37.0202L142.032 37.0225Z" fill="#D75A8B"/>
<path id="Vector_11" d="M103.662 36.0447C103.009 37.1197 102.52 38.2291 102.623 39.5118C102.651 39.8606 102.786 40.2232 102.953 40.5306C103.194 40.9758 103.677 41.1502 104.155 41.0228C105.221 40.7383 105.863 39.9662 106.199 38.9256C106.583 37.7324 106.66 36.5265 106.054 35.3632C105.943 35.1509 105.91 34.8836 106.168 34.8079C106.32 34.7631 106.637 34.8698 106.692 34.9972C107.111 35.9712 107.874 36.5587 108.711 37.0738C108.966 37.2298 109.067 37.4582 108.937 37.7312C108.791 38.0352 108.528 38.0134 108.298 37.8528C107.905 37.5798 107.532 37.278 107.177 37.0073C107.106 37.5729 107.083 38.1959 106.944 38.7879C106.691 39.8663 106.19 40.8175 105.273 41.4324C104.918 41.6711 104.482 41.8523 104.067 41.9028C102.943 42.0405 102.137 41.3292 101.944 40.1383C101.738 38.8659 102.075 37.7094 102.624 36.6C102.817 36.2087 103.047 35.8382 103.282 35.4217C102.967 35.4469 102.678 35.4756 102.388 35.4917C102.114 35.5066 101.853 35.4286 101.84 35.1027C101.826 34.7631 102.085 34.7104 102.361 34.6966C103.011 34.6645 103.65 34.575 104.236 34.2411C104.456 34.1172 104.699 34.1046 104.834 34.3455C104.968 34.5842 104.824 34.7494 104.632 34.9306C104.285 35.2599 103.993 35.6523 103.664 36.0435L103.662 36.0447Z" fill="#D75A8B"/>
<path id="Vector_12" d="M126.76 39.2355C126.657 40.7775 125.059 41.7687 123.387 40.9048C123.197 40.8073 123.052 40.6444 123.182 40.4C123.305 40.1705 123.482 40.1809 123.694 40.291C123.905 40.4 124.129 40.4895 124.356 40.5503C125.102 40.7499 125.804 40.3151 126.011 39.543C126.133 39.0898 125.99 38.7077 125.588 38.4874C124.875 38.0974 124.125 38.1524 123.409 38.4243C122.308 38.842 122.524 38.6343 122.58 39.7128C122.593 39.9732 122.602 40.2348 122.598 40.4952C122.587 41.218 122.169 41.6333 121.491 41.5152C121.133 41.4532 120.768 41.2983 120.464 41.0918C120.022 40.7935 119.933 40.3231 120.276 39.9135C120.673 39.4397 121.154 39.0381 121.626 38.6389C121.797 38.4943 121.904 38.3796 121.892 38.1375C121.873 37.7773 121.887 37.4147 121.887 37.1084C121.45 37.1084 121.066 37.1244 120.684 37.1026C120.442 37.0889 120.175 37.02 120.223 36.6758C120.271 36.3385 120.504 36.3775 120.767 36.4062C121.071 36.4384 121.388 36.3971 121.69 36.342C121.77 36.3271 121.87 36.1504 121.879 36.0414C121.903 35.7041 121.883 35.3633 121.89 35.0237C121.896 34.7323 122 34.4765 122.316 34.5029C122.632 34.5292 122.686 34.7679 122.636 35.0788C122.595 35.345 122.627 35.6238 122.627 35.9542C122.806 35.8441 122.974 35.75 123.132 35.6398C123.321 35.5079 123.511 35.4586 123.655 35.6788C123.805 35.9094 123.704 36.1148 123.5 36.241C123.265 36.3867 123.002 36.4831 122.771 36.6334C122.667 36.7011 122.556 36.8434 122.545 36.9615C122.515 37.2977 122.534 37.6384 122.534 37.9918C123.056 37.8507 123.552 37.6889 124.057 37.5868C124.712 37.4549 125.349 37.5868 125.951 37.8748C126.486 38.1306 126.778 38.57 126.759 39.2343M121.782 39.2756C121.573 39.434 121.336 39.5648 121.161 39.7564C120.993 39.9411 120.888 40.1877 120.755 40.408C120.978 40.5308 121.193 40.6753 121.426 40.7706C121.72 40.8899 121.891 40.7316 121.893 40.4241C121.895 40.0501 121.856 39.676 121.782 39.2745V39.2756Z" fill="#D75A8B"/>
<path id="Vector_13" d="M134.858 34.2256C135.212 34.1235 135.531 33.995 135.861 33.9491C136.021 33.9262 136.288 34.0088 136.353 34.1316C136.484 34.3817 136.279 34.5412 136.055 34.602C135.539 34.7408 135.017 34.8635 134.474 34.9989V37.367C135.136 37.367 135.781 37.367 136.425 37.367C136.537 37.367 136.671 37.3268 136.758 37.3761C136.898 37.4564 137.009 37.5953 137.131 37.71C137.009 37.8121 136.89 37.9968 136.764 38.0026C136.142 38.0335 135.518 38.0163 134.894 38.0163C134.761 38.0163 134.628 38.0163 134.473 38.0163V41.0601C135.095 41.0601 135.702 41.0647 136.309 41.0578C136.549 41.0555 136.8 41.067 136.81 41.3791C136.821 41.721 136.557 41.737 136.304 41.737C134.895 41.7347 133.485 41.7359 132.077 41.737C132.028 41.737 131.977 41.737 131.928 41.737C131.695 41.7347 131.5 41.62 131.546 41.3779C131.57 41.2506 131.792 41.0842 131.932 41.0762C132.526 41.0429 133.124 41.0624 133.743 41.0624V38.0186C133.29 38.0186 132.833 38.0186 132.377 38.0186C132.103 38.0186 131.823 38.0531 131.557 38.0026C131.431 37.9785 131.267 37.8064 131.237 37.6721C131.187 37.445 131.365 37.367 131.567 37.3681C132.166 37.3704 132.764 37.3681 133.363 37.3681C133.484 37.3681 133.606 37.3681 133.746 37.3681V35.054C133.215 35.1137 132.699 35.1894 132.181 35.2169C132.02 35.2249 131.795 35.1504 131.702 35.0276C131.542 34.8177 131.758 34.5893 132.087 34.5549C133.002 34.4574 133.915 34.3427 134.86 34.2268L134.858 34.2256Z" fill="#D75A8B"/>
<path id="Vector_14" d="M146.392 3.39334C147.396 5.03054 148.384 6.6448 149.366 8.26365C149.613 8.67094 149.506 9.22509 149.14 9.53027C148.773 9.8366 148.347 9.82398 148.019 9.40407C147.555 8.80976 147.113 8.19022 146.72 7.54199C146.1 6.5186 145.501 5.47914 144.946 4.41559C144.625 3.79949 144.972 3.16847 145.641 3.10996C145.877 3.08931 146.13 3.27861 146.393 3.39334H146.392Z" fill="#D75A8B"/>
<path id="Vector_15" d="M116.013 38.3375C115.976 37.7328 115.94 37.1626 115.903 36.5591C115.687 36.5809 115.491 36.6073 115.295 36.6199C114.997 36.6394 114.697 36.6658 114.4 36.6567C114.144 36.6475 113.839 36.6498 113.819 36.2643C113.806 36.0038 114.043 35.935 114.463 35.9522C114.908 35.9706 115.357 35.9235 115.801 35.8753C115.867 35.8685 115.96 35.6998 115.966 35.6011C115.985 35.2363 115.972 34.8703 115.976 34.5055C115.978 34.2599 116.048 34.0477 116.324 34.0488C116.604 34.0488 116.707 34.2324 116.699 34.5158C116.688 34.9185 116.696 35.3223 116.696 35.7709C116.934 35.709 117.136 35.6126 117.337 35.6172C117.493 35.6206 117.645 35.7503 117.8 35.8237C117.709 35.9717 117.648 36.1874 117.518 36.2528C117.278 36.3744 116.996 36.4065 116.651 36.4983C116.713 37.5516 116.773 38.614 116.847 39.6752C116.853 39.7486 116.963 39.8255 117.04 39.8794C117.257 40.0309 117.488 40.1617 117.7 40.3211C117.807 40.4026 117.95 40.5208 117.961 40.6355C117.979 40.8202 117.939 41.0394 117.846 41.1931C117.814 41.247 117.528 41.1988 117.406 41.1174C117.169 40.9579 116.967 40.7434 116.72 40.5242C116.413 41.2115 115.935 41.6119 115.254 41.714C114.701 41.7977 114.216 41.6279 113.819 41.2172C113.351 40.7319 113.404 40.0733 113.942 39.6695C114.536 39.2232 115.21 39.2794 115.885 39.3563C115.944 39.3631 116.002 39.3815 116.103 39.4044C116.072 39.043 116.045 38.7092 116.014 38.3386M115.266 41.0485C115.672 40.9395 115.999 40.7411 116.109 40.258C115.588 39.9609 115.071 39.9609 114.56 40.2064C114.445 40.2615 114.305 40.4324 114.31 40.5414C114.318 40.678 114.439 40.8673 114.557 40.9235C114.752 41.0153 114.986 41.0164 115.265 41.0485H115.266Z" fill="#D75A8B"/>
<path id="Vector_16" d="M69.4768 39.6808C70.4569 38.7492 71.2494 37.7029 71.8052 36.4695C72.0321 35.9647 71.9817 35.8775 71.4533 35.8936C70.9677 35.9085 70.481 35.9303 69.9997 35.9922C69.8386 36.0129 69.6632 36.1379 69.5481 36.2676C68.943 36.941 68.3752 37.6512 67.7547 38.3086C67.3952 38.6895 67.0553 38.7285 66.915 38.4784C66.6749 38.0528 67.0641 37.9197 67.2877 37.7235C68.282 36.8493 69.0482 35.7765 69.7454 34.643C69.8112 34.5363 69.8835 34.3791 69.9767 34.3573C70.117 34.3252 70.3133 34.3447 70.4174 34.4319C70.4887 34.4915 70.4667 34.7072 70.4448 34.8461C70.4284 34.9516 70.345 35.0468 70.2749 35.1765C70.8296 35.1478 71.3481 35.118 71.8666 35.0939C72.2536 35.0767 72.5627 35.2419 72.7052 35.6171C72.7753 35.8018 72.8093 36.0714 72.7326 36.2377C71.7022 38.4555 70.2913 40.3221 68.168 41.5039C67.9268 41.6381 67.6769 41.7586 67.4226 41.863C67.1956 41.9559 66.9326 42.0156 66.8098 41.7184C66.6837 41.4132 66.9029 41.2629 67.1397 41.1723C68.0057 40.8407 68.7665 40.3313 69.4758 39.6785L69.4768 39.6808Z" fill="#D75A8B"/>
<path id="Vector_17" d="M53.0302 40.6444C52.6411 40.8543 52.2793 41.0562 51.9077 41.2387C51.6622 41.3591 51.364 41.4567 51.2237 41.1285C51.0713 40.774 51.3859 40.6616 51.6227 40.5526C53.4095 39.7311 54.7359 38.383 55.7126 36.6357C55.7927 36.4934 55.8475 36.3351 55.9516 36.0987C55.5098 36.0987 55.1338 36.0942 54.7578 36.0987C54.0848 36.1079 53.4128 36.1217 52.7397 36.1343C52.5238 36.1389 52.3276 36.1033 52.3067 35.8245C52.2859 35.5423 52.4755 35.4608 52.6904 35.4574C53.8239 35.439 54.9585 35.3989 56.0897 35.431C56.7058 35.4482 56.9536 35.9679 56.6554 36.5347C56.3441 37.1256 55.9878 37.6901 55.6545 38.2591C56.3013 38.7777 56.9853 39.3123 57.6507 39.8699C57.8415 40.0294 57.996 40.2439 58.1375 40.4562C58.2723 40.6581 58.2734 40.8899 58.0673 41.0471C57.8623 41.2042 57.6771 41.1618 57.4732 40.9702C56.8363 40.369 56.1774 39.7908 55.5208 39.2125C55.3816 39.0898 55.2139 39.0026 55.1295 38.9452C54.4049 39.5315 53.7274 40.0787 53.0269 40.6421L53.0302 40.6444Z" fill="#D75A8B"/>
<path id="Vector_18" d="M96.7789 35.1465C96.9915 34.6049 97.2174 34.0691 97.4103 33.5207C97.5057 33.25 97.6306 33.0687 97.9222 33.1524C98.2072 33.2339 98.2215 33.4599 98.1448 33.7158C98.0669 33.9751 97.9968 34.2366 97.9058 34.5556C98.4144 34.5556 98.9044 34.5476 99.3944 34.5613C99.5205 34.5648 99.6762 34.6061 99.7595 34.6921C99.8274 34.7621 99.8603 34.9617 99.8121 35.0386C99.7518 35.1373 99.5961 35.2176 99.4788 35.2233C99.0305 35.244 98.5778 35.2658 98.1327 35.2233C97.6854 35.1797 97.4607 35.3644 97.3851 35.8761C97.8521 35.8761 98.3158 35.8727 98.7806 35.8784C98.9154 35.8796 99.0612 35.8807 99.184 35.9301C99.5062 36.0597 99.5841 36.4257 99.3418 36.7355C99.1302 37.0062 98.8825 37.246 98.6622 37.4893C98.7784 37.9367 99.0184 38.1593 99.4767 38.0767C99.7025 38.0365 99.9656 38.0583 99.9798 38.3841C99.9952 38.7329 99.7277 38.7478 99.4821 38.7593C99.3725 38.7639 99.2629 38.7719 99.1544 38.7777C99.1083 39.1758 99.0996 39.5578 99.0151 39.9204C98.8091 40.8107 97.92 41.2249 97.1264 40.8268C96.9258 40.7258 96.7679 40.5629 96.8951 40.3403C96.9554 40.2347 97.2064 40.1418 97.3127 40.1889C97.9683 40.4768 98.4035 40.0879 98.444 39.3192C98.4539 39.1265 98.4451 38.9337 98.4451 38.6813C97.9759 38.6813 97.5309 38.6779 97.0869 38.6824C96.8589 38.6847 96.6747 38.6113 96.6693 38.3474C96.6638 38.1168 96.7997 37.9987 97.0321 38.0021C97.4311 38.009 97.8301 38.0044 98.2829 37.9252C98.148 37.8197 98.0001 37.729 97.8839 37.6051C97.7753 37.4892 97.7019 37.3378 97.6131 37.2024C97.7414 37.1267 97.8674 37.0475 97.9979 36.9753C98.2434 36.8399 98.4912 36.7079 98.7367 36.5749C98.7214 36.529 98.7049 36.4842 98.6896 36.4383C98.3399 36.4383 97.9913 36.4429 97.6416 36.4372C97.304 36.4314 96.962 36.4441 96.6331 36.3821C96.5279 36.3626 96.3788 36.1263 96.3908 36.0035C96.4084 35.8107 96.5443 35.6295 96.644 35.4149C96.6583 35.3874 96.655 35.3897 96.6649 35.3908C96.6879 35.3805 96.6934 35.3667 96.6934 35.3507C96.6934 35.3507 96.7022 35.3404 96.723 35.3243C96.7559 35.2543 96.7668 35.2004 96.7789 35.1465Z" fill="#D75A8B"/>
<path id="Vector_19" d="M86.0043 39.5824C86.8352 38.7632 87.459 37.8316 87.8076 36.7141C87.9873 36.1393 87.926 36.0269 87.3614 36.0257C86.0646 36.0234 84.7678 36.0429 83.471 36.0613C83.1936 36.0647 82.9996 35.9867 83.004 35.6551C83.0073 35.3947 83.1651 35.2765 83.3898 35.2719C84.8851 35.2444 86.3814 35.1985 87.8766 35.2111C88.5881 35.2169 88.9279 35.7492 88.6966 36.4869C88.0158 38.6622 86.7782 40.3625 84.7623 41.3653C84.5156 41.488 84.2613 41.5982 84.0037 41.6957C83.7647 41.7863 83.5422 41.7473 83.4578 41.4628C83.3767 41.1909 83.5082 41.0062 83.7593 40.9236C84.5935 40.6516 85.3323 40.2076 86.0043 39.5812V39.5824Z" fill="#D75A8B"/>
<path id="Vector_20" d="M44.2673 41.1858C44.0207 41.0768 43.8979 40.8818 44.0207 40.6799C44.093 40.5606 44.3364 40.4768 44.4855 40.4997C45.5181 40.6638 45.517 40.6741 45.517 39.5911C45.517 38.6927 45.517 37.7944 45.517 36.8869C44.9163 36.8869 44.3484 36.8846 43.7806 36.8869C43.569 36.888 43.3575 36.8961 43.1459 36.911C42.9091 36.927 42.6921 36.872 42.6811 36.5909C42.669 36.3006 42.908 36.2398 43.1273 36.2329C43.762 36.21 44.3978 36.2019 45.0336 36.1893C45.1794 36.1859 45.3263 36.1893 45.5181 36.1893C45.5181 35.7327 45.5148 35.3197 45.5192 34.9055C45.5225 34.6531 45.5258 34.3559 45.8579 34.3686C46.1638 34.38 46.2515 34.6301 46.2449 34.9284C46.235 35.3438 46.2427 35.7591 46.2427 36.2295C46.9267 36.2295 47.5823 36.2295 48.2367 36.2295C48.3858 36.2295 48.5535 36.1985 48.6796 36.2582C48.8133 36.3224 48.9076 36.4784 49.0194 36.5932C48.8988 36.6987 48.7804 36.8903 48.6565 36.8961C48.16 36.9156 47.6623 36.8811 47.1646 36.8582C46.8456 36.8433 46.5277 36.8123 46.1681 36.7848C46.1681 37.5569 46.1681 38.2705 46.1681 38.9853C46.1681 39.2985 46.1681 39.6117 46.1681 39.9249C46.1681 40.9036 45.7516 41.3235 44.8121 41.2811C44.6389 41.273 44.4679 41.226 44.2695 41.1835L44.2673 41.1858Z" fill="#D75A8B"/>
<path id="Vector_21" d="M61.7878 34.7297V36.78C62.2976 36.9303 62.8018 37.0622 63.294 37.2297C63.636 37.3456 63.9693 37.4982 64.2959 37.6554C64.5404 37.7724 64.7421 37.9582 64.5678 38.2669C64.411 38.5457 64.1754 38.5032 63.9145 38.3862C63.3433 38.1303 62.7613 37.902 62.1814 37.6691C62.0794 37.6278 61.9665 37.6186 61.8076 37.5831C61.7988 37.7517 61.7867 37.8871 61.7867 38.0225C61.7856 39.0803 61.7867 40.1381 61.7845 41.1948C61.7845 41.3244 61.779 41.4564 61.7593 41.5837C61.7188 41.8591 61.5521 42.0082 61.2934 41.9853C61.0227 41.9623 60.9229 41.7684 60.9306 41.4908C60.9536 40.6039 60.9766 39.7171 60.9832 38.8302C60.9942 37.3548 60.9942 35.8793 60.9942 34.4039C60.9942 34.1354 61.0632 33.9312 61.3504 33.9083C61.6628 33.883 61.7593 34.0987 61.7801 34.3752C61.7878 34.4796 61.7834 34.584 61.7856 34.7251L61.7878 34.7297Z" fill="#D75A8B"/>
<path id="Vector_22" d="M79.2846 38.7332C79.4896 38.3603 79.7055 38.0219 79.8568 37.6536C80.0497 37.1878 79.961 37.0547 79.483 37.0593C78.1993 37.0719 76.9168 37.1017 75.6331 37.1247C75.5958 37.1247 75.5586 37.1339 75.5213 37.1316C75.2856 37.1201 74.9995 37.1465 74.9973 36.792C74.9962 36.4478 75.2648 36.4409 75.5125 36.4363C76.8576 36.4145 78.2037 36.3881 79.5488 36.3732C79.7461 36.3709 79.95 36.3939 80.1385 36.4501C80.5913 36.5832 80.8522 36.9744 80.6757 37.439C80.4312 38.0838 80.1451 38.7401 79.7439 39.2851C78.8658 40.4771 77.6644 41.2056 76.2876 41.6244C76.0628 41.6921 75.8392 41.7139 75.7537 41.4477C75.6583 41.1529 75.8348 40.9842 76.099 40.9096C77.3783 40.5505 78.4504 39.8599 79.2824 38.7321L79.2846 38.7332Z" fill="#D75A8B"/>
<path id="Vector_23" d="M131.437 34.307C130.507 35.4727 130.646 36.8518 130.621 38.193C130.599 39.3781 130.567 40.5633 130.552 41.7496C130.549 42.0387 130.483 42.2544 130.168 42.2395C129.854 42.2246 129.854 41.9699 129.859 41.7232C129.891 40.2512 129.921 38.7792 129.95 37.3072C129.954 37.1638 129.95 37.0216 129.95 36.7772C129.757 37.017 129.619 37.2005 129.469 37.3726C129.311 37.555 129.165 37.773 128.969 37.8901C128.83 37.9727 128.615 37.913 128.433 37.9165C128.467 37.7329 128.446 37.5057 128.543 37.3726C129.027 36.7129 129.578 36.1049 130.034 35.4257C130.359 34.9403 130.578 34.3759 130.831 33.8389C130.94 33.6072 130.983 33.302 131.334 33.4133C131.603 33.4993 131.66 33.7988 131.499 34.1751C131.484 34.2107 131.464 34.2439 131.436 34.3059L131.437 34.307Z" fill="#D75A8B"/>
<path id="Vector_24" d="M111.18 36.5398C111.275 35.8881 111.374 35.272 111.448 34.6524C111.478 34.3943 111.553 34.213 111.831 34.2486C112.092 34.2819 112.186 34.4712 112.148 34.7259C112.032 35.498 111.887 36.2667 111.793 37.0411C111.703 37.7766 111.661 38.5189 111.605 39.2589C111.597 39.3805 111.622 39.5055 111.704 39.6478C111.827 39.4034 111.943 39.1545 112.075 38.9147C112.18 38.7254 112.309 38.5625 112.555 38.7059C112.784 38.8401 112.699 39.0088 112.634 39.2061C112.4 39.9014 112.198 40.6081 111.956 41.2999C111.905 41.4479 111.744 41.6338 111.616 41.6487C111.497 41.6636 111.266 41.4973 111.238 41.3722C111.114 40.8181 110.966 40.2501 110.973 39.688C110.986 38.6485 111.101 37.6102 111.18 36.5386V36.5398Z" fill="#D75A8B"/>
<path id="Vector_25" d="M77.4618 35.1744C77.0134 35.1744 76.6034 35.1744 76.1924 35.1744C75.9622 35.1744 75.7396 35.1101 75.7407 34.8279C75.7407 34.5445 75.9633 34.4883 76.1946 34.4883C77.3017 34.4883 78.4089 34.4894 79.5172 34.4883C79.7485 34.4883 79.9721 34.5376 79.9688 34.8256C79.9655 35.1009 79.7496 35.1744 79.5161 35.1755C78.8441 35.1755 78.1721 35.1755 77.4629 35.1755L77.4618 35.1744Z" fill="#D75A8B"/>
<path id="Vector_26" d="M44.0952 39.1307C43.7926 39.4944 43.5142 39.842 43.216 40.1725C43.1086 40.2918 42.9617 40.4318 42.8214 40.4467C42.6712 40.4627 42.4728 40.3778 42.3654 40.2642C42.3138 40.2092 42.3829 39.951 42.4673 39.8478C42.9168 39.3005 43.4002 38.7842 43.8474 38.2347C44.0075 38.0385 44.15 37.9329 44.3813 38.0637C44.6356 38.2071 44.5501 38.4022 44.4394 38.5892C44.3353 38.7659 44.2202 38.9357 44.0941 39.1307H44.0952Z" fill="#D75A8B"/>
<path id="Vector_27" d="M49.2178 39.3624C49.3077 39.5196 49.4392 39.6538 49.4381 39.7881C49.4381 39.943 49.3559 40.1667 49.243 40.2298C49.1509 40.2826 48.8933 40.1908 48.8232 40.0818C48.4406 39.4829 47.933 39.0354 47.3674 38.6465C47.1887 38.5237 46.9782 38.4044 47.1317 38.1268C47.2863 37.848 47.5187 37.9031 47.7072 38.0579C48.2137 38.4721 48.7037 38.9104 49.2167 39.3613L49.2178 39.3624Z" fill="#D75A8B"/>
<path id="Vector_28" d="M127.231 36.636C127.04 36.8253 126.866 36.8276 126.683 36.6647C126.293 36.3182 125.83 36.1943 125.331 36.2058C125.097 36.2115 124.882 36.176 124.876 35.88C124.869 35.5794 125.114 35.4956 125.32 35.5358C125.887 35.6459 126.456 35.7744 127.006 35.958C127.259 36.0429 127.442 36.2827 127.231 36.6349V36.636Z" fill="#D75A8B"/>
<path id="Vector_29" d="M93.2632 35.6841C93.0955 35.6462 92.9146 35.629 92.8127 35.5269C92.4849 35.1976 92.1769 34.8431 91.8798 34.4817C91.7987 34.3831 91.7833 34.2259 91.7373 34.0962C91.8908 34.0457 92.1221 33.9012 92.1835 33.9586C92.6154 34.3567 93.0232 34.7869 93.4068 35.2367C93.4573 35.2952 93.3301 35.52 93.2632 35.6852V35.6841Z" fill="#D75A8B"/>
<path id="Vector_30" d="M88.2516 34.6963C88.0433 34.5988 87.8558 34.4703 88.0082 34.2546C88.0893 34.1387 88.3557 34.0343 88.4587 34.0894C88.8369 34.2924 89.2064 34.5345 89.5265 34.8259C89.6251 34.9166 89.635 35.2745 89.5451 35.3961C89.3785 35.621 89.1888 35.4489 89.0167 35.2894C88.7865 35.0772 88.5245 34.9016 88.2527 34.6974L88.2516 34.6963Z" fill="#D75A8B"/>
<path id="Vector_31" d="M108.815 34.7402C108.5 34.4866 108.19 34.2664 107.912 34.0117C107.805 33.913 107.763 33.7363 107.692 33.594C107.835 33.5321 108.029 33.3772 108.116 33.4265C108.514 33.6526 108.899 33.9164 109.25 34.2136C109.338 34.2882 109.349 34.5784 109.281 34.6989C109.235 34.7815 108.991 34.7436 108.816 34.7402H108.815Z" fill="#D75A8B"/>
<path id="Vector_32" d="M90.2936 34.6814C90.207 34.6986 90.127 34.7296 90.0875 34.7009C89.6644 34.3923 89.2402 34.0836 88.8357 33.7486C88.7797 33.7027 88.7885 33.4847 88.8444 33.4033C88.9003 33.3218 89.0911 33.2438 89.1546 33.2828C89.5745 33.5467 89.9922 33.8198 90.3747 34.1376C90.5425 34.2764 90.5348 34.5127 90.2947 34.6814H90.2936Z" fill="#D75A8B"/>
<path id="Vector_33" d="M108.519 35.0018C108.475 35.1739 108.456 35.3964 108.36 35.4389C108.256 35.4859 108.066 35.3953 107.946 35.3138C107.665 35.1245 107.392 34.9192 107.139 34.692C107.042 34.6048 107.006 34.4396 106.943 34.3099C107.086 34.2491 107.284 34.0942 107.365 34.1447C107.763 34.3902 108.13 34.692 108.518 35.0018H108.519Z" fill="#D75A8B"/>
<path id="Vector_34" d="M96.7632 35.1278C96.7677 35.2001 96.7555 35.254 96.7266 35.3194C96.7078 35.2666 96.7078 35.2035 96.71 35.1071C96.7244 35.0865 96.7366 35.098 96.7632 35.1278Z" fill="#D75A8B"/>
<path id="Vector_35" d="M93.5144 40.2999C93.511 40.2927 93.5258 40.2855 93.5508 40.2784C93.5587 40.2772 93.5315 40.2975 93.5144 40.2999Z" fill="#D75A8B"/>
<path id="Vector_36" d="M96.6825 35.3545C96.6939 35.37 96.687 35.3844 96.6632 35.3951C96.6484 35.3772 96.6541 35.3641 96.6825 35.3545Z" fill="#D75A8B"/>
<path id="Vector_37" d="M15.8501 42.8005C14.7013 43.4957 13.4494 43.3236 12.6283 42.3771C11.8434 41.4708 11.747 40.1112 12.4211 39.1291C13.0197 38.2572 13.8528 37.8728 14.8613 38.0403C15.8863 38.2101 16.5878 38.8526 16.8685 39.8989C17.1579 40.9751 16.8564 41.9033 16.0518 42.6456C15.9959 42.6972 15.9323 42.7397 15.849 42.8005H15.8501Z" fill="#D75A8B"/>
</g>
<defs>
<clipPath id="clip0_3985_20951">
<rect width="149" height="46" fill="white" transform="translate(0.5)"/>
</clipPath>
</defs>
</svg>
