<svg width="115" height="32" viewBox="0 0 115 32" fill="none" xmlns="http://www.w3.org/2000/svg">
<path d="M0 3.75365C0 1.68606 1.66363 0 3.71869 0H17.2479C19.3029 0 20.9665 1.68606 20.9665 3.75365V13.9562C20.9665 14.5223 20.5139 14.9777 19.9512 14.9777C19.4008 14.9777 18.9359 14.5223 18.9359 13.9562V3.75365C18.9359 2.80601 18.1898 2.04297 17.2479 2.04297H3.71869C2.77678 2.04297 2.0306 2.80601 2.0306 3.75365V28.257C2.0306 29.1923 2.77678 29.9553 3.71869 29.9553H14.5445C15.1072 29.9553 15.5598 30.4107 15.5598 30.9768C15.5598 31.5429 15.1072 31.9983 14.5445 31.9983H3.71869C1.66363 31.9983 0 30.3246 0 28.257V3.75365Z" fill="#FAFAFA"/>
<path fill-rule="evenodd" clip-rule="evenodd" d="M4.20907 0.492282C4.39255 0.184606 4.72283 0 5.06534 0H15.9034C16.2459 0 16.5761 0.184606 16.7596 0.492282C16.9431 0.787651 16.9676 1.16917 16.8086 1.47684L15.83 3.44597C15.4263 4.25824 14.6067 4.77514 13.7137 4.77514H7.25497C6.36199 4.77514 5.54241 4.25824 5.13874 3.44597L4.16013 1.47684C4.00111 1.16917 4.02558 0.787651 4.20907 0.492282ZM6.71673 2.04297L6.96138 2.53525C7.01031 2.65833 7.13264 2.73216 7.25497 2.73216H13.7137C13.8361 2.73216 13.9584 2.65833 14.0073 2.53525L14.252 2.04297H6.71673Z" fill="#FAFAFA"/>
<path d="M6.76562 26.8926C6.76562 26.3388 7.21822 25.8711 7.78092 25.8711H13.1877C13.7504 25.8711 14.203 26.3388 14.203 26.8926C14.203 27.4587 13.7504 27.9141 13.1877 27.9141H7.78092C7.21822 27.9141 6.76562 27.4587 6.76562 26.8926Z" fill="#FAFAFA"/>
<path fill-rule="evenodd" clip-rule="evenodd" d="M14.8906 22.1281C14.8906 18.9282 17.4595 16.3438 20.6399 16.3438C23.8081 16.3438 26.3892 18.9282 26.3892 22.1281C26.3892 25.3279 23.8081 27.9124 20.6399 27.9124C17.4595 27.9124 14.8906 25.3279 14.8906 22.1281ZM20.6399 18.3867C18.5848 18.3867 16.9212 20.0605 16.9212 22.1281C16.9212 24.1956 18.5848 25.8694 20.6399 25.8694C22.695 25.8694 24.3586 24.1956 24.3586 22.1281C24.3586 20.0605 22.695 18.3867 20.6399 18.3867Z" fill="#D75A8B"/>
<path d="M23.3588 25.439C23.787 25.0698 24.4353 25.119 24.79 25.5498L28.8512 30.3126C29.2182 30.7433 29.1693 31.3833 28.7411 31.7525C28.313 32.1217 27.6769 32.0725 27.3099 31.6418L23.2487 26.8789C22.894 26.4482 22.9429 25.8082 23.3588 25.439Z" fill="#D75A8B"/>
<path d="M35.3711 24.3922C35.893 22.1195 36.1948 18.5833 36.2763 13.7835H39.0041C38.9063 18.7228 38.6127 22.3123 38.1234 24.5522L35.3711 24.3922ZM43.0286 10.7437V26.226H40.3375V10.7437H35.5179V8.19614H40.3375V4.91016H43.0286V8.19614H47.7015V10.7437H43.0286ZM45.3161 17.4141C45.3488 16.8644 45.2305 16.3803 44.9614 15.9619C44.6923 15.5516 44.3212 15.166 43.8482 14.805L45.9889 13.3036C46.4864 13.6974 46.9716 14.2266 47.4446 14.8912C47.9094 15.5557 48.1296 16.3352 48.1051 17.2295V24.3676H45.3161V17.4141Z" fill="#FAFAFA"/>
<path d="M65.5099 15.9388C66.5456 16.1767 67.3529 16.7429 67.9319 17.6372C68.511 18.5233 68.8005 19.7006 68.8005 21.1693V26.2029H66.1582V21.2308C66.2561 20.2873 66.1378 19.553 65.8035 19.0279C65.4691 18.5028 65.0288 18.1992 64.4824 18.1171L58.3784 26.7075L56.0664 25.4398L61.9136 17.2556C62.5986 16.3942 63.0879 15.3111 63.3815 14.0066C63.6832 12.7103 63.7892 11.6067 63.6995 10.696H56.5557V8.14844H66.6108V10.3391C66.619 12.4723 66.252 14.3389 65.5099 15.9388Z" fill="#FAFAFA"/>
<path fill-rule="evenodd" clip-rule="evenodd" d="M76.4336 8.19531H87.9199V26.2005H76.4336V8.19531ZM79.1615 10.8044V23.5914H85.1798V10.8044H79.1615Z" fill="#D75A8B"/>
<path d="M106.154 10.7299H101.64C100.817 13.6508 99.6995 16.1204 98.2887 18.1387L95.8789 16.8588C96.8901 15.3984 97.7668 13.5974 98.5089 11.456C99.251 9.30637 99.8219 7.02546 100.221 4.61328L102.962 4.98249L102.289 8.17002H109.041V14.3851C109.066 15.5173 108.56 16.9285 107.524 18.6187C106.489 20.3171 104.005 23.1436 100.075 27.0982L97.9707 25.4368C101.763 21.5888 104.087 19.0248 104.943 17.7449C105.791 16.4568 106.195 15.2753 106.154 14.2005V10.7299ZM110.888 4.97019H112.234V8.4777H110.888V4.97019ZM113.653 4.97019H114.998V8.46539H113.653V4.97019Z" fill="#D75A8B"/>
</svg>
