<svg width="74" height="20" viewBox="0 0 74 20" fill="none" xmlns="http://www.w3.org/2000/svg">
<g id="&#60;Group&#62;">
<g id="&#60;Group&#62;_2">
<path id="Rectangle 34 (Stroke) 00000163785775986213614270000013904462375298062496" d="M0 2.346C0 1.05378 1.04609 0 2.33832 0H10.8455C12.1377 0 13.1838 1.05378 13.1838 2.346V8.72252C13.1838 9.07635 12.8992 9.36094 12.5454 9.36094C12.1992 9.36094 11.9069 9.07635 11.9069 8.72252V2.346C11.9069 1.75373 11.4377 1.27684 10.8455 1.27684H2.33832C1.74604 1.27684 1.27684 1.75373 1.27684 2.346V17.6604C1.27684 18.245 1.74604 18.7219 2.33832 18.7219H9.14557C9.4994 18.7219 9.78399 19.0065 9.78399 19.3603C9.78399 19.7141 9.4994 19.9987 9.14557 19.9987H2.33832C1.04609 19.9987 0 18.9526 0 17.6604V2.346Z" fill="#040000"/>
<path id="Rectangle 35 (Stroke) 00000124154298279488469010000001756682742886238609" fill-rule="evenodd" clip-rule="evenodd" d="M2.64395 0.307673C2.75933 0.115377 2.96701 0 3.18238 0H9.99733C10.2127 0 10.4204 0.115377 10.5358 0.307673C10.6511 0.492276 10.6665 0.730723 10.5665 0.923018L9.95118 2.15371C9.69735 2.66137 9.18199 2.98443 8.62049 2.98443H4.55921C3.99771 2.98443 3.48236 2.66137 3.22852 2.15371L2.61318 0.923018C2.51319 0.730723 2.52857 0.492276 2.64395 0.307673ZM4.22077 1.27684L4.37461 1.58452C4.40538 1.66144 4.4823 1.70758 4.55921 1.70758H8.62049C8.69741 1.70758 8.77433 1.66144 8.80509 1.58452L8.95893 1.27684H4.22077Z" fill="#040000"/>
<path id="Vector 51 (Stroke) 00000058566584504889026840000014251412987743969939" d="M4.25781 16.8064C4.25781 16.4603 4.5424 16.168 4.89623 16.168H8.29602C8.64984 16.168 8.93443 16.4603 8.93443 16.8064C8.93443 17.1602 8.64984 17.4448 8.29602 17.4448H4.89623C4.5424 17.4448 4.25781 17.1602 4.25781 16.8064Z" fill="#040000"/>
<g id="&#60;Group&#62;_3">
<path id="Ellipse 17 (Stroke) 00000050655660666100271910000013618644280610286483" fill-rule="evenodd" clip-rule="evenodd" d="M9.36328 13.83C9.36328 11.8301 10.9786 10.2148 12.9784 10.2148C14.9706 10.2148 16.5936 11.8301 16.5936 13.83C16.5936 15.8299 14.9706 17.4452 12.9784 17.4452C10.9786 17.4452 9.36328 15.8299 9.36328 13.83ZM12.9784 11.4917C11.6862 11.4917 10.6401 12.5378 10.6401 13.83C10.6401 15.1222 11.6862 16.1683 12.9784 16.1683C14.2707 16.1683 15.3168 15.1222 15.3168 13.83C15.3168 12.5378 14.2707 11.4917 12.9784 11.4917Z" fill="#D75A8B"/>
<path id="Vector 52 (Stroke) 00000028299431958671514440000006568015277498607533" d="M14.687 15.8999C14.9562 15.6691 15.3639 15.6999 15.587 15.9691L18.1406 18.9458C18.3714 19.215 18.3406 19.615 18.0714 19.8458C17.8022 20.0765 17.4022 20.0458 17.1715 19.7765L14.6178 16.7998C14.3947 16.5306 14.4255 16.1306 14.687 15.8999Z" fill="#D75A8B"/>
</g>
</g>
<g id="&#60;Group&#62;_4">
<g id="&#60;Group&#62;_5">
<g id="&#60;Group&#62;_6">
<path id="&#60;Compound Path&#62;" d="M22.5 15.2465C22.8282 13.826 23.0179 11.6159 23.0692 8.61611H24.7845C24.7229 11.7031 24.5383 13.9465 24.2307 15.3465L22.5 15.2465ZM27.3151 6.71624V16.3925H25.6229V6.71624H22.5923V5.12403H25.6229V3.07031H27.3151V5.12403H30.2534V6.71624H27.3151ZM28.7535 10.8852C28.774 10.5416 28.6996 10.2391 28.5304 9.97757C28.3612 9.72117 28.1279 9.48016 27.8304 9.25454L29.1765 8.31613C29.4893 8.56227 29.7944 8.89302 30.0918 9.30838C30.3841 9.72373 30.5226 10.2109 30.5072 10.7698V15.2311H28.7535V10.8852Z" fill="#231815"/>
<path id="&#60;Compound Path&#62;_2" d="M41.2545 9.96169C41.9057 10.1104 42.4134 10.4642 42.7775 11.0232C43.1415 11.577 43.3236 12.3128 43.3236 13.2307V16.3767H41.6622V13.2692C41.7237 12.6795 41.6493 12.2205 41.4391 11.8923C41.2288 11.5642 40.9519 11.3744 40.6084 11.3231L36.7702 16.692L35.3164 15.8998L38.9931 10.7847C39.4238 10.2463 39.7315 9.56942 39.9161 8.75408C40.1058 7.94388 40.1725 7.25418 40.1161 6.68498H35.6241V5.09277H41.9468V6.46192C41.9519 7.79517 41.7211 8.96176 41.2545 9.96169Z" fill="#231815"/>
</g>
</g>
<g id="&#60;Group&#62;_7">
<g id="&#60;Group&#62;_8">
<path id="&#60;Compound Path&#62;_3" fill-rule="evenodd" clip-rule="evenodd" d="M49.168 5.12305H56.3906V16.3762H49.168V5.12305ZM50.8832 6.75371V14.7455H54.6676V6.75371H50.8832Z" fill="#D75A8B"/>
<path id="&#60;Compound Path&#62;_4" d="M67.8908 6.7076H65.0525C64.5346 8.53313 63.8321 10.0766 62.945 11.3381L61.4297 10.5381C62.0655 9.62536 62.6168 8.4998 63.0834 7.16142C63.5501 5.81792 63.909 4.39236 64.1603 2.88477L65.8833 3.11552L65.4602 5.1077H69.7061V8.99207C69.7215 9.69972 69.4035 10.5817 68.7523 11.6381C68.1011 12.6995 66.5396 14.4661 64.068 16.9377L62.745 15.8993C65.1295 13.4944 66.5909 11.8919 67.1293 11.0919C67.6626 10.2869 67.9165 9.54845 67.8908 8.8767V6.7076ZM70.8676 3.10783H71.7137V5.3H70.8676V3.10783ZM72.6059 3.10783H73.452V5.29231H72.6059V3.10783Z" fill="#D75A8B"/>
</g>
</g>
</g>
</g>
</svg>
