<svg width="34" height="35" viewBox="0 0 34 35" fill="none" xmlns="http://www.w3.org/2000/svg">
<g filter="url(#filter0_d_4527_29544)">
<circle cx="17" cy="17.5156" r="10" fill="white"/>
</g>
<path d="M13.0968 17.9403L13.0868 17.9303L13.0784 17.9226L13.0783 17.9225L13.0763 17.9205C13.0729 17.9173 13.0665 17.911 13.0575 17.9019C13.0393 17.8837 13.011 17.8545 12.976 17.8157C12.9051 17.7372 12.8112 17.6242 12.7196 17.4885C12.5183 17.1904 12.3672 16.8681 12.3672 16.5433C12.3672 15.3879 13.3248 14.4199 14.5018 14.4199C15.5079 14.4199 16.1721 15.022 16.4677 15.3219L17.0018 15.8636L17.5359 15.3219C17.8316 15.022 18.4957 14.4199 19.5018 14.4199C20.6789 14.4199 21.6364 15.3879 21.6364 16.5433C21.6364 16.8775 21.4878 17.2102 21.2937 17.4923C21.2005 17.6278 21.1068 17.7371 21.0373 17.8114C21.0029 17.8482 20.9754 17.8754 20.9582 17.8919C20.9497 17.9002 20.9437 17.9057 20.9409 17.9083C20.9404 17.9087 20.94 17.9091 20.9397 17.9094C20.9395 17.9095 20.9393 17.9097 20.9392 17.9098L20.9239 17.9232L20.9068 17.9403L17.0018 21.8414L13.0968 17.9403Z" stroke="#E3A1A1" stroke-width="1.5"/>
<defs>
<filter id="filter0_d_4527_29544" x="0" y="0.515625" width="34" height="34" filterUnits="userSpaceOnUse" color-interpolation-filters="sRGB">
<feFlood flood-opacity="0" result="BackgroundImageFix"/>
<feColorMatrix in="SourceAlpha" type="matrix" values="0 0 0 0 0 0 0 0 0 0 0 0 0 0 0 0 0 0 127 0" result="hardAlpha"/>
<feOffset/>
<feGaussianBlur stdDeviation="3.5"/>
<feComposite in2="hardAlpha" operator="out"/>
<feColorMatrix type="matrix" values="0 0 0 0 0 0 0 0 0 0 0 0 0 0 0 0 0 0 0.25 0"/>
<feBlend mode="normal" in2="BackgroundImageFix" result="effect1_dropShadow_4527_29544"/>
<feBlend mode="normal" in="SourceGraphic" in2="effect1_dropShadow_4527_29544" result="shape"/>
</filter>
</defs>
</svg>
