<svg width="23" height="22" viewBox="0 0 23 22" fill="none" xmlns="http://www.w3.org/2000/svg">
<g id="money-bill-solid">
<path id="Vector" d="M2.22217 5V16.3333H20.8888V5H2.22217ZM4.88883 6.33333H18.2222C18.2222 7.07 18.8188 7.66667 19.5555 7.66667V13.6667C18.8188 13.6667 18.2222 14.2633 18.2222 15H4.88883C4.88883 14.2633 4.29217 13.6667 3.5555 13.6667V7.66667C4.29217 7.66667 4.88883 7.07 4.88883 6.33333ZM11.5555 7.66667C10.0815 7.66667 8.88883 9.01067 8.88883 10.6667C8.88883 12.3227 10.0815 13.6667 11.5555 13.6667C13.0295 13.6667 14.2222 12.3227 14.2222 10.6667C14.2222 9.01067 13.0295 7.66667 11.5555 7.66667ZM11.5555 9C12.2902 9 12.8888 9.74733 12.8888 10.6667C12.8888 11.586 12.2902 12.3333 11.5555 12.3333C10.8208 12.3333 10.2222 11.586 10.2222 10.6667C10.2222 9.74733 10.8208 9 11.5555 9ZM6.5555 9.66667C6.0035 9.66667 5.5555 10.1147 5.5555 10.6667C5.5555 11.2187 6.0035 11.6667 6.5555 11.6667C7.1075 11.6667 7.5555 11.2187 7.5555 10.6667C7.5555 10.1147 7.1075 9.66667 6.5555 9.66667ZM16.5555 9.66667C16.0035 9.66667 15.5555 10.1147 15.5555 10.6667C15.5555 11.2187 16.0035 11.6667 16.5555 11.6667C17.1075 11.6667 17.5555 11.2187 17.5555 10.6667C17.5555 10.1147 17.1075 9.66667 16.5555 9.66667Z" fill="#28A745"/>
</g>
</svg>
