<svg width="32" height="32" viewBox="0 0 32 32" fill="none" xmlns="http://www.w3.org/2000/svg">
<g id="booking">
<path id="BG Circle" d="M16 0C19.1645 0 22.2579 0.938384 24.8891 2.69649C27.5203 4.45459 29.5711 6.95345 30.7821 9.87706C31.9931 12.8007 32.3099 16.0177 31.6926 19.1214C31.0752 22.2251 29.5513 25.0761 27.3137 27.3137C25.0761 29.5513 22.2251 31.0752 19.1214 31.6926C16.0177 32.3099 12.8007 31.9931 9.87706 30.7821C6.95345 29.5711 4.45459 27.5203 2.69649 24.8891C0.938384 22.2579 0 19.1645 0 16C0 11.7565 1.68571 7.68687 4.68629 4.68629C7.68687 1.68571 11.7565 0 16 0Z" fill="#FDE0EB"/>
<path id="Vector" d="M6.32422 9.78003V14.618H7.01535C7.83877 14.618 8.39762 15.1768 8.39762 16.0002C8.39762 16.8236 7.83877 17.3825 7.01535 17.3825H6.32422V22.2204H25.6759V17.3825H24.9848C24.1614 17.3825 23.6025 16.8236 23.6025 16.0002C23.6025 15.1768 24.1614 14.618 24.9848 14.618H25.6759V9.78003H6.32422ZM7.70648 11.1623H24.2937V13.3653C23.1085 13.6757 22.2203 14.7178 22.2203 16.0002C22.2203 17.2826 23.1085 18.3247 24.2937 18.6352V20.8381H7.70648V18.6352C8.89167 18.3247 9.77988 17.2826 9.77988 16.0002C9.77988 14.7178 8.89167 13.6757 7.70648 13.3653V11.1623Z" fill="#FF477F"/>
</g>
</svg>
