<svg width="17" height="15" viewBox="0 0 17 15" fill="none" xmlns="http://www.w3.org/2000/svg">
<path d="M8.44563 0.144531L7.95719 1.25615L6.20556 5.18049L1.92752 5.63524L0.714844 5.76998L1.62435 6.57843L4.80761 9.45853L3.91495 13.6692L3.66231 14.8482L4.7234 14.2418L8.44563 12.086L12.1679 14.2418L13.229 14.8482L12.9763 13.6692L12.0836 9.45853L15.2669 6.57843L16.1764 5.76998L14.9637 5.63524L10.6857 5.18049L8.93407 1.25615L8.44563 0.144531ZM8.44563 2.78883L9.82673 5.90473L9.96147 6.19105L10.2646 6.22474L13.65 6.57843L11.1236 8.85219L10.8878 9.07115L10.9552 9.37432L11.6626 12.6923L8.71511 11.0081L8.44563 10.8396L8.17615 11.0081L5.22868 12.6923L5.93607 9.37432L6.00344 9.07115L5.76765 8.85219L3.24125 6.57843L6.62662 6.22474L6.92979 6.19105L7.06453 5.90473L8.44563 2.78883Z" fill="#C8B477"/>
</svg>
