<svg width="20" height="20" viewBox="0 0 20 20" fill="none" xmlns="http://www.w3.org/2000/svg">
<g id="user-cog-solid">
<path id="Vector" d="M10 3.125C7.5625 3.125 5.625 5.0625 5.625 7.5C5.625 9.02344 6.38123 10.351 7.54394 11.1328C5.31876 12.0921 3.75 14.3085 3.75 16.875H5C5 14.125 7.25 11.875 10 11.875C12.4375 11.875 14.375 9.9375 14.375 7.5C14.375 5.0625 12.4375 3.125 10 3.125ZM10 4.375C11.75 4.375 13.125 5.75 13.125 7.5C13.125 9.25 11.75 10.625 10 10.625C8.25 10.625 6.875 9.25 6.875 7.5C6.875 5.75 8.25 4.375 10 4.375ZM15.0623 11.25V12.5623C14.6873 12.6248 14.3127 12.813 14.0002 13.0005L13.0627 12.063L12.1875 12.937L13.125 13.8745C12.875 14.187 12.7505 14.5625 12.688 15H11.25V16.25H12.5623C12.6248 16.625 12.813 17.0005 13.0005 17.3755L12.063 18.313L12.937 19.187L13.8745 18.2495C14.187 18.437 14.5627 18.6252 14.9377 18.6877V20H16.1877V18.6877C16.5627 18.6252 16.9373 18.437 17.2498 18.2495L18.1873 19.187L19.0625 18.313L18.125 17.3755C18.375 17.063 18.4995 16.6875 18.562 16.25H20V15H18.6877C18.6252 14.625 18.437 14.2495 18.2495 13.8745L19.187 12.937L18.313 12.063L17.3755 13.0005C17.063 12.813 16.6873 12.6248 16.3123 12.5623V11.25H15.0623ZM15.625 13.75C16.6875 13.75 17.5 14.5625 17.5 15.625C17.5 16.6875 16.6875 17.5 15.625 17.5C14.5625 17.5 13.75 16.6875 13.75 15.625C13.75 14.5625 14.5625 13.75 15.625 13.75ZM15.625 15C15.5469 15 15.4688 15.0195 15.3955 15.0537C15.3223 15.0879 15.2539 15.1367 15.1953 15.1953C15.1367 15.2539 15.0879 15.3223 15.0537 15.3955C15.0195 15.4688 15 15.5469 15 15.625C15 15.8594 15.1758 16.0938 15.3955 16.1963C15.4688 16.2305 15.5469 16.25 15.625 16.25C15.9375 16.25 16.25 15.9375 16.25 15.625C16.25 15.3125 15.9375 15 15.625 15Z" fill="white"/>
</g>
</svg>
