<svg width="20" height="20" viewBox="0 0 20 20" fill="none" xmlns="http://www.w3.org/2000/svg">
<g id="wallet-solid">
<path id="Vector" d="M14.3555 2.49994C14.2603 2.50238 14.1602 2.51459 14.0625 2.53901L3.90625 5.21479C3.08594 5.42963 2.5 6.18158 2.5 7.03119V15.6249C2.5 16.6528 3.34717 17.4999 4.375 17.4999H15.625C16.6528 17.4999 17.5 16.6528 17.5 15.6249V7.49994C17.5 6.47211 16.6528 5.62494 15.625 5.62494H7.26562L14.375 3.74994V4.99994H15.625V3.74994C15.625 3.04682 15.0269 2.49018 14.3555 2.49994ZM4.375 6.87494H15.625C15.979 6.87494 16.25 7.14594 16.25 7.49994V15.6249C16.25 15.9789 15.979 16.2499 15.625 16.2499H4.375C4.021 16.2499 3.75 15.9789 3.75 15.6249V7.49994C3.75 7.14594 4.021 6.87494 4.375 6.87494ZM14.0625 10.6249C13.5449 10.6249 13.125 11.0449 13.125 11.5624C13.125 12.08 13.5449 12.4999 14.0625 12.4999C14.5801 12.4999 15 12.08 15 11.5624C15 11.0449 14.5801 10.6249 14.0625 10.6249Z" fill="white"/>
</g>
</svg>
