<svg width="11" height="11" viewBox="0 0 11 11" fill="none" xmlns="http://www.w3.org/2000/svg">
<path id="Vector" d="M5.5 0C2.46738 0 0 2.46738 0 5.5C0 8.53262 2.46738 11 5.5 11C8.53262 11 11 8.53262 11 5.5C11 4.631 10.792 3.8112 10.4315 3.0797C10.3046 3.37882 10.0967 3.63285 9.83902 3.83C10.0396 4.34912 10.1538 4.91108 10.1538 5.5C10.1538 8.06596 8.06596 10.1538 5.5 10.1538C2.93404 10.1538 0.846154 8.06596 0.846154 5.5C0.846154 2.93404 2.93404 0.846154 5.5 0.846154C6.07158 0.846154 6.6173 0.954514 7.12372 1.14363C7.23372 0.893168 7.36063 0.635647 7.49474 0.380108C6.87536 0.138108 6.204 0 5.5 0ZM8.67308 0C8.67308 0 7.61538 1.80849 7.61538 2.36907C7.61538 2.92964 8.08923 3.38462 8.67308 3.38462C9.25692 3.38462 9.73077 2.92964 9.73077 2.36907C9.73077 1.80849 8.67308 0 8.67308 0ZM2.53846 4.65385V5.5H4.65385V4.65385H2.53846ZM6.34615 4.65385V5.5H8.46154V4.65385H6.34615Z" fill="#839AD6"/>
</svg>
