<svg width="16" height="16" viewBox="0 0 16 16" fill="none" xmlns="http://www.w3.org/2000/svg">
<path id="Vector" d="M8 0C12.4107 0 16 3.05814 16 6.81861C16 8.31938 15.445 9.67837 14.2823 11.0137C13.445 12.0294 12.0856 13.1475 10.8323 14.0719C9.57896 14.9849 8.42667 15.7036 8 15.8919C7.82933 15.9661 7.70133 16 7.6 16C7.248 16 7.27958 15.6015 7.30625 15.4361C7.32758 15.3105 7.42396 14.7161 7.42396 14.7161C7.45062 14.5049 7.47687 14.1693 7.39687 13.9582C7.30621 13.7242 6.94883 13.604 6.6875 13.5469C2.8475 13.0106 0 10.1853 0 6.81861C0 3.05814 3.58933 0 8 0ZM7.4625 4.56395C7.1938 4.56928 6.93333 4.78868 6.93333 5.13569V8.55949C6.93333 8.87448 7.17227 9.13012 7.46667 9.13012C7.76107 9.13012 8 8.87448 8 8.55949V6.91669L9.16562 8.8905C9.46749 9.34244 10.1333 9.11471 10.1333 8.55949V5.13569C10.1333 4.8207 9.8944 4.56506 9.6 4.56506C9.3056 4.56506 9.06667 4.8207 9.06667 5.13569V6.84759L7.90104 4.80468C7.78784 4.6352 7.62372 4.56075 7.4625 4.56395ZM2.66667 4.56506C2.37227 4.56506 2.13333 4.8207 2.13333 5.13569V8.55949C2.13333 8.87448 2.37227 9.13012 2.66667 9.13012H4.26667C4.56107 9.13012 4.8 8.87448 4.8 8.55949C4.8 8.2445 4.56107 7.98885 4.26667 7.98885H3.2V5.13569C3.2 4.8207 2.96107 4.56506 2.66667 4.56506ZM5.86667 4.56506C5.57227 4.56506 5.33333 4.8207 5.33333 5.13569V8.55949C5.33333 8.87448 5.57227 9.13012 5.86667 9.13012C6.16107 9.13012 6.4 8.87448 6.4 8.55949V5.13569C6.4 4.8207 6.16107 4.56506 5.86667 4.56506ZM11.2 4.56506C10.9056 4.56506 10.6667 4.8207 10.6667 5.13569V8.55949C10.6667 8.87448 10.9056 9.13012 11.2 9.13012H12.8C13.0944 9.13012 13.3333 8.87448 13.3333 8.55949C13.3333 8.2445 13.0944 7.98885 12.8 7.98885H11.7333V7.41822H12.8C13.0949 7.41822 13.3333 7.16258 13.3333 6.84759C13.3333 6.5326 13.0949 6.27696 12.8 6.27696H11.7333V5.70633H12.8C13.0944 5.70633 13.3333 5.45068 13.3333 5.13569C13.3333 4.8207 13.0944 4.56506 12.8 4.56506H11.2Z" fill="white"/>
</svg>
