<svg width="22" height="20" viewBox="0 0 22 20" fill="none" xmlns="http://www.w3.org/2000/svg">
<g clip-path="url(#clip0_5311_7038)">
<path d="M22 8.59119C22 4.12973 17.0655 0.5 11 0.5C4.93448 0.5 0 4.12973 0 8.59119C0 12.591 3.91377 15.9404 9.19983 16.574C9.5576 16.6441 10.0453 16.788 10.169 17.0655C10.2803 17.3179 10.2412 17.7122 10.2051 17.9674C10.2051 17.9674 10.0762 18.6711 10.0484 18.8206C9.99991 19.0729 9.82772 19.8065 11.001 19.3579C12.1754 18.9094 17.3356 15.9768 19.6431 13.5695C21.237 11.9845 22.001 10.3771 22.001 8.59119H22Z" fill="#00A75B"/>
<path d="M18.3399 11.1677H15.2499C15.1334 11.1677 15.0396 11.0826 15.0396 10.977V10.9742V6.6305V6.62583C15.0396 6.52022 15.1334 6.43518 15.2499 6.43518H18.3399C18.4553 6.43518 18.5502 6.52116 18.5502 6.62583V7.33327C18.5502 7.43887 18.4564 7.52391 18.3399 7.52391H16.2397V8.25846H18.3399C18.4553 8.25846 18.5502 8.34443 18.5502 8.4491V9.15654C18.5502 9.26214 18.4564 9.34719 18.3399 9.34719H16.2397V10.0817H18.3399C18.4553 10.0817 18.5502 10.1677 18.5502 10.2724V10.9798C18.5502 11.0854 18.4564 11.1705 18.3399 11.1705V11.1677Z" fill="white"/>
<path d="M6.90901 11.1677C7.02448 11.1677 7.11934 11.0826 7.11934 10.977V10.2696C7.11934 10.1649 7.02448 10.0789 6.90901 10.0789H4.80881V6.62491C4.80881 6.52024 4.71395 6.43427 4.59848 6.43427H3.81799C3.70149 6.43427 3.60767 6.51931 3.60767 6.62491V10.9733V10.977C3.60767 11.0826 3.70149 11.1677 3.81799 11.1677H6.90798H6.90901Z" fill="white"/>
<path d="M8.76908 6.43518H7.98963C7.87346 6.43518 7.7793 6.52054 7.7793 6.62583V10.977C7.7793 11.0823 7.87346 11.1677 7.98963 11.1677H8.76908C8.88524 11.1677 8.97941 11.0823 8.97941 10.977V6.62583C8.97941 6.52054 8.88524 6.43518 8.76908 6.43518Z" fill="white"/>
<path d="M14.0799 6.43518H13.2994C13.1829 6.43518 13.0891 6.52022 13.0891 6.62583V9.20981L10.893 6.52116C10.8878 6.51462 10.8816 6.50807 10.8765 6.50153C10.8765 6.50153 10.8765 6.50153 10.8754 6.5006C10.8713 6.49686 10.8672 6.49219 10.8631 6.48845C10.862 6.48751 10.86 6.48658 10.859 6.48565C10.8548 6.48284 10.8517 6.48004 10.8476 6.47723C10.8455 6.4763 10.8435 6.47443 10.8414 6.4735C10.8383 6.47069 10.8342 6.46882 10.8301 6.46695C10.828 6.46602 10.826 6.46415 10.8239 6.46322C10.8198 6.46135 10.8167 6.45948 10.8126 6.45761C10.8105 6.45668 10.8084 6.45574 10.8064 6.45481C10.8022 6.45294 10.7981 6.45107 10.794 6.45013C10.7919 6.45013 10.7899 6.44826 10.7868 6.44826C10.7827 6.44733 10.7785 6.44546 10.7744 6.44453C10.7723 6.44453 10.7693 6.44359 10.7672 6.44266C10.7631 6.44266 10.7589 6.44079 10.7548 6.43985C10.7517 6.43985 10.7486 6.43985 10.7455 6.43892C10.7414 6.43892 10.7383 6.43798 10.7342 6.43798C10.7301 6.43798 10.727 6.43798 10.7229 6.43798C10.7208 6.43798 10.7177 6.43798 10.7156 6.43798H9.94031C9.82483 6.43798 9.72998 6.52303 9.72998 6.62863V10.9798C9.72998 11.0845 9.8238 11.1705 9.94031 11.1705H10.7208C10.8373 11.1705 10.9311 11.0854 10.9311 10.9798V8.39583L13.1303 11.0882C13.1458 11.1078 13.1643 11.1237 13.1849 11.1359C13.1849 11.1359 13.187 11.1368 13.187 11.1378C13.1911 11.1406 13.1953 11.1424 13.2004 11.1452C13.2025 11.1462 13.2045 11.1471 13.2066 11.148C13.2097 11.1499 13.2138 11.1508 13.2169 11.1527C13.22 11.1546 13.2241 11.1555 13.2272 11.1564C13.2293 11.1564 13.2313 11.1583 13.2334 11.1583C13.2386 11.1602 13.2427 11.1611 13.2478 11.1621C13.2478 11.1621 13.2499 11.1621 13.2509 11.1621C13.2685 11.1658 13.287 11.1686 13.3056 11.1686H14.0809C14.1964 11.1686 14.2912 11.0836 14.2912 10.9779V6.62676C14.2912 6.52209 14.1974 6.43612 14.0809 6.43612L14.0799 6.43518Z" fill="white"/>
</g>
<defs>
<clipPath id="clip0_5311_7038">
<rect width="22" height="19" fill="white" transform="translate(0 0.5)"/>
</clipPath>
</defs>
</svg>
