<svg width="22" height="22" viewBox="0 0 22 22" fill="none" xmlns="http://www.w3.org/2000/svg">
<g id="TikTok">
<path id="Vector" d="M15.7451 7.94155C17.1598 8.95646 18.893 9.55361 20.7648 9.55361V5.93877C20.4106 5.93884 20.0572 5.90177 19.7106 5.82808V8.67348C17.8389 8.67348 16.106 8.07633 14.6909 7.06149V14.4383C14.6909 18.1286 11.71 21.12 8.03308 21.12C6.66112 21.12 5.38595 20.7037 4.32666 19.9898C5.53566 21.2304 7.22171 22 9.08702 22C12.7642 22 15.7453 19.0087 15.7453 15.3182V7.94155H15.7451ZM17.0456 4.29462C16.3225 3.50191 15.8478 2.47749 15.7451 1.34495V0.880005H14.7461C14.9976 2.31947 15.8553 3.54925 17.0456 4.29462ZM6.65232 17.158C6.24837 16.6265 6.03008 15.9763 6.03105 15.3077C6.03105 13.6199 7.39451 12.2514 9.07665 12.2514C9.39014 12.2513 9.70175 12.2995 10.0005 12.3946V8.699C9.65137 8.65098 9.299 8.63059 8.94678 8.63807V11.5146C8.6478 11.4194 8.33604 11.3711 8.02247 11.3714C6.34034 11.3714 4.97696 12.7398 4.97696 14.4278C4.97696 15.6213 5.65846 16.6546 6.65232 17.158Z" fill="#FF004F"/>
<path id="Vector_2" d="M14.691 7.06142C16.1062 8.07625 17.8391 8.6734 19.7108 8.6734V5.828C18.666 5.60467 17.7411 5.05674 17.0457 4.29462C15.8553 3.54918 14.9977 2.31939 14.7462 0.880005H12.1222V15.3181C12.1163 17.0013 10.7551 18.3642 9.07661 18.3642C8.08748 18.3642 7.20874 17.891 6.65221 17.158C5.65842 16.6547 4.97692 15.6212 4.97692 14.4278C4.97692 12.74 6.3403 11.3715 8.02243 11.3715C8.34472 11.3715 8.65536 11.4219 8.94674 11.5146V8.63814C5.3344 8.71304 2.4292 11.6752 2.4292 15.3182C2.4292 17.1367 3.15266 18.7853 4.32685 19.9899C5.38613 20.7037 6.66131 21.12 8.03326 21.12C11.7103 21.12 14.6911 18.1285 14.6911 14.4383V7.06142H14.691Z" fill="black"/>
<path id="Vector_3" d="M19.7107 5.82798V5.05861C18.7685 5.06005 17.8449 4.79526 17.0456 4.29452C17.7532 5.07197 18.6849 5.60804 19.7107 5.82798ZM14.7461 0.879985C14.7222 0.742419 14.7037 0.603947 14.6909 0.464946V0H11.0679V14.4382C11.0621 16.1212 9.70101 17.4841 8.02233 17.4841C7.5295 17.4841 7.06419 17.3667 6.65211 17.1581C7.20864 17.891 8.08738 18.3641 9.07651 18.3641C10.7549 18.3641 12.1162 17.0013 12.1221 15.3182V0.879985H14.7461ZM8.94679 8.63812V7.81907C8.64405 7.77754 8.33883 7.7567 8.03324 7.75685C4.35592 7.75678 1.375 10.7483 1.375 14.4382C1.375 16.7516 2.54656 18.7905 4.32682 19.9897C3.15264 18.7852 2.42917 17.1366 2.42917 15.3181C2.42917 11.6751 5.3343 8.71302 8.94679 8.63812Z" fill="#00F2EA"/>
</g>
</svg>
